<svg xmlns="http://www.w3.org/2000/svg" width="256" height="256" fill="none"><circle cx="128" cy="128" r="128" fill="url(#a)"/><path fill="#fff" d="M184.7 179 141.5 74c-2.7-5.4-6.3-8-11-8h-3.9c-4.6 0-8.2 2.6-10.9 8L97 119.8H82.7a8 8 0 0 0-7.9 7.6c.4 4.3 3.7 8 8 8h7.5L72.5 179a9.3 9.3 0 0 0 1.3 8.6 7.5 7.5 0 0 0 6 2.3c1.6 0 3-.7 4.3-1.3 1.6-1 2.3-2.7 3.3-4l19.8-49.3h13.5a8 8 0 0 0 7.9-7.9 8 8 0 0 0-8-8h-7.2L128.6 82l41.2 102.8c.7 1.3 1.7 3 3 3.6 1.3 1 3 1.7 4.6 1.7 2.3 0 4.3-.7 5.6-2.3 1.3-1.7 2-3.3 2-6l-.3-2.6Z"/><defs><linearGradient id="a" x1="40" x2="208" y1="222.5" y2="27.5" gradientUnits="userSpaceOnUse"><stop stop-color="#39B2C3"/><stop offset="1" stop-color="#AD58A1"/></linearGradient></defs></svg>