<svg xmlns="http://www.w3.org/2000/svg" width="256" height="256" fill="none"><g clip-path="url(#a)"><path fill="#6CF9D8" d="M256 128a128 128 0 1 0-256 0 128 128 0 0 0 256 0Z"/><path fill="#2D2E33" fill-rule="evenodd" d="m55.6 67.4 12.5-12.5 49.8 49.8a26.4 26.4 0 0 0-13 12L55.6 67.4Zm48.4 72.1-49.1 49.1 12.4 12.5 48.7-48.6a26.4 26.4 0 0 1-12-13Zm36.7 13 48 48 12.4-12.6-48.4-48.4a26.4 26.4 0 0 1-12 13Zm11-35.8 48.7-48.6L188 55.6l-49.1 49.2a26.4 26.4 0 0 1 13 12Z" clip-rule="evenodd"/></g><defs><clipPath id="a"><path fill="#fff" d="M0 0h256v256H0z"/></clipPath></defs></svg>