<svg height="256" width="256" xmlns="http://www.w3.org/2000/svg"><g data-name="cardano ada"><circle cx="128" cy="128" data-name="Эллипс 6" r="128" style="fill:#3468d1"/><path d="M266 718a13 13 0 1 1-13 12 13 13 0 0 1 13-12Zm30 0a13 13 0 1 1-12 12 13 13 0 0 1 12-12Zm0 53a13 13 0 1 1-12 13 13 13 0 0 1 12-13Zm-30 0a13 13 0 1 1-13 13 13 13 0 0 1 13-13Zm-16-26a13 13 0 1 1-13 12 13 13 0 0 1 13-12Zm62 0a13 13 0 1 1-13 12 13 13 0 0 1 13-12Zm14-22a8 8 0 1 1-7 8 8 8 0 0 1 7-8Zm0 52a8 8 0 1 1-7 8 8 8 0 0 1 7-8Zm-90 0a8 8 0 1 1-8 8 8 8 0 0 1 8-8Zm0-52a8 8 0 1 1-8 8 8 8 0 0 1 8-8Zm45-26a8 8 0 1 1-8 8 8 8 0 0 1 8-8Zm0 105a8 8 0 1 1-8 7 8 8 0 0 1 8-7Zm34 7a7 7 0 1 1-7 7 7 7 0 0 1 7-7Zm-68 0a7 7 0 1 1-6 7 7 7 0 0 1 6-7Zm0-117a7 7 0 1 1-6 6 7 7 0 0 1 6-6Zm68 0a7 7 0 1 1-7 6 7 7 0 0 1 7-6Zm34 58a7 7 0 1 1-7 7 7 7 0 0 1 7-7Zm-136 0a7 7 0 1 1-6 7 7 7 0 0 1 6-7Zm-4-40a5 5 0 1 1-6 5 5 5 0 0 1 6-5Zm0 84a5 5 0 1 1-6 5 5 5 0 0 1 6-5Zm144 0a5 5 0 1 1-5 5 5 5 0 0 1 5-5Zm0-84a5 5 0 1 1-5 5 5 5 0 0 1 5-5Zm-72-42a5 5 0 1 1-5 5 5 5 0 0 1 5-5Zm0 168a5 5 0 1 1-5 5 5 5 0 0 1 5-5Zm46-4a4 4 0 1 1-4 4 4 4 0 0 1 4-4Zm-92 0a4 4 0 1 1-5 4 4 4 0 0 1 5-4Zm0-159a4 4 0 1 1-5 5 4 4 0 0 1 5-5Zm92 0a4 4 0 1 1-4 5 4 4 0 0 1 4-5Zm46 80a4 4 0 1 1-5 4 4 4 0 0 1 5-4Zm-184 0a4 4 0 1 1-4 4 4 4 0 0 1 4-4Z" data-name="Эллипс 6 копия 29" transform="translate(-152 -629)" style="fill:#fff;fill-rule:evenodd"/></g></svg>