<svg width="256" height="256" fill="none" xmlns="http://www.w3.org/2000/svg"><circle cx="128" cy="128" r="128" fill="#E6E5E5"/><path d="M192 48c1 7-4 9-8 9-31 5-65 18-76 23-8 4-33 16-39 27-10 18 41 33 47 34a372 372 0 0 0 68 13c1 1 1 3-2 3-11 0-52-4-75-10-11-2-33-8-46-20-11-11-7-22-4-26 3-6 10-15 34-28 27-15 71-26 90-30 4 0 9-1 11 5Z" fill="#0C0D1D"/><path d="M192 62c1 7-4 9-8 9-31 5-65 18-76 23-8 4-33 16-39 27-10 18 41 33 47 34a372 372 0 0 0 68 13c1 1 1 3-2 3-11 0-52-4-75-10-11-2-33-8-46-20-11-11-7-22-4-26 3-6 10-15 34-28 27-15 71-26 90-30 4 0 9-1 11 5Z" fill="#0433FF"/><path d="M192 75c1 7-4 9-8 9-31 5-65 18-76 23-8 4-33 16-39 27-10 18 41 33 47 34a372 372 0 0 0 68 13c1 1 1 3-2 3-11 0-52-4-75-10-11-2-33-8-46-20-11-11-7-22-4-26 3-6 10-15 34-28 27-15 71-26 90-30 4 0 9-1 11 5Z" fill="#9CADFF"/><path d="M192 90c1 7-4 9-8 9-31 5-65 18-76 23-8 4-33 16-39 27-10 18 41 33 47 34a372 372 0 0 0 68 13c1 1 1 3-2 3-11 0-52-4-75-10-11-2-33-8-46-20-11-11-7-22-4-26 3-6 10-15 34-28 27-15 71-26 90-30 4 0 9-1 11 5Z" fill="#F5F3E6"/><path d="M192 104c1 7-4 9-8 9-31 5-65 18-76 23-8 4-33 16-39 27-10 18 41 33 47 34a372 372 0 0 0 68 13c1 1 1 3-2 3-11 0-52-4-75-10-11-2-33-8-46-20-11-11-7-22-4-26 3-6 10-15 34-28 27-15 71-26 90-30 4 0 9-1 11 5Z" fill="#F10"/></svg>