<svg xmlns="http://www.w3.org/2000/svg" width="1588" height="1588" fill="none"><circle cx="794" cy="794" r="794" fill="#181818"/><g clip-path="url(#a)"><path d="m522 1118 110-191 110-189 110-191 18-30 8 30 34 125-38 65-110 190-109 191h131l110-191 57-98 27 98 51 191h118l-51-191-51-189-13-49 81-142H996l-4-14-42-156-5-20H830l-2 4-108 186-110 191-109 189-110 191h131z" fill="#fff"/></g><defs><clipPath id="a"><path fill="#fff" transform="translate(391 357)" d="M0 0h758v761H0z"/></clipPath></defs></svg>