<svg xmlns="http://www.w3.org/2000/svg" xmlns:xlink="http://www.w3.org/1999/xlink" width="256" height="256" fill="none"><circle cx="128" cy="128" r="128" fill="#eaedf7"/><g fill="#6667ab"><path d="M141 41c0-1 2-2 3-1l85 86a7 7 0 0 1 0 9l-85 85c-1 2-3 1-3-1V41z"/><path d="M126 40a1 1 0 0 1 2 1v108a1 1 0 0 1-2 1L39 99c-4-2-4-7 0-8l87-51z" fill-opacity=".5"/><use xlink:href="#a" fill-opacity=".5"/><use xlink:href="#a" y="34" fill-opacity=".5"/></g><defs><path id="a" d="M126 76a1 1 0 0 1 2 1v108a1 1 0 0 1-2 1l-87-51c-4-2-4-7 0-8l87-51z"/></defs></svg>