<svg xmlns="http://www.w3.org/2000/svg" width="256" height="256" fill="none"><circle cx="128" cy="128" r="128" fill="#fff"/><path fill="#F90" d="M196 196c-76 37-123 6-154-12-2-1-5 0-2 3 10 13 43 42 86 42s69-24 72-28 1-6-2-5Zm21-11c-2-3-13-4-19-3-7 1-16 5-16 7l6 1c5-1 17-3 20 1 3 3-4 20-5 22-1 3 0 4 2 2 3-2 7-6 9-13 3-6 4-15 3-17Z"/><path fill="#000" fill-rule="evenodd" d="M144 123c0 9 1 17-4 25-4 7-10 12-17 12-9 0-15-8-15-18 0-21 19-25 36-25v6Zm25 59c-2 1-4 2-6 1-8-7-9-10-14-17-13 14-22 18-40 18-20 0-36-13-36-38 0-20 11-33 26-40 13-5 31-6 45-8v-3c0-6 1-13-2-18-3-4-9-6-14-6-9 0-18 5-20 14 0 3-2 5-4 5l-23-3c-2 0-5-2-4-5 5-28 31-37 54-37 12 0 28 3 37 12 12 11 11 26 11 42v38c0 11 4 16 9 22 1 3 2 5 0 7l-19 16" clip-rule="evenodd"/></svg>