<svg xmlns="http://www.w3.org/2000/svg" width="256" height="256" fill="none"><g clip-path="url(#a)"><path d="M128 256a128 128 0 1 0 0-256 128 128 0 0 0 0 256z" fill="#fff"/><g clip-path="url(#b)"><path fill-rule="evenodd" d="m140.3 37.8 60.8 31a26.4 26.4 0 0 1 14.4 23.6v14.3h-22.3V92.3c0-1.3-1-2.7-2.3-3.7l-60.8-31c-1-.4-2.3-.4-3.7 0l-60.8 31c-1.4.5-2.3 1.9-2.3 3.8v14.3H41V92.3a27 27 0 0 1 14.4-23.5l60.8-31a27.6 27.6 0 0 1 24.1 0zm7 88.8a19 19 0 0 0-19-19c-10.7 0-19 8.3-19 19a19 19 0 0 0 38 0zm43.1 39.7c1.4-.4 2.3-1.8 2.3-3.7v-14.3H215v14.3a27 27 0 0 1-14.4 23.6l-60.8 31a27.1 27.1 0 0 1-24.1 0l-60.3-31A26.4 26.4 0 0 1 41 162.7v-14.4h22.3v14.3c0 1.4.9 2.8 2.3 3.8l51.5 25.8v-25.8a41.2 41.2 0 0 1-30.2-39.8 41.8 41.8 0 0 1 83.6 0c0 19-13 35.1-30.2 39.7v26l50.1-26z" fill="#245ae5" fill-opacity=".9"/></g></g><defs><clipPath id="a"><path fill="#fff" d="M0 0h256v256H0z"/></clipPath><clipPath id="b"><path fill="#fff" transform="translate(41 35)" d="M0 0h174v185H0z"/></clipPath></defs></svg>