<svg xmlns="http://www.w3.org/2000/svg" width="256" height="256" fill="#3164fa"><path fill-rule="evenodd" d="M103 18 91 6c20-3 71 0 120 33l1 9 3 2h1l5 15c1 7 2 16 0 24s-5 15-9 20l-6 8c-7 0-19 4-22 19-10 6-26 11-47 11-20 0-41-5-56-17a60 60 0 0 1-26-49c0-18 8-31 18-41s23-18 31-21l-2-1h1zm86 28-8 7c-23-5-31-17-31-17 21-1 41 5 55 14l-16-4z"/><path d="M91 21C42 31 5 74 5 127c0 68 57 123 127 123 52 0 95-32 118-75-30 7-66-5-67-33-10 5-26 10-46 10-21 0-42-6-59-18a64 64 0 0 1-27-53c0-19 8-34 19-45 6-6 14-11 21-15zm135 43-3-9c14 10 24 23 23 42-1 27-18 38-28 39 5-8 1-13-1-15l-5-3 4-6c4-5 8-13 10-22s2-18 0-26z"/></svg>