<svg xmlns="http://www.w3.org/2000/svg" width="256" height="256" fill="none"><circle cx="128" cy="128" r="128" fill="#000"/><path fill="#FED702" d="M134.5 150h-.2a12.8 12.8 0 0 1-12.6 0c-.5-.2-1 .6-.5 1.2a8.6 8.6 0 0 0 6.8 3.8c2.7 0 5.1-1.5 6.9-3.8.3-.5 0-1.2-.4-1.2Z"/><path fill="#FED702" d="m181.4 144.9-.2-1L156 72.6A29.9 29.9 0 0 0 128.3 53a29.8 29.8 0 0 0-27.7 19.6l-24.7 68a24.3 24.3 0 0 0 7.3 28.5l1.1 1 .6.6 27.5 25.8a22.8 22.8 0 0 0 31.8 0l27.6-25.8a35.4 35.4 0 0 0 2.7-2.9 25.5 25.5 0 0 0 7-22.9Zm-39.8 37.9a21.3 21.3 0 0 1-27.2 0c-1-1-1-2.6 0-3.5a21.3 21.3 0 0 1 27.2 0c1.1.9 1.1 2.6 0 3.5Zm20.8-20.4-13.6 13.8a3.1 3.1 0 0 1-4.2.2 25.9 25.9 0 0 0-33.2 0 3 3 0 0 1-2 .7 3 3 0 0 1-2.2-1l-13.5-13.7a3.3 3.3 0 0 1 0-4.7 51 51 0 0 1 68.6 0 3.3 3.3 0 0 1 0 4.7Zm-.1-36.5a51 51 0 0 1-68.5 0 3.3 3.3 0 0 1-.2-4.7l13.6-13.8c1.1-1.2 3-1.3 4.2-.3a25.9 25.9 0 0 0 33.2 0c1.2-1 3-.9 4.2.3l13.6 13.8a3.3 3.3 0 0 1-.1 4.7Z"/></svg>