<svg xmlns="http://www.w3.org/2000/svg" width="32" height="32" fill="none"><g clip-path="url(#a)"><mask id="b" maskUnits="userSpaceOnUse" x="0" y="0" width="32" height="32"><path d="M0 0h31.8v31.8H0V0Z" fill="#fff"/></mask><g mask="url(#b)"><path d="M16 31a15 15 0 1 0 0-30 15 15 0 0 0 0 30z" fill="#fff"/><path d="M15.9 30.6a14.7 14.7 0 1 0 0-29.4 14.7 14.7 0 0 0 0 29.4z" stroke="#222326" stroke-width="2.5"/><path d="m18.7 21.2-.2-.5-.1-.6-.6.5-.7.4-.9.3-1 .1c-.6 0-1.1-.1-1.6-.3l-1.3-.7c-.4-.3-.6-.7-.8-1.1s-.3-.9-.3-1.4c0-1.2.5-2.2 1.4-2.8.9-.7 2.3-1 4.1-1h1.7v-.7c0-.6-.2-1-.5-1.3-.4-.3-.9-.5-1.6-.5-.6 0-1 .1-1.3.4s-.4.6-.4 1h-3c0-.5.1-1 .3-1.4s.5-.8 1-1.2a5.3 5.3 0 0 1 1.5-.8 6.6 6.6 0 0 1 5.6.8 3.3 3.3 0 0 1 1 1.3c.2.5.4 1.1.4 1.8v5l.1 1.5.3 1v.2h-3.1zm-2.9-2.1.8-.1.7-.3.5-.4.4-.4v-2h-1.5l-1.2.1-.8.4c-.2.2-.4.3-.5.6l-.1.7c0 .4.1.7.4 1s.8.4 1.3.4z" fill="#222326"/></g></g><defs><clipPath id="a"><path fill="#fff" d="M0 0h32v32H0z"/></clipPath></defs></svg>