<svg xmlns="http://www.w3.org/2000/svg" width="256" height="256" fill="none"><path d="M128 240a112 112 0 1 0 0-224 112 112 0 0 0 0 224z" fill="#2d374b"/><path d="m145 150-14 37v4l25 60 27-11-33-90c-1-3-4-3-5 0zm29-65c-1-3-4-3-5 0l-14 38v3l39 108 25-21-45-128z" fill="#12aaff"/><path fill-rule="evenodd" d="M256 128a128 128 0 1 1-256 0 128 128 0 0 1 256 0zm-16 0a112 112 0 1 1-224 0 112 112 0 0 1 224 0z" fill="#96bedc"/><path d="m76 245 7-1-8-38-36 7 2 9c10 9 22 17 35 23z" fill="#2d374b"/><path d="m95 252 69-191c1-1-1-3-2-3h-27a5 5 0 0 0-4 3L66 240a127 127 0 0 0 29 12zm-40-19 63-172-1-3a2 2 0 0 0-1 0H89a5 5 0 0 0-5 3L30 210c7 9 16 17 25 23z" fill="#fff"/></svg>