<svg xmlns="http://www.w3.org/2000/svg" width="256" height="256" fill="none"><circle cx="128" cy="128" r="128" fill="#000"/><path fill="#fff" d="m79.7 63-7.1 22.2h81.6L147 63H79.7ZM176 63h-23.2l25.3 77.7 18.8-13.7L176 63ZM132.6 180.6l18.8 13.6 54.4-39.5-7.2-22.1-66 48ZM73.4 171.8l54.5 39.6 18.8-13.7-66-48-7.3 22.1ZM70.8 90.7l-20.8 64 18.8 13.6L94 90.7H70.8ZM99.8 90.7l-7.2 22h41.5l-7.1-22H99.8ZM132.7 90.6l13 39.5 18.7-13.7-8.4-25.8h-23.3ZM132.6 146.4l18.8 13.6 22-16-7.2-22-33.6 24.4ZM105.9 161.2l22 16 18.8-13.7-33.7-24.3-7.1 22ZM90.8 118.3 82.5 144l18.8 13.7 12.8-39.5H90.8Z"/></svg>