<svg xmlns="http://www.w3.org/2000/svg" width="256" height="256" fill="none"><circle cx="128" cy="128" r="128" fill="#191919"/><path fill="url(#a)" d="m87.9 212 4.3-20.1a36 36 0 0 0-35-43.6h-20A93.2 93.2 0 0 0 88 212Z"/><path fill="url(#b)" d="M96.6 215.6a93 93 0 0 0 122.1-67.2h-60.6a58 58 0 0 0-56.8 45.8l-4.7 21.4Z"/><path fill="url(#c)" d="M220.4 139a93 93 0 0 0-84.7-103.7l-13 60.2a36 36 0 0 0 35 43.5h62.7Z"/><path fill="url(#d)" d="M126.2 35a93 93 0 0 0-90.6 104h21.2a58 58 0 0 0 56.8-45.8L126.2 35Z"/><defs><linearGradient id="a" x1="144.7" x2="108" y1="35" y2="221.2" gradientUnits="userSpaceOnUse"><stop stop-color="#F4D5B1"/><stop offset="1" stop-color="#FFD29F"/></linearGradient><linearGradient id="b" x1="144.7" x2="108" y1="35" y2="221.2" gradientUnits="userSpaceOnUse"><stop stop-color="#F4D5B1"/><stop offset="1" stop-color="#FFD29F"/></linearGradient><linearGradient id="c" x1="144.7" x2="108" y1="35" y2="221.2" gradientUnits="userSpaceOnUse"><stop stop-color="#F4D5B1"/><stop offset="1" stop-color="#FFD29F"/></linearGradient><linearGradient id="d" x1="144.7" x2="108" y1="35" y2="221.2" gradientUnits="userSpaceOnUse"><stop stop-color="#F4D5B1"/><stop offset="1" stop-color="#FFD29F"/></linearGradient></defs></svg>