<svg xmlns="http://www.w3.org/2000/svg" width="256" height="256" fill="none"><path d="M128 256a128 128 0 1 0 0-256 128 128 0 0 0 0 256z" fill="#1f2925"/><path d="M40.5 187.5c1.1 3.4 4 6.5 7.8 7.2l4.1.3h22c3.5 0 6-3 6.8-4.5l18.5-39.7 52.8 41.5c3.4 2.7 4.4 2.7 8.2 2.7h47.6c5.5-1 9.4-8.9 7-14.2L156.8 58.6c-2.5-5.2-10.6-8.6-14-8.6h-33.6c-4.4 0-10.3 6.2-12 10.3L78.1 101c-1 5.1 2.8 7.8 6.9 7.9 6.5 0 21.8.2 28.4 0 5.8-.3 7.8-3 8.6-4.5l6.8-15 35.7 77.7a1969 1969 0 0 0-45.6-34.2c-5.5-4-10.1-6.9-13-6.9-10-.1-29.7-.3-34.6 0-4.7 0-8.6 5.3-10 7.9L42.6 176c-3 6.6-2.7 9.3-2 11.4z" fill="#d7fe51"/></svg>