<svg xmlns="http://www.w3.org/2000/svg" viewBox="0 0 2500 2500"><circle cx="1250" cy="1250" r="1250" fill="#2e3148"/><circle cx="1250" cy="1250" r="725.3" fill="#1b1e36"/><g fill="#6f7390"><path d="M1253 159c-135 0-245 490-245 1094s110 1093 245 1093 244-490 244-1093-109-1094-244-1094zm16 2125c-15 21-30 5-30 5-63-72-94-206-94-206-108-349-82-1100-82-1100 51-597 144-738 175-769a19 19 0 0 1 25-2c46 33 84 169 84 169 114 421 104 818 104 818 10 344-57 730-57 730-52 293-125 355-125 355z"/><path d="M2201 709c-67-117-546 31-1070 332s-894 638-827 756 546-32 1070-332 894-639 827-756zM366 1780c-25-3-20-24-20-24 32-90 132-183 132-183 250-269 914-620 914-620 543-252 711-242 754-230a19 19 0 0 1 14 21c-5 56-104 157-104 157a3208 3208 0 0 1-658 497c-294 180-662 314-662 314-280 101-370 68-370 68z"/><path d="M2198 1800c68-116-301-456-823-759S374 588 307 705s301 457 823 759 1001 453 1068 336zM352 750c-10-24 11-30 11-30 93-17 225 23 225 23 357 81 994 480 994 480 490 343 565 494 576 537a19 19 0 0 1-10 23c-52 23-188-12-188-12-423-113-760-320-760-320-303-164-603-415-603-415-228-192-245-286-245-286z"/></g><g fill="#b7b9c8"><circle cx="1250" cy="1250" r="128.6"/><ellipse cx="1777.3" cy="756.2" rx="74.6" ry="77.2"/><ellipse cx="553" cy="1018.5" rx="74.6" ry="77.2"/><ellipse cx="1098.3" cy="1965" rx="74.6" ry="77.2"/></g></svg>