<svg xmlns="http://www.w3.org/2000/svg" width="256" height="256" fill="none"><path fill="#0052B4" d="M256 128a128 128 0 0 1-256 0C16 44 52.5 18 128 0a128 128 0 0 1 128 128Z"/><path fill="#F0F0F0" d="M127.5 128h.5v-.5l-.5.5Z"/><path fill="#F0F0F0" d="M128 67V0A128 128 0 0 0 0 128h67V90.5l37.5 37.5h23l.5-.5v-23L90.5 67H128Z"/><path fill="#D80027" d="M65 16.5C44.5 28 28 44.5 16.5 65v63H50V50h78V16.5H65Zm63 96L82.5 67H67l61 61v-15.5Z"/><path fill="#F0F0F0" d="m77 150.5 7 14.5 16-3.5-7 14.5 12.5 10-15.5 3.5V206l-13-10.5L64.5 206v-16.5l-16-3.5 13-10-7-14.5L70 165l7-14.5ZM191.5 178l3.5 7.5 8-2-3.5 7.5 6.5 5-8 2v8l-6.5-5-6 5v-8l-8-2 6-5-3.5-7.5 8 2 3.5-7.5ZM159 100l3.5 7.5 8-2-3.5 7.5 6 5-7.5 2v8l-6.5-5-6.5 5v-8l-8-2 6.5-5-3.5-7.5 8 2 3.5-7.5Zm32.5-44.5L195 63l8-2-3.5 7.5 6.5 5-8 2v8l-6.5-5-6 5v-8l-8-2 6-5L180 61l8 2 3.5-7.5ZM220 89l3.5 7.5 8-2-3.5 7.5 6.5 5-8 1.5v8.5l-6.5-5-6 5v-8.5l-8-1.5 6.5-5-4-7.5 8 2L220 89Zm-20 39 2.5 8.5h9L204 142l3 8.5-7-5.5-7.5 5.5 3-8.5-7.5-5.5h9l3-8.5Z"/></svg>