<svg xmlns="http://www.w3.org/2000/svg" width="256" height="256" fill="none"><circle cx="128" cy="128" r="123" fill="url(#a)" stroke="url(#b)" stroke-width="10"/><path fill="url(#c)" d="M160 163c3-21.1 15.3-35.7 32-35.7V92c-22.5 0-28 4-37.2 16.4-5.5 7.4-14.5 19-26.8 19V163h32Z"/><path fill="url(#d)" d="M96.5 92c-3 21.1-15 35.7-31.5 35.7V163c22.1 0 27.5-4 36.7-16.4 5.4-7.4 14.2-19 26.3-19V92H96.5Z"/><defs><linearGradient id="a" x1="54.5" x2="192.5" y1="36.5" y2="232" gradientUnits="userSpaceOnUse"><stop offset=".5"/><stop offset="1" stop-color="#4A0E95"/></linearGradient><linearGradient id="b" x1="56" x2="189" y1="30" y2="239" gradientUnits="userSpaceOnUse"><stop stop-color="#23278D"/><stop offset=".5" stop-color="#485AE3"/><stop offset="1" stop-color="#480D91"/></linearGradient><linearGradient id="c" x1="160" x2="160" y1="92" y2="163" gradientUnits="userSpaceOnUse"><stop stop-color="#fff"/><stop offset="1" stop-color="#AB88D7"/></linearGradient><linearGradient id="d" x1="96.5" x2="96.5" y1="92" y2="163" gradientUnits="userSpaceOnUse"><stop stop-color="#fff"/><stop offset="1" stop-color="#AB88D7"/></linearGradient></defs></svg>