<svg xmlns="http://www.w3.org/2000/svg" width="256" height="256" fill="none"><circle cx="128" cy="128" r="128" fill="#FF6A00"/><path fill="#fff" d="M153.4 144.1c11.3-15.1 32.6-36.4 33.3-51.4 1.3-19.4-18.2-25.9-38.4-25.7-14.1.2-28.5 4.3-38.4 7.7a129.3 129.3 0 0 0-69.2 53.1c-14.3 21.3-9.5 41.5 20.7 42.2 23.1-1 38.2-7.4 54-15.5.1 0-43.5 12.5-59.4 3.3a7.3 7.3 0 0 1-4-6c-.1-7.5 12.5-15.4 19.5-17.9v-13.2A46 46 0 0 0 118 113c.4 1.1.5 2.5.4 3.8h3.1c.3-3.5-1.5-6.1-1.5-6.1-2.8-4.6-7.8-4.5-7.8-4.5s2.6 1.2 4.5 4a41.8 41.8 0 0 1-39.8 7.9L87 107.7l-2.8-7.6a389.7 389.7 0 0 1 66.8-18l-6.6-4.7 3.3-2c17.2 4.8 28.5 8.2 27.9 17.5-.3 1.5-.8 3.3-1.7 5.2-4.9 10-19.8 26.6-25.9 33.5-3.9 4.6-7.8 9-10.6 13.4a25.5 25.5 0 0 0-4.8 12.1c.3 30.2 88.2-14 105.3-25.7-25 11-52.2 21.3-82 23.3-8.4.5-7.4-4-2.6-10.6Z"/></svg>