<svg width="256" height="256" fill="none" xmlns="http://www.w3.org/2000/svg"><g clip-path="url(#a)"><path d="M128 256a128 128 0 1 0 0-256 128 128 0 0 0 0 256Z" fill="#F9E755"/><path d="M68 202a53 53 0 0 1-30-54l4-20 1-5c-5-18-5-36 0-54l3-9c5-7 9-8 16-6 7 1 13 5 19 9l8 7 3 1a91 91 0 0 1 72-1h3c7-6 14-11 22-15l10-2c3 0 6 1 8 3 4 5 6 11 7 17 4 17 4 33 0 50v4c2 8 4 16 4 25 0 13-3 25-11 36-5 6-11 10-18 14-33 16-90 16-121 0Z" fill="#31201B"/><path d="m183 70-9 10c-1 2-1 3 1 5 20 15 32 35 36 60v18c-4 3-8 6-13 6-10 1-19-3-26-9l-21-19c-4-4-9-8-15-9-9-3-19-1-27 4l-13 11c-5 5-10 11-17 15-4 3-8 6-13 7-8 0-15 0-21-5l-1-1-1-11a87 87 0 0 1 35-66c4-3 4-4 1-8l-8-10 2 1c4 1 7 4 10 6l4 4 5 1a90 90 0 0 1 41-8c9 1 19 3 28 7l2 1c1 1 3 0 4-1l13-10c1-1 2 0 3 1Z" fill="#FDA524"/><path d="m45 163 4 3c7 4 15 3 22 0 8-2 13-8 19-14l18-16c11-8 27-8 38 0a180 180 0 0 1 27 24c6 5 13 9 21 9 5 0 9-1 13-4l4-2-1 5c-7 11-16 18-27 23-11 6-23 8-35 10a167 167 0 0 1-69-6c-9-4-18-8-25-15-4-4-8-8-10-14v-2l1-1Z" fill="#FDFEFD"/><path d="M45 163v3l5 9c7 8 16 14 26 18 9 3 18 6 28 7l15 1h12c14 0 27-1 40-6 9-2 17-6 24-11 5-4 9-8 12-13l3-3c-3 11-10 20-19 26-10 7-21 11-32 13-23 4-46 4-69-1-11-3-21-7-30-14-9-8-14-17-16-28v-1h1Z" fill="#DEDEDE"/><path d="M204 107a106 106 0 0 0-23-25v-2c5-6 11-11 18-15l4 16 2 23-1 3ZM56 65c7 4 12 9 17 15v2l-19 20-1 1-1 1h-2v-1l1-23 5-15Z" fill="#C74F02"/><path d="M183 70h-3l-14 10-2 1-10-4c-11-4-22-5-34-4-9 0-17 2-26 6-3 2-6 2-9-1-4-4-7-7-12-9l-2-1-10-7 1-1 11 6 14 11h4a82 82 0 0 1 72 0c2 1 3 1 5-1l19-13 7-3v1c-4 2-8 5-11 9Z" fill="#E8C587"/><path d="M56 65v2c-3 4-3 10-4 15-2 7-1 15-1 22l2-2v1l-7 13-1-6c-1-13-1-27 3-40l2-6c1-2 2-2 3-1l3 2ZM204 107c1-13 0-26-5-39v-4c4-2 4-2 6 2 3 7 4 14 5 21v18l-2 11-4-9Z" fill="#DF6D03"/><path d="m62 60-1 1-1-1h2Z" fill="#C6A774"/><path d="M61 60h-1c-1 0-1 0 0 0h1Z" fill="#937955"/><path d="M53 103v-1h1l-1 1Z" fill="#CB6105"/><path d="M194 61v-1h1l-1 1Z" fill="#9A7F59"/><path d="m174 143-8-1c-7-2-9-8-6-14s10-8 16-6 9 8 8 14c-1 4-3 6-7 7h-3ZM81 143h-4c-5-2-7-6-6-12 1-7 7-11 14-10s12 7 10 14c0 3-2 4-4 6l-10 2Z" fill="#31201B"/><path d="M94 99c6 0 10 7 7 12 0 2-1 3-3 3-4 2-7 2-11 0s-5-7-2-10c2-3 5-5 9-5ZM161 115h-2c-7-1-8-7-5-12 2-5 8-5 13-2l1 2c2 1 4 4 3 7-1 2-3 4-6 5h-4Z" fill="#FDFEFD"/><path d="M112 147c0-4 2-7 6-8 6-3 12-3 18 0 3 1 5 2 6 5l-1 6c-1 4-4 7-8 9l-2 1 3 2c5 3 8 2 12-2l3-5c1-2 2-2 3-1 2 1 2 2 2 3-2 5-5 8-9 11-1 0-2 1-2 3-1 6-3 11-8 14-5 4-11 4-16 0s-7-9-8-15l-2-2c-4-3-7-6-8-10-1-2 0-3 1-4 2-1 3 0 4 1l3 5c3 4 7 5 11 2l3-3c-2-1-4-1-5-3l-5-5-1-4Z" fill="#31201B"/><path d="m134 162-4-3c7-2 12-7 12-15 2 5 0 12-4 15l-4 3Z" fill="#DEDEDD"/><path d="M112 147c2 6 6 10 12 12l-4 3-3-3c-3-2-5-5-5-8v-4Z" fill="#DDD"/><path d="M134 178v1c-5 5-10 5-14-1l1-1h13v1Z" fill="#F28B7E"/><path d="M134 178c-4-1-8-2-12-1l-2 1c-2-2-2-2 1-3h13c1 1 2 1 0 3Z" fill="#DDDBDB"/><path d="M89 129a4 4 0 1 1-8 0 4 4 0 0 1 8 0Z" fill="#fff"/><circle cx="170" cy="129" r="4" fill="#fff"/><ellipse cx="127" cy="144" rx="9" ry="4" fill="#614037"/></g><defs><clipPath id="a"><path fill="#fff" d="M0 0h256v256H0z"/></clipPath></defs></svg>