<svg xmlns="http://www.w3.org/2000/svg" width="256" height="256" fill="none"><circle cx="128" cy="128" r="128" fill="#000"/><path fill="#D5FCE8" d="M125.3 172.4V184c0 1.1-1 1.8-1.4 2-13 4.8-40 14.8-43.3 16.2-3.4 1.3-5.9.6-7-.6l-22.4-22.3c-1.1-1.2-1.4-2.3-.8-4l17.3-47.5-17.3-47c-.3-1.1-1.2-2.2 1.4-4.8 1.6-1.6 20.1-20.8 21.2-21.5 1.7-1.4 4.8-1.7 8.1-.3 4 1.7 37.3 13.8 42 15.7 1.6.6 2.2 1.1 2.2 2.8l-.3 10.9a190.3 190.3 0 0 1-11.4 11.7c-1.1.9-2.5.7-3.7.3-3.6-1.1-21-8.3-24-9-1.4-.2-2.5.3-2 2.3 1.4 4 8.4 21.8 9 23.2.4 1 .5 3.4-.3 4.2l-10 9.8c-.6 1.1-2 1.5-.6 2.8 4.9 4.7 9.2 9.3 10 10 1.5 1.3 1.7 2.6 1.2 4-2.8 7.2-8.6 22-9.3 24.3-.6 2.3.9 2.5 1.7 2.3 5.3-1.7 22.4-8.7 24.3-9.5 1.4-.6 3.1 0 4.2 1l11.2 11.5ZM129.8 172.2v11.5c0 1.1 1 1.8 1.4 2l43.4 16.2c3.3 1.3 5.8.6 7-.6l22.3-22.3c1.1-1.2 1.4-2.3.9-4l-17.4-47.5 17.4-47c.2-1.1 1-2.2-1.4-4.8-1.7-1.6-20.2-20.8-21.3-21.5-1.7-1.4-4.7-1.7-8.1-.3-4 1.7-37.3 13.8-42 15.7-1.6.6-2.2 1.1-2.2 2.8l.3 10.9A190 190 0 0 0 141.6 95c1 .9 2.5.7 3.6.3 3.6-1.1 21-8.3 24-9 1.4-.2 2.6.3 2 2.3-1.4 4-8.4 21.8-9 23.2-.3 1-.5 3.4.3 4.2l10.1 9.8c.6 1.1 1.9 1.5.6 2.8-5 4.7-9.2 9.3-10.1 10-1.5 1.3-1.7 2.6-1.1 4 2.8 7.2 8.5 22 9.2 24.3.7 2.3-.8 2.5-1.7 2.3-5.3-1.7-22.4-8.7-24.3-9.5-1.4-.6-3 0-4.2 1l-11.2 11.5Z"/></svg>