<svg xmlns="http://www.w3.org/2000/svg" width="256" height="256" fill="none"><circle cx="128" cy="128" r="128" fill="#814625"/><path fill="#fff" d="M124 119.3a9 9 0 0 1-.4-2l-.3-1.2c2-3 11.7-18.2.7-28-12.3-10.9-26.6 3.4-26.6 3.4-6.4-1.8-13.4-2-20.2 0 0-.1-14.4-14.3-26.6-3.4-12.2 10.8 1 28.4 1 28.5l-.3 1.2c-1.3 7.5-10.3 9.9-10.3 23 0 13 9.4 23.8 28.7 23.8h7.8s3.3 4.4 10 4.4c6.2 0 10.3-4.4 10.3-4.4h7.5c19.3 0 28.7-10.5 28.7-23.9 0-12.1-7.8-15-10-21.4ZM215.2 104.4s1.4-12.6-9.4-15.3V84h-8.3v5c-11.3 2.4-9.9 15.4-9.9 15.4v2.2s-1.4 13 9.9 15.4V133c-12 2-10.4 15.5-10.4 15.5v2.2s-1.5 13 9.8 15.5v4.9h8.4v-5c10.7-2.8 9.3-15.4 9.3-15.4.5 0 .8-.4.8-.8v-.5c0-.5-.3-.9-.8-.9 0 0 1.4-12.5-9.2-15.3v-11h-.1c11.3-2.5 9.8-15.5 9.8-15.5.5 0 .9-.4.9-.9v-.5c0-.4-.4-.8-.8-.8Zm-6.8 44h-.8c-.5 0-.8.4-.8.9v.5c0 .4.3.8.8.8h.8c0 7.8-2.7 9.1-3.6 9.4-.2 0-.3-.1-.3-.2v-2.5c0-1.4-1-2.2-1.9-2.6a4.5 4.5 0 0 0-3.6 0c-1 .4-1.8 1.2-1.8 2.6v2.5l-.3.2c-1-.2-3.6-1.6-3.6-9.4v-2.2c0-7.8 2.7-9.1 3.6-9.3.1 0 .3 0 .3.2v2.5c0 1.4.9 2.1 1.8 2.5 1.2.5 2.5.5 3.6 0 1-.4 1.9-1.1 1.9-2.5v-2.5c0-.2.1-.3.3-.2.9.2 3.6 1.5 3.6 9.3Zm-.2-41.8h.7c0 7.8-2.7 9.1-3.6 9.3-.1 0-.3 0-.3-.2v-2.5c0-1.4-.9-2.1-1.8-2.5a4.5 4.5 0 0 0-3.6 0c-1 .4-1.9 1.1-1.9 2.5v2.5c0 .2-.1.3-.3.2-.9-.2-3.6-1.5-3.6-9.3v-2.2c0-7.8 2.7-9.2 3.7-9.4l.2.2v2.5c0 1.4 1 2.2 1.9 2.6 1.1.5 2.5.5 3.6 0 1-.4 1.8-1.2 1.8-2.6v-2.5l.3-.2c1 .3 3.6 1.6 3.6 9.4h-.7c-.5 0-.9.4-.9.8v.5c0 .5.4.9.9.9ZM173.1 126.7s1.5-13.1-10-15.5V99.4c11.2-2.5 9.8-15.4 9.8-15.4h-6.3c0 7.8-2.8 9.2-3.7 9.4l-.3-.2v-2.5c0-1.4-.9-2.2-1.8-2.6a4.5 4.5 0 0 0-3.7 0c-.9.4-1.8 1.2-1.8 2.6v2.5l-.3.2c-1-.3-3.7-1.6-3.7-9.4h-6.2s-1.6 13.4 10.4 15.6v11.6c-11.6 2.3-10.2 15.5-10.2 15.5v2.2s-1.4 13.1 10.2 15.4v11.1c-12 2.2-10.4 15.6-10.4 15.6h6.2c0-7.8 2.8-9.2 3.7-9.4l.3.2v2.5c0 1.4.9 2.2 1.8 2.6 1.2.5 2.5.5 3.7 0 1-.4 1.8-1.2 1.8-2.6v-2.5l.3-.2c1 .3 3.7 1.6 3.7 9.4h6.3s1.4-12.9-9.8-15.4v-11.3c11.5-2.3 10-15.4 10-15.4.5 0 .9-.4.9-.9v-.5c0-.4-.4-.8-.9-.8Zm-7 2.2h.8c0 7.8-2.8 9.1-3.7 9.3-.1 0-.3 0-.3-.2v-2.5c0-1.4-.9-2.1-1.8-2.5a4.5 4.5 0 0 0-3.7 0c-1 .4-1.8 1.1-1.8 2.5v2.5c0 .2-.2.3-.3.2-1-.2-3.7-1.5-3.7-9.3v-2.2c0-7.9 2.8-9.2 3.7-9.4.1 0 .3 0 .3.2v2.5c0 1.4.9 2.2 1.8 2.6 1.2.5 2.5.5 3.7 0 .9-.4 1.8-1.2 1.8-2.6v-2.5l.3-.2c1 .2 3.7 1.6 3.7 9.4h-.8c-.5 0-.9.4-.9.8v.5c0 .5.4.9.9.9Z"/></svg>