<svg xmlns="http://www.w3.org/2000/svg" width="256" height="256" fill="none"><circle cx="128" cy="128" r="128" fill="#FC9E27"/><path fill="#000" d="M62 65.7v76.8C62 185 99.9 208 128 208a66 66 0 0 0 66.2-65.5c0-40-30.1-56.5-33.7-58.8 3.6-5.4 7.9-12.7 15.2-14 5.9-1 8 1.8 11.3 7.9 5.3 9.6 17.8 1.1 15-5.6-9.3-22.6-25.3-20.7-35.4-17.8-11.4 3.3-21 21.1-22 23.1-4-1.2-7.8-2-10.3-2 2-4.3 5.5-14.2-.5-24.1-7.9-12.9-16.2-13.2-25.3-13.2-3 0-9.6 1.8-9.9 8.4-.2 6.6 4.6 9.9 10.1 9.1 5.6-.8 11 1.3 11.2 7.1.2 5.8-7.5 14.6-9.4 15A61.2 61.2 0 0 0 78.7 97V65.7c0-9.4-16.7-9.4-16.7 0Z"/><circle cx="128" cy="142" r="36" stroke="#FC9E27" stroke-width="32"/></svg>