<svg xmlns="http://www.w3.org/2000/svg" width="256" height="256" fill="none"><path fill="#2932E1" d="M93.4 118.7c10.9-18.1 43.4-32.7 66.4 3a257.7 257.7 0 0 0 45.8 46.6s21.7 17 7.8 49.6c-13.3 31.3-60.3 17-64.2 15.8l-.3-.1s-18.7-6-40.4-1.2-40.4 3-40.4 3h-.5c-3.5 0-25.4-2-32-31.4-7.3-32 25.2-49.7 27.7-52.6 2.4-3 19.2-14.5 30.1-32.7Zm10.5 18.4v21.5H86.4s-17.5 1.5-23.7 21.4c-2.1 13.2 2 21 2.6 22.7.7 1.7 6.4 11.4 20.6 14.2h33v-79.6l-15-.2Zm38.4 23.2-15.4.3v41.9s.7 10.4 15.4 14.2h38v-56.1h-16.4v42.1h-15.6s-5-.7-6-4.7v-37.7Zm-38.6 11.1v32.4H90.4s-9.2-.4-12-11c-1.5-4.8.2-10.2 1-12.4.6-2.1 3.7-7 10-9h14.3Zm101.9-95.7c22.3 0 28.3 21.9 28.3 29 0 7.4 3 38.2-24.7 38.8-27.8.6-29-18.8-29-32.6 0-14.6 3-35.2 25.4-35.2ZM44 58.8c16.3-1.4 28.3 16.4 29.5 26.6.8 6.6 4.2 37-21.1 42.4-25.3 5.4-34.7-23.8-32-37.6 0 0 3-29.6 23.6-31.4Zm94.6-15.7c1.5-13.9 18.1-35.1 31.4-32 13.2 3 25.3 20.5 22.9 35.6-2.4 15.1-14.4 35.1-33.2 32.7C141 77 136.8 60 138.7 43ZM99.5 5c14 0 25.2 16 25.2 36 0 19.9-11.3 36-25.2 36C85.5 77 74 60.9 74 41c0-20 11.4-36 25.4-36Z"/></svg>