<svg xmlns="http://www.w3.org/2000/svg" width="256" height="256" fill="none"><circle cx="128" cy="128" r="128" fill="#324224"/><path fill="#D7F9C0" d="M56.1 199.9a18.5 18.5 0 0 1-3-21.4c1.2-2.3 2.8-4.3 4.8-6 5.9-4.2 10.2-4.4 15.2-5.6 8.6-2 15.9-8.5 14.6-18-2.2-15.6-21.5-9.3-21.5-21.4 0-12 19.3-5.7 21.5-21.3 1.3-9.4-6-15.9-14.6-18-5-1.2-9.3-1.4-15.2-5.7a18.6 18.6 0 0 1-1.8-27.3A18.4 18.4 0 0 1 83.3 57c4.2 5.9 4.4 10.3 5.6 15.3 2 8.6 8.5 16 18 14.6 15.4-2.2 9.1-21.6 21.1-21.6 12 0 5.7 19.4 21.2 21.6 9.3 1.4 15.8-6 17.9-14.6 1.2-5 1.4-9.4 5.6-15.3a18.5 18.5 0 0 1 20.7-5.9c2.4.9 4.6 2.3 6.5 4a18.5 18.5 0 0 1 3 21.5 18.5 18.5 0 0 1-4.8 6c-5.9 4.2-10.2 4.4-15.2 5.6-8.6 2-16 8.5-14.6 18 2.2 15.6 21.5 9.3 21.5 21.3 0 12.1-19.3 5.8-21.5 21.4-1.3 9.4 6 15.9 14.6 18 5 1.1 9.3 1.3 15.2 5.6a18.6 18.6 0 0 1 1.8 27.3 18.4 18.4 0 0 1-27.2-1.8c-4.2-5.9-4.4-10.3-5.6-15.3-2-8.6-8.5-16-18-14.6-15.4 2.2-9.1 21.6-21 21.6-12 0-5.8-19.4-21.3-21.6-9.3-1.4-15.7 6-17.9 14.6-1.2 5-1.4 9.4-5.6 15.3a18.4 18.4 0 0 1-27.2 1.8"/></svg>