<svg xmlns="http://www.w3.org/2000/svg" width="256" height="256" fill="none"><circle cx="128" cy="128" r="128" fill="#090015"/><path fill="url(#a)" fill-rule="evenodd" d="M48.3 170.22s-6.43-22.18 3.78-32.39a20.24 20.24 0 0 1 28.6 28.6c-10.2 10.22-32.38 3.78-32.38 3.78Z" clip-rule="evenodd"/><path fill="url(#b)" fill-rule="evenodd" d="M79.97 105.37c-7.21-12.5 4.74-32.26 4.74-32.26s23.08-.46 30.3 12.03l32.9 56.97a20.23 20.23 0 0 1-35.04 20.23l-32.9-56.97Z" clip-rule="evenodd"/><path fill="url(#c)" fill-rule="evenodd" d="M143.96 105.37c-7.22-12.5 4.73-32.26 4.73-32.26s23.09-.46 30.3 12.03l32.9 56.97a20.24 20.24 0 0 1-35.04 20.23l-32.9-56.97Z" clip-rule="evenodd"/><defs><linearGradient id="a" x1="80.69" x2="48.31" y1="137.83" y2="170.21" gradientUnits="userSpaceOnUse"><stop stop-color="#6F17BA"/><stop offset="1" stop-color="#B038FA"/></linearGradient><linearGradient id="b" x1="140.5" x2="84.71" y1="169.75" y2="73.12" gradientUnits="userSpaceOnUse"><stop stop-color="#C41BAF"/><stop offset="1" stop-color="#F52586"/></linearGradient><linearGradient id="c" x1="204.48" x2="148.69" y1="169.75" y2="73.12" gradientUnits="userSpaceOnUse"><stop stop-color="#3054B6"/><stop offset="1" stop-color="#00A4FC"/></linearGradient></defs></svg>