<svg xmlns="http://www.w3.org/2000/svg" width="256" height="256" fill="none"><circle cx="128" cy="128" r="128" fill="#02081C"/><path fill="url(#a)" d="M71 128v34l29 17v20l-46-27v-53l17 9Zm0-33v19l-17-10V85l17-10 17 10-17 10Zm41-10 16-10 17 10-17 10-16-10Zm-29 70v-20l17 10v20l-17-10Zm29 31 16 10 17-10v20l-17 10-16-10v-20Zm57-101 17-10 17 10v19l-17 10V95l-17-10Zm17 77v-34l17-9v53l-46 27v-20l29-17Zm-12-7-17 10v-20l17-10v20Zm0-53v20l-29 16v34l-17 10-16-10v-34l-29-16v-20l17-10 28 17 29-17 17 10ZM83 68l45-27 46 27-17 10-29-17-28 17-17-10Z"/><defs><linearGradient id="a" x1="54" x2="202.8" y1="122.4" y2="127.7" gradientUnits="userSpaceOnUse"><stop stop-color="#9D62FF"/><stop offset=".5" stop-color="#FF7D6F"/><stop offset="1" stop-color="#FFA756"/></linearGradient></defs></svg>