<svg xmlns="http://www.w3.org/2000/svg" width="256" height="256" fill="none"><path fill="#02081C" d="M128 256a128 128 0 1 0 0-256 128 128 0 0 0 0 256Z"/><path fill="url(#a)" d="M184.5 112.1c2.5-17-10.5-26.1-28.2-32.2l5.8-23.1-14.1-3.5-5.6 22.4-11.2-2.6 5.6-22.6-14-3.5-5.8 23-9-2v-.1L88.7 63l-3.8 15s10.5 2.4 10.2 2.6c5.7 1.4 6.8 5.1 6.6 8.1L95 115l-9.2 37c-.7 1.7-2.4 4.3-6.4 3.3.1.2-10.2-2.6-10.2-2.6l-7 16.1 18.3 4.6 10 2.5-5.8 23.4 14 3.5 5.8-23.1 11.2 3-5.8 22.9 14 3.5 6-23.3c23.8 4.5 41.8 2.7 49.4-19 6.1-17.4-.2-27.5-12.9-34 9.2-2.2 16.1-8.2 18-20.7h.1Zm-32.1 45c-4.4 17.5-33.8 8-43.3 5.7l7.7-30.9c9.5 2.4 40 7 35.6 25.3v-.1Zm4.3-45.2c-4 15.9-28.4 7.8-36.3 5.9l7-28.1c7.9 2 33.4 5.7 29.3 22.2Z"/><defs><linearGradient id="a" x1="82" x2="187" y1="105.9" y2="122.4" gradientUnits="userSpaceOnUse"><stop stop-color="#9D62FF"/><stop offset=".5" stop-color="#FF7D6F"/><stop offset="1" stop-color="#FFA756"/></linearGradient></defs></svg>