<svg xmlns="http://www.w3.org/2000/svg" width="256" height="256" fill="none"><circle cx="128" cy="128" r="126" fill="#fff"/><path d="M253 102c-1-8-4-16-7-24a130 130 0 0 0-12-22 127 127 0 0 0-16-18 127 127 0 0 0-18-16c-7-5-15-9-22-12a127 127 0 0 0-100 0 127 127 0 0 0-40 28 127 127 0 0 0-16 18 134 134 0 0 0-12 22 127 127 0 0 0 0 100c3 7 7 15 12 22a127 127 0 0 0 16 18 127 127 0 0 0 18 16 127 127 0 0 0 72 22 127 127 0 0 0 50-10 130 130 0 0 0 68-68c10-24 13-50 7-76zM128 240a112 112 0 1 1 0-224 112 112 0 0 1 0 224zm2-10h11l2-1h3l3-1h2l3-1a117 117 0 0 1-30-3 81 81 0 0 1-62-47 81 81 0 0 1-7-34 76 76 0 0 1 18-49c15-17 37-27 58-27h3V49h-3a99 99 0 0 0-20 3 95 95 0 0 0-19 6c-6 3-12 6-17 11a92 92 0 0 0-15 14L49 99a92 92 0 0 0-7 18 95 95 0 0 0-4 18v9a99 99 0 0 0 2 20 95 95 0 0 0 25 44c18 15 40 22 63 22h2zm29-17a134 134 0 0 1-20-2c-27-4-50-21-58-46-11-30 5-63 35-73a56 56 0 0 1 18-3c8 0 16 2 23 4l7-15a140 140 0 0 0-7-3 77 77 0 0 0-23-3 74 74 0 0 0-23 4 73 73 0 0 0-26 15 75 75 0 0 0-10 10 71 71 0 0 0-7 12 74 74 0 0 0 12 84 85 85 0 0 0 56 26l25 1 10-4 8-4 7-4a7 7 0 0 0 1-1c-14 3-18 3-28 2zm32-19-16 1c-12 0-26-1-39-6-18-6-36-22-36-42a36 36 0 0 1 2-14 36 36 0 0 1 20-19 36 36 0 0 1 45 15l16-7-10-13a53 53 0 0 0-17-11 53 53 0 0 0-20-4 53 53 0 0 0-38 15 53 53 0 0 0-16 38 53 53 0 0 0 5 21c3 6 6 12 11 17 9 9 21 17 33 21a132 132 0 0 0 61 2l16-16-17 2z" fill="#000"/></svg>