<svg xmlns="http://www.w3.org/2000/svg" width="256" height="256" fill="none"><circle cx="128" cy="128" r="128" fill="url(#a)"/><path fill="#46FFC8" d="M158.4 133v54.9h-9.1V133h9.1Zm-53.3 0 14.6 44 14.3-44h10.7l-18 54.9h-14.2l-18-54.9H105Zm68.6 0 14.6 44 14.3-44h10.7l-18 54.9H181L163 133h10.7ZM53.3 187.9V133h23.3c8.3 0 15.9 5.6 15.9 14.8 0 5.6-3.4 9.8-8.5 11.2v.6c6.5.3 10.4 7 10.4 13.2 0 10-8.4 15-17 15H53.3Zm9.1-9.2h13.7c5 0 9.4-.4 9.4-6.3 0-5.8-4.2-7.4-9.4-7.4H62.4v13.7Zm0-22.8h13.7c4.8 0 7.5-2.3 7.5-7.5 0-5.3-2.9-6.3-7.5-6.3H62.4V156Zm92.9-83.1c1.1-8.2-4.7-12.5-12.6-15.5l2.5-11-6.3-1.7-2.5 10.8-5-1.3 2.5-10.8-6.3-1.7-2.5 11-4-1-8.7-2.3-1.7 7.2s4.6 1.1 4.5 1.2c2.6.6 3 2.4 3 3.8l-3 12.7.7.2-.7-.1-4 17.6c-.3.8-1.2 2-3 1.6l-4.5-1.2-3.1 7.6 8.2 2.2 4.4 1.3-2.6 11.2 6.3 1.7 2.6-11 5 1.3-2.6 11 6.3 1.7 2.6-11.2c10.8 2.2 18.8 1.4 22.3-9 2.7-8.4-.2-13.2-5.9-16.4 4.2-1 7.3-4 8-10Zm-14.4 21.6c-2 8.4-15 3.8-19.3 2.7l3.4-14.8c4.3 1.1 18 3.4 15.9 12Zm2-21.7c-1.8 7.6-12.8 3.8-16.3 2.8l3-13.4c3.7.9 15 2.7 13.3 10.6Z"/><defs><linearGradient id="a" x1="47.6" x2="311.5" y1="44.4" y2="347.5" gradientUnits="userSpaceOnUse"><stop stop-color="#1A1E21"/><stop offset="1" stop-color="#06060A"/></linearGradient></defs></svg>