<svg xmlns="http://www.w3.org/2000/svg" width="256" height="256" fill="none"><g clip-path="url(#a)"><path fill="#fff" d="M128 256a128 128 0 1 0 0-256 128 128 0 0 0 0 256Z"/><path fill="#014EA9" d="M128 248a120 120 0 1 0 0-240 120 120 0 0 0 0 240Z"/><path fill="#fff" d="M128 240a112 112 0 1 0 0-224 112 112 0 0 0 0 224Z"/><path fill="#E71C21" d="M128 232a104 104 0 1 0 0-208 104 104 0 0 0 0 208Z"/><path fill="#012351" d="M128 224a96 96 0 1 0 0-192 96 96 0 0 0 0 192Z"/><path fill="#fff" d="M56.9 155c-3.9 0-7-1.2-9.4-3.6a13.9 13.9 0 0 1-3.5-10v-24.5c0-5.1 1-9 3.1-11.9 2-2.7 5.3-4 10-4 2.5 0 4.8.5 6.8 1.3 2 1 3.5 2.4 4.6 4.2 1.1 2 1.7 4.1 1.7 7v9H59.5V115c0-1.7 0-2.7-.6-3.3-.4-.6-1-.9-1.8-.9-1 0-1.7.4-2 1.2-.3.7-.5 1.6-.5 2.8v26.5c0 1.4.2 2.5.7 3 .3.7 1 1 1.8 1 1 0 1.5-.4 2-1.1.3-.8.5-1.8.5-3v-9.5h10.7v10c0 4.8-1.2 8.2-3.5 10.3a14.5 14.5 0 0 1-10 3h.1Zm16.8-.5 5.1-53H97l5 53H92l-.9-8.6h-6.4l-.6 8.6H73.7Zm11.7-17h4.9l-2.4-27h-.4l-2 27ZM119 155c-3.9 0-7-1.2-9.3-3.6a13.9 13.9 0 0 1-3.5-10v-24.5c0-5.1 1-9 3-11.9 2-2.7 5.4-4 10-4 2.6 0 5 .5 6.9 1.3 1.9 1 3.5 2.4 4.5 4.2a13 13 0 0 1 1.8 7v9h-10.7V115c0-1.7-.1-2.7-.6-3.3-.4-.6-1-.9-1.8-.9-1 0-1.7.4-2 1.2-.4.7-.5 1.6-.5 2.8v26.5c0 1.4.1 2.5.6 3 .4.7 1 1 1.9 1 1 0 1.5-.4 2-1.1.3-.8.5-1.8.5-3v-9.5h10.7v10c0 4.8-1.2 8.2-3.5 10.3a14.5 14.5 0 0 1-10 3Zm48-.5V146h-15.7v-8.3l10-36.3H178v35.7h2.9v8.9h-3v8.4H167Zm-6.2-17.3h6.3v-26.6l-6.3 26.7Zm37.2 17.8c-4.5 0-8-1.3-10.4-3.9-2.6-2.4-3.7-6-3.7-10.8v-23.9c0-4.9 1.1-8.7 3.5-11.4 2.3-2.7 5.8-4 10.6-4s8.3 1.3 10.7 4c2.2 2.6 3.4 6.5 3.4 11.4v24c0 4.7-1.2 8.3-3.7 10.8-2.4 2.5-5.8 3.8-10.5 3.8h.1Zm0-9.8c.8 0 1.5-.4 2-1.1.4-.8.7-1.6.7-2.5v-26.1c0-1.3-.2-2.4-.5-3.3-.2-1-1-1.5-2.3-1.5-1.1 0-1.9.5-2.2 1.5-.2 1-.4 2-.4 3.3v26c0 1 .3 1.7.8 2.5s1 1.1 2 1.1v.1Z"/></g><defs><clipPath id="a"><path fill="#fff" d="M0 0h256v256H0z"/></clipPath></defs></svg>