<svg xmlns="http://www.w3.org/2000/svg" width="256" height="256" fill="none"><circle cx="128" cy="128" r="128" fill="#3AD3DF"/><path fill="#633001" fill-rule="evenodd" d="M128 212.9a96 96 0 0 1-59.4-17 54 54 0 0 1-5.6-81.6 74.9 74.9 0 0 1 19.2-13l-4-12.8a95 95 0 0 1-3.5-19.6c0-6.7 1.6-13.5 5.4-18.6a21.4 21.4 0 0 1 17.6-8 20 20 0 0 1 14.5 5.6c3.7 3.6 6.3 8.2 7.7 13.2 3 8.6 4 19.3 4.6 30.3h7c.2-10.7 1.5-21.7 4.5-30.3 1.6-4.9 4-9.7 7.7-13.2a20.3 20.3 0 0 1 14.5-5.9 22 22 0 0 1 17.6 8.3 32 32 0 0 1 5.4 18.6 95 95 0 0 1-3.5 19.6l-4 12.9a76.8 76.8 0 0 1 19.3 13.1c8.5 8.1 16 20.5 16 37.4 0 17.5-7.8 33-22 44a96 96 0 0 1-58.8 17h-.2Z" clip-rule="evenodd"/><path fill="#D1884F" d="M97.9 49c-10.7 0-16 8-16 19.3 1.3 11.6 4.1 23 8.2 34 .6 1.6 0 3.3-1.8 3.8-8.6 3.5-34.3 16-34.3 45.3 0 30.3 26.2 53.6 74.1 53.6 48.2 0 73.9-23.3 73.9-53.6 0-29.2-25.4-41.8-34.3-45.3-1.3-.5-2.4-2.2-1.8-3.8 2.6-7 8-24.9 8-34 0-11.3-4.8-19.3-15.5-19.3-15.5 0-19.6 22.2-19.8 46.1 0 1.6-1.4 2.7-2.7 2.7h-15.5a2.7 2.7 0 0 1-2.7-2.7C117.2 71 113.4 49 97.9 49Z"/><path fill="#FEDC90" d="M128 195c-35.3 0-73.7-19.2-74-44 0 30.8 26.2 54 74 54s74-23.2 74-54c0 24.8-38.7 44-74 44Z"/><path fill="#633001" d="M108.2 143.2c0 8.6-4 12.9-8.8 12.9-4.9 0-8.6-4.3-8.6-13 0-8.5 3.7-12.5 8.6-12.5 4.8 0 8.8 4.3 8.8 12.6ZM164.9 143.2c0 8.6-4 12.9-8.9 12.9-4.8 0-8.6-4.3-8.6-13 0-8.5 3.8-12.5 8.6-12.5s8.9 4.3 8.9 12.6Z"/></svg>