<svg xmlns="http://www.w3.org/2000/svg" width="256" height="256" fill="none"><circle cx="128" cy="128" r="128" fill="#fff"/><path fill="#1A1A1A" d="m207.4 166.7-20-15.8a6.8 6.8 0 0 0-10.3 2.3 58 58 0 0 1-21.4 22.7l-21-21.4a6 6 0 0 0-8.5 0l-22.3 22.7A55.9 55.9 0 0 1 74.7 128a55.3 55.3 0 0 1 54.7-55.7 53 53 0 0 1 47.3 27.5 6.8 6.8 0 0 0 9.9 2L206 87.4a7 7 0 0 0 1.8-9.3A92 92 0 0 0 129.4 34C78.4 34 37 76.2 37 128s41.5 94 92.4 94a91 91 0 0 0 49.1-14.3c12.6-8 23-19 30.5-32a7 7 0 0 0-1.6-9ZM116.2 182l14.3-14.5 13.5 13.8a47.1 47.1 0 0 1-27.8.7Zm12.8-68.4c0 .4 0 6.5 15 17 11.2 7.7 6 23.2 3.7 28.3a45.5 45.5 0 0 0-17.2-23 39.2 39.2 0 0 0-17.1 23c-4.6-12.5-3-18.8-.6-22.2 1.8-2.6 5.2-6.3 5.2-6.3 3-3 6-5.9 9-11.8a17 17 0 0 0 2-5Z"/><path fill="#FF6D01" d="M119.4 130.8s-3.2 3.9-5 6.7c-2.3 3.6-3.8 10.2.5 23.5-25-24.6.8-49.7.3-47.8-2 7.1 4.2 17.6 4.2 17.6Zm6.1-7.7c.9-1.4 1.7-3 2.6-4.8 1.9-4.2 1.9-5.4 1.9-5.4s-.6 6.5 14.4 18c10.8 8.3 5.7 24.7 3.5 30.1 0 0 12.7-9.1 11-24.5-2.2-18.5-11.2-16.8-17.8-30.5-6.1-12.8 4.4-23 4.4-23s-14.1-.8-20.6 15.8c-6.8 17.6.6 24.3.6 24.3Z"/></svg>