<svg xmlns="http://www.w3.org/2000/svg" width="50" height="50" fill="none"><circle cx="25" cy="25" r="25" fill="#08243B"/><path fill="#fff" fill-rule="evenodd" d="M13.78 25.46c0-6.25 4.92-11.3 10.98-11.3 6.07 0 10.98 5.05 10.98 11.3 0 6.25-4.91 11.31-10.98 11.31-6.06 0-10.98-5.06-10.98-11.31Zm14.89 8.48c.4 0 .76-.22.96-.57l4.14-7.4a1.18 1.18 0 0 0 .01-1.13c-.88-1.67-3.5-6.52-4.9-7.95-1.31-1.35-4.1-1.16-4.1-1.16s-2.88-.19-4.18 1.16c-1.4 1.43-4.04 6.29-4.93 7.95-.19.36-.18.78.01 1.13l4.16 7.4c.2.36.57.57.96.57h7.87Z" clip-rule="evenodd"/><path stroke="#fff" stroke-width="2.16" d="M24.78 41.52c8.61 0 15.6-7.19 15.6-16.06 0-8.87-6.99-16.06-15.6-16.06-8.62 0-15.6 7.19-15.6 16.06 0 8.87 6.98 16.06 15.6 16.06ZM38.24 33.5 11.32 17.35"/><path stroke="#fff" stroke-width="2.16" d="M11.31 20.76a3.36 3.36 0 0 0 3.32-3.41 3.36 3.36 0 0 0-3.32-3.42A3.36 3.36 0 0 0 8 17.35a3.36 3.36 0 0 0 3.31 3.41Z"/><path fill="#fff" d="M11.27 18.8c.78 0 1.42-.66 1.42-1.46 0-.8-.64-1.46-1.42-1.46-.78 0-1.42.65-1.42 1.46 0 .8.64 1.45 1.42 1.45ZM38.24 34.96c.78 0 1.42-.65 1.42-1.46 0-.8-.64-1.46-1.42-1.46-.78 0-1.41.66-1.41 1.46 0 .8.63 1.46 1.41 1.46Z"/><path stroke="#fff" stroke-width="2.16" d="M38.24 36.91a3.36 3.36 0 0 0 3.31-3.4 3.36 3.36 0 0 0-3.31-3.42 3.36 3.36 0 0 0-3.32 3.41 3.36 3.36 0 0 0 3.32 3.41ZM38.24 17.35 11.32 33.5"/><path fill="#fff" d="M11.31 34.96c.78 0 1.42-.65 1.42-1.46 0-.8-.64-1.46-1.42-1.46-.78 0-1.42.66-1.42 1.46 0 .8.64 1.46 1.42 1.46Z"/><path stroke="#fff" stroke-width="2.16" d="M11.31 36.91a3.36 3.36 0 0 0 3.32-3.4 3.36 3.36 0 0 0-3.32-3.42A3.36 3.36 0 0 0 8 33.5a3.36 3.36 0 0 0 3.31 3.41Z"/><path fill="#fff" d="M38.24 18.8c.78 0 1.42-.65 1.42-1.45 0-.8-.64-1.46-1.42-1.46-.78 0-1.41.65-1.41 1.46 0 .8.63 1.46 1.41 1.46Z"/><path stroke="#fff" stroke-width="2.16" d="M38.24 20.76a3.36 3.36 0 0 0 3.31-3.41 3.36 3.36 0 0 0-3.31-3.42 3.36 3.36 0 0 0-3.32 3.42 3.36 3.36 0 0 0 3.32 3.41ZM24.8 9.41v32.14M24.77 44.96a3.36 3.36 0 0 0 3.32-3.41 3.36 3.36 0 0 0-3.32-3.41 3.36 3.36 0 0 0-3.31 3.4 3.36 3.36 0 0 0 3.31 3.42Z"/><path fill="#fff" d="M24.77 43.01c.78 0 1.41-.65 1.41-1.46 0-.8-.63-1.46-1.41-1.46-.78 0-1.42.66-1.42 1.46 0 .8.64 1.46 1.42 1.46ZM24.77 10.87c.78 0 1.41-.65 1.41-1.46 0-.8-.63-1.46-1.41-1.46-.78 0-1.42.66-1.42 1.46 0 .8.64 1.46 1.42 1.46Z"/><path stroke="#fff" stroke-width="2.16" d="M24.77 12.83A3.36 3.36 0 0 0 28.1 9.4 3.36 3.36 0 0 0 24.77 6a3.36 3.36 0 0 0-3.31 3.41 3.36 3.36 0 0 0 3.31 3.42Z"/></svg>