<svg xmlns="http://www.w3.org/2000/svg" width="400" height="400" fill="none"><g clip-path="url(#a)"><path d="M200 400a200 200 0 1 0 0-400 200 200 0 0 0 0 400z" fill="#ff1156"/><path d="m129 114 47-29c4-2 4-7 1-10l-39-37a2 2 0 0 0-3 0l-3 3c-5 5-5 13 0 17l15 14c2 3 2 7-1 9l-18 11a12 12 0 0 0-4 17l3 4c0 1 1 2 2 1zm45 154c4-16-1-34-12-46l-29-34a40 40 0 0 1 8-60l48-31a8 8 0 0 1 10 1c18 16 79 74 76 135 0 0 0 94-92 129-14 5-27-7-24-22 13-50 15-72 15-72zm12-144-34 21c-8 5-9 16-3 24l31 35c17 20 24 46 18 72l-5 23c-2 9 10 16 17 10 33-28 78-96-17-185-2-1-5-2-7 0z" fill="#fff"/></g><defs><clipPath id="a"><path fill="#fff" d="M0 0h400v400H0z"/></clipPath></defs></svg>