<svg xmlns="http://www.w3.org/2000/svg" viewBox="0 0 2000 2000"><path d="M1000 2000a1000 1000 0 1 0 0-2000 1000 1000 0 0 0 0 2000z" fill="#070a0e"/><path d="M578 1335c-30-18-48-51-48-86v-195a42 42 0 0 1 63-36l441 257a84 84 0 0 1 41 73v202a50 50 0 0 1-76 43l-421-258zm657-371c26 15 42 43 42 73v411c0 12-7 23-17 29l-97 54-4 2v-228c0-30-15-57-41-72l-387-232V744a42 42 0 0 1 63-37l441 257zm193-303c26 15 42 43 42 73v600c0 12-7 23-18 29l-91 49V996c0-30-16-57-41-72L924 685V441c0-7 2-15 6-21 11-20 37-27 57-15l441 256z" fill-rule="evenodd" fill="#00d395"/></svg>