<svg xmlns="http://www.w3.org/2000/svg" width="256" height="256" fill="none"><circle cx="128" cy="128" r="128" fill="#C7F5D3"/><path fill="#000" fill-rule="evenodd" d="M178.3 64.7V74c0 2-1.7 3.7-3.8 3.7h-9.3c-2 0-3.7-1.6-3.7-3.7v-9.3c0-2 1.7-3.7 3.7-3.7h9.3c2 0 3.8 1.7 3.8 3.7ZM195 98.2v9.3c0 2-1.7 3.8-3.7 3.8H182c-2 0-3.7-1.7-3.7-3.8v-9.3c0-2 1.6-3.7 3.7-3.7h9.3c2 0 3.7 1.7 3.7 3.7Zm-29.9 1.3v-9.2c0-2-1.7-3.8-3.7-3.8H152c-2 0-3.7 1.7-3.7 3.8v9.2c0 2.1 1.6 3.8 3.7 3.8h9.3c2 0 3.7-1.7 3.7-3.8ZM148.5 128h26c2 0 3.7 1.7 3.7 3.7v26c0 2.1-1.6 3.8-3.7 3.8h-9.3c-2 0-3.7 1.7-3.7 3.7v9.3c0 2-1.7 3.8-3.8 3.8h-9.2c-2 0-3.8 1.6-3.8 3.7v9.3c0 2-1.6 3.7-3.7 3.7H98.2c-2 0-3.7-1.7-3.7-3.7V182c0-2-1.7-3.8-3.8-3.8h-9.2c-2 0-3.8-1.6-3.8-3.7v-9.3c0-2-1.6-3.7-3.7-3.7h-9.3c-2 0-3.7-1.7-3.7-3.7V115c0-2 1.7-3.8 3.7-3.8H74c2 0 3.8-1.6 3.8-3.7v-9.3c0-2 1.6-3.7 3.7-3.7h9.3c2 0 3.7-1.7 3.7-3.7v-9.3c0-2 1.7-3.7 3.8-3.7h26c2 0 3.7 1.6 3.7 3.7v26c0 2 1.7 3.8 3.7 3.8h9.3c2 0 3.8 1.6 3.8 3.7v9.3c0 2 1.6 3.7 3.7 3.7Zm0 33.5h13v-13c0-2-1.7-3.7-3.8-3.7h-9.2c-2 0-3.8-1.7-3.8-3.8v-9.2c0-2.1-1.6-3.8-3.7-3.8h-9.3c-2 0-3.7-1.7-3.7-3.7V115c0-2-1.7-3.7-3.8-3.7H115c-2 0-3.8-1.7-3.8-3.8v-9.2c0-2.1-1.6-3.8-3.7-3.8h-9.3c-2 0-3.7 1.7-3.7 3.8v9.2c0 2-1.7 3.8-3.7 3.8h-9.3c-2 0-3.7 1.6-3.7 3.7v42.8c0 2 1.6 3.7 3.7 3.7h9.3c2 0 3.7 1.7 3.7 3.8v9.2c0 2 1.7 3.8 3.7 3.8H141c2 0 3.8-1.7 3.8-3.8v-9.2c0-2.1 1.6-3.8 3.7-3.8Z" clip-rule="evenodd"/></svg>