<svg xmlns="http://www.w3.org/2000/svg" width="256" height="256" fill="none"><g clip-path="url(#a)"><path d="M128 256a128 128 0 1 0 0-256 128 128 0 0 0 0 256z" fill="#13130d"/><g fill="#f4932c"><path fill-rule="evenodd" d="M129 47 59 87v81l70 40 69-40V87l-69-40zm2-20a6 6 0 0 0-5 0L43 75c-2 1-3 3-3 5v95c0 2 1 4 3 5l83 48a6 6 0 0 0 5 0l83-48c2-1 3-3 3-5V80c0-2-1-4-3-5l-83-48z"/><path d="m129 76-45 26v51l44 25 1 1v8l-1 1-51-29-2-4V99a4 4 0 0 1 2-3l49-28h5l51 28a1 1 0 0 1 0 1l-8 5a1 1 0 0 1-1 0l-44-26zm7 52 44-24 1 1v57l-44 26-1-1v-59z"/></g></g><defs><clipPath id="a"><path fill="#fff" d="M0 0h256v256H0z"/></clipPath></defs></svg>