<svg xmlns="http://www.w3.org/2000/svg" width="256" height="256" fill="none"><circle cx="128" cy="128" r="128" fill="#F2CD16"/><path fill="#544003" fill-rule="evenodd" d="M108.4 187a18 18 0 0 1-17.2-12.6L79 136h-7.5a18 18 0 0 1-17.2-12.6L47 100.6h27.3L59.9 79H196l-14.4 21.6H209l-7.3 22.8a18 18 0 0 1-17.2 12.6H177l-12.2 38.4a18 18 0 0 1-17.2 12.6h-39.2Zm-9.2-61.5c0 5.8 4.3 10.5 9.7 10.5 5.4 0 9.7-4.7 9.7-10.5s-4.3-10.5-9.7-10.5c-5.4 0-9.7 4.7-9.7 10.5Zm57.6 0c0 5.8-4.3 10.5-9.7 10.5-5.4 0-9.7-4.7-9.7-10.5s4.3-10.5 9.7-10.5c5.4 0 9.7 4.7 9.7 10.5Z" clip-rule="evenodd"/></svg>