<svg xmlns="http://www.w3.org/2000/svg" width="256" height="256" fill="none"><path fill="url(#a)" d="m239.2 64.6-5.6-9.7a5.7 5.7 0 0 0-9-1.2L212 66.3a5.7 5.7 0 0 0-.7 7.2 99.1 99.1 0 0 1-2.4 112.6A99.7 99.7 0 0 1 81 216l21.5-21.5A71.3 71.3 0 0 0 192 97a5.7 5.7 0 0 0-9.1-1.5l-12.9 12.9a5.7 5.7 0 0 0-1.5 5.3l1 4.6a42.6 42.6 0 0 1-62.7 46.8l-5.6-3.2a5.7 5.7 0 0 0-6.9.9l-52.5 52.4a5.7 5.7 0 0 0 .5 8.5l7.8 6a128.2 128.2 0 0 0 189.2-165Z"/><path fill="url(#b)" d="M206 26.4a128.2 128.2 0 0 0-189.2 165l5.6 9.7a5.7 5.7 0 0 0 9 1.2l12.7-12.7a5.7 5.7 0 0 0 .7-7.2A99.5 99.5 0 0 1 174.8 40l-21.5 21.5a71.3 71.3 0 0 0-89.2 97.4 5.7 5.7 0 0 0 9.2 1.6L86 147.6a5.7 5.7 0 0 0 1.5-5.3l-1-4.6a43.2 43.2 0 0 1 4.5-31A42.6 42.6 0 0 1 149.3 91l5.7 3.2a5.7 5.7 0 0 0 6.8-.9l52.5-52.4a5.7 5.7 0 0 0-.5-8.6l-7.8-6Z"/><defs><linearGradient id="a" x1="82.7" x2="262.8" y1="264.1" y2="83.7" gradientUnits="userSpaceOnUse"><stop stop-color="#B090F5"/><stop offset="1" stop-color="#5FBFFF"/></linearGradient><linearGradient id="b" x1="0" x2="216" y1="102" y2="102" gradientUnits="userSpaceOnUse"><stop stop-color="#68D7FA"/><stop offset="1" stop-color="#7EF1B3"/></linearGradient></defs></svg>