<svg xmlns="http://www.w3.org/2000/svg" width="256" height="256" fill="none"><path fill="#fff" d="m128.4 10 102.4 59.1v118.3l-102.4 59-102.4-59V69l102.4-59Z"/><path fill="#002D74" stroke="#fff" stroke-width="8" d="M60.9 89v78.5l67.6 39.2 67.5-39.2V89l-67.5-39.3L60.9 89Zm173.3 100.6-2 1.2-101.7 59.1-2 1.2-2-1.2-101.8-59.1-2-1.2V67l2-1.2L126.4 6.6l2-1.2 2 1.2 101.8 59.1 2 1.2v122.7Z"/><path fill="url(#a)" d="m128.5 246.4 101.7-59.2v-118L128.5 10v35L200 86.7v83l-71.5 41.6v35Z" style="mix-blend-mode:multiply"/><path fill="#002D74" d="m176 155.8-47.5 27.6-47.6-27.6v-55.1L128.5 73l47.5 27.7-19.8 11.4-27.7-16-27.8 16v32.2l27.8 16.1 27.7-16 19.8 11.4Z"/><defs><linearGradient id="a" x1="179.3" x2="179.3" y1="246.4" y2="128.2" gradientUnits="userSpaceOnUse"><stop stop-color="#002D74"/><stop offset="1" stop-color="#002D74" stop-opacity="0"/></linearGradient></defs></svg>