<svg xmlns="http://www.w3.org/2000/svg" width="256" height="256" fill="none"><path d="M128 256a128 128 0 1 0 0-256 128 128 0 0 0 0 256z" fill="#1953e9"/><g clip-path="url(#a)"><path d="M152 75h-12v18h12V75zm-34-34h-12v18h12V41z" fill="#1682fe"/><path d="M83 58H71v19h12V58z" fill="#60d8a4"/><path d="M66 128H54v51h12v-51z" fill="#f4bb3b"/><path d="M66 76H54v52h12V76z" fill="#60d8a4"/><path d="M169 92h-12v18h12V92z" fill="#1682fe"/><path d="M169 145h-12v18h12v-18zm-17 17h-12v18h12v-18zm-34 34h-12v18h12v-18z" fill="#ff5a5a"/><path d="M83 178H71v19h12v-19z" fill="#f4bb3b"/><path d="M203 110V76h-17V58h-35V41h-34v17H82v18H65v103h17v18h35v17h34v-17h35v-18h17v-34h-34v17h-18v17h-34v-17h-17V93h17V76h34v17h18v17h34z" fill="#3a3a3a"/></g><defs><clipPath id="a"><path fill="#fff" transform="translate(54 41)" d="M0 0h149v173H0z"/></clipPath></defs></svg>