<svg xmlns="http://www.w3.org/2000/svg" width="256" height="256" fill="none"><circle cx="128" cy="128" r="128" fill="#F5AC37"/><path fill="#FEFEFD" d="M132.6 137.2h49c1.2 0 1.8 0 1.8-1.1v-15c0-1.2-.6-1.7-1.8-1.7H84.8c-1.2 0-1.8.5-1.8 1.7v14.4c0 1.7 0 1.7 2.3 1.7h47.3Zm45-34.6c-.8-1.9-1.8-4.1-2.9-5.7l-5.8-7.5-3.4-3.5c-10.6-9-24.1-14-38-13.8H84.7c-1.2 0-1.8.5-1.8 1.7v28.3c0 1.1 0 1.7 1.8 1.7h92.9v-1.2Zm0 51.3H84.8c-1.2 0-1.8 0-1.8 1.8v27.7c0 1.1 0 1.7 1.8 1.7h40.9l5.8-.6a61 61 0 0 0 17.3-4l6.9-3a48.7 48.7 0 0 0 21.9-22.4v-1.2ZM66.9 199.5v-44.4c0-1.2 0-1.2-1.2-1.2H48.4c-1.1 0-1.1 0-1.1-1.7v-15h18.4c1.2 0 1.2 0 1.2-1.1v-15c0-1.2 0-1.2-1.2-1.2H48.4c-1.1 0-1.1 0-1.1-1.7v-13.8c0-1.2 0-1.2 1.1-1.2h17.3c1.2 0 1.2 0 1.2-1.7V58.2c0-1.1 0-1.1 1.7-1.1h60l8.4.4 4.8.7A78.4 78.4 0 0 1 181 78.4c6.4 7 11.4 15.2 14.8 24 .4 1 1 .8 2.5.8h13.9c2.3 0 2.3 0 2.3 1.7v13.3c0 1.2-.6 1.2-1.7 1.2h-11c-1.2 0-1.7 0-1.7 1.7.4 4.8.4 9.6 0 14.4 0 1.7 0 1.7 1.7 1.7h12.7v14.4c0 1.8-.6 1.8-1.7 1.8h-15c-1.2 0-2.3.5-2.3 1.7a64 64 0 0 1-16.8 24.8l-8.6 6.3-9.8 5.8a86.5 86.5 0 0 1-37.5 7.5h-56 .1Z"/></svg>