<svg xmlns="http://www.w3.org/2000/svg" width="256" height="256" fill="none"><circle cx="128" cy="128" r="128" fill="url(#a)"/><path d="M214 143a88 88 0 0 0 1-11 87 87 0 1 0-174 0 88 88 0 0 0 0 9c22-19 52-30 86-30s66 12 87 32zM19 195c17-39 59-67 109-67 49 0 91 28 108 68a129 129 0 0 1-29 33c-7-36-40-64-80-64s-72 27-80 62a129 129 0 0 1-28-32z" fill-rule="evenodd" fill="#fff"/><defs><linearGradient id="a" x1="128" y1="0" x2="128" y2="256" gradientUnits="userSpaceOnUse"><stop stop-color="#73297d"/><stop offset="1" stop-color="#16082a"/></linearGradient></defs></svg>