<svg xmlns="http://www.w3.org/2000/svg" width="1588" height="1588" fill="none"><circle cx="794" cy="794" r="794" fill="#008de4"/><g clip-path="url(#a)" fill="#fff"><path d="M924 409H579l-28 160h311c153 0 199 56 197 148 0 47-21 127-30 153-23 70-72 148-254 148H473l-29 160h344c122 0 173-14 228-39 121-57 193-176 222-332 43-233-11-398-314-398zM431 713c-91 0-104 59-112 95l-15 65h353c90 0 103-59 112-94l15-66H431z"/></g><defs><clipPath id="a"><path fill="#fff" transform="translate(304 409)" d="M0 0h947v769H0z"/></clipPath></defs></svg>