<svg xmlns="http://www.w3.org/2000/svg" width="256" height="256" fill="none"><circle cx="128" cy="128" r="128" fill="#fff"/><path fill="#00539F" d="M43 93h128.1l15.5 21.4L202.1 93H221l-25 34.5 25 34.5h-19l-15.4-21.4-15.5 21.4H43V93Z"/><path fill="#fff" d="M58.6 147.7v-41.4h6.2c12.4 0 18.1 6.4 18.1 20.5 0 14.7-5.2 21-18 21h-6.3Zm56.6-13.2 7.7-27.7 8 27.7h-15.7ZM47 158h18.4c19.5 0 29.3-10.5 29.3-31.2 0-20.3-9.9-30.8-29-30.8H47v62Zm129.6-31-22.3 31h15.4l14.8-20.6L192 127l-7.5-10.5L169.7 96h-15.4l22.3 31Zm-79.1 31h11l3.9-13.6h21.2l3.8 13.6H149l-18.5-62H116l-18.5 62Z"/></svg>