<svg xmlns="http://www.w3.org/2000/svg" width="256" height="256" fill="none"><g clip-path="url(#a)"><path d="M128 256a128 128 0 1 0 0-256 128 128 0 0 0 0 256z" fill="#000"/><path d="M133 146c0-5 2-10 5-13s7-6 12-6h79l-26 17h-43a11 11 0 0 0-7 3 10 10 0 0 0-3 7v42l-17 20v-70zm-5-23c-4 0-9-2-12-4L60 63l31 6 30 30c2 2 5 3 8 3s5-1 7-3l31-30 30-6-55 55c-4 3-9 5-14 5zm-22 73v-42c0-3-1-5-3-7a11 11 0 0 0-8-3H53l-26-17h77a20 20 0 0 1 17 10 16 16 0 0 1 2 7v72l-17-20z" fill="#e4f2ff"/></g><defs><clipPath id="a"><path fill="#fff" d="M0 0h256v256H0z"/></clipPath></defs></svg>