<svg xmlns="http://www.w3.org/2000/svg" width="256" height="256" fill="none"><g clip-path="url(#a)"><path fill="#fff" d="M128 256a128 128 0 1 0 0-256 128 128 0 0 0 0 256Z"/><path fill="#43963A" fill-rule="evenodd" d="M56.4 122.4c7.4 7 14.5 13 14.5 25.5 0 13.6-6.8 23-22.5 23-11 0-21.6-4.6-22.4-22.2l-.3-6.5 15-.8.3 4c.6 7.9 3.5 10.4 7.4 10.4 3.4 0 5.2-2 5.2-6.2 0-5.7-6.3-10.8-12.6-15.9-9-8-14.2-14.8-14.2-26.7 0-12.2 7.1-21.8 22-21.8 11.3 0 20.1 5 21 21.8l.2 4.6-14.5.8v-4c0-5-1.7-8.7-6.2-8.7-2.6 0-5.1 1.6-5.1 6-.3 6.2 3.1 8.4 12.2 16.7Zm155.8 47.4-7.4-33.5h-1.4v33.5h-18.8v-83h24.2c13 0 21.6 8.3 21.6 24 0 9.3-3.4 17-9.1 21.2l9.7 37.8h-18.8Zm-8.8-44.3h1.7c3.1 0 6.5-1.7 6.5-12.2 0-10.8-2.8-12.5-6-12.5h-2.2v24.7Zm-74.2-38.6H153c16.8 0 25.3 13.3 25.3 41.4 0 28.1-8.5 41.5-25.3 41.5h-23.8v-83 .1Zm21.6 13.9h-2.9V156h2.9c5.4 0 8.5-4.8 8.5-27.8s-3.1-27.5-8.5-27.5v.1Zm-54.6 40.6v28.4H77.4v-83H102c13.3 0 21.9 8 21.9 27.3 0 18.8-8.6 27.3-23.3 27.3H96.2Zm2.8-40.6h-2.5v27H99c2.9 0 6-2 6-13.7 0-11.3-3.1-13.3-6-13.3Z" clip-rule="evenodd"/><path fill="#43963A" d="m149.4 162-9.4 7.4-1.7-.8c3.5-3.5 7.9-8 9.5-9.4 2-1.9 3.3-2.7 4.8-2.7s2.5 1 3.7 2.5l1.3 1.8-2.6 1.6c-.5-.5-1.3-1.4-2.4-1.4a5 5 0 0 0-3.2 1Zm19.3-2.4c.4.5.8 1 1 1.5l-2.4 1-1-1.3a47 47 0 0 0 2.4-1.2Zm-8.7 4.1.7 1-2.6 1.1-.8-.8 2.6-1.3h.1Zm13.9 2.8L184 180h-2l-10.6-12.9 2.4-.6h.1Zm-9.5 2.8 8.4 10.8h-1.7l-9-10 2.3-.8Z"/><path fill="#43963A" d="M153.7 147.6c1.4 0 2.1.6 3.1 1.7l6.7 8c.8-.6 1.6-1 2.5-1.5l-8.8-11.5c-1.1-1.3-2-2.2-3.8-2.2-2 0-3.3 1-4.6 2.7a367 367 0 0 0-13 23l1.5.5c4.1-6.5 8.5-12.7 13.2-18.8 1-1.1 2-2 3.2-2v.1ZM103.2 161c-1.2 0-1.9.7-2.4 1.3l-2.7-1.6 1.4-1.7c1.1-1.5 2.2-2.5 3.6-2.5 1.5 0 2.8.7 4.9 2.6 1.6 1.5 6 5.9 9.4 9.5l-1.7.7-9.3-7.3c-1-.6-2-1-3.2-1Zm-13.7-.2-1.1 1.2-2.4-1 1-1.4 2.5 1.2Zm8.9 4.2-.8.8-2.6-1 .7-1 2.7 1.2Zm-14.2 2.2L73.5 180h-1.8l10.2-13.6 2.3.7v.1Zm9.6 2.9-9 10h-1.9l8.5-10.8 2.4.8Z"/><path fill="#43963A" d="M105.3 149.6c2.2 2.3 9 12.5 13.2 18.7l1.4-.4c-4-7.8-8.4-15.5-13-23-1.4-1.8-2.5-2.8-4.6-2.8-1.8 0-2.7.9-3.8 2.3l-8.6 11.4 2.4 1.5 6.6-8c1-1 1.6-1.7 3-1.7 1.3 0 2.2.8 3.4 2Zm22.6 18.6a28 28 0 0 1 15 4.5v3.2a27 27 0 0 1-30 0v-3.2a27 27 0 0 1 15-4.5Zm56.7-18.2c-.7-.8-2-2.1-4-2.1-1.4 0-2.7.6-3.6 1.2-3.4 2-23.7 14.2-35.4 21l2 1.2c11.6-5.4 30-14 34-16 1.2-.5 2.6-1 3.9-1 2 0 3.3 1.3 4.8 2.6 4.3 4 23.6 23.1 23.6 23.1h2.3l-27.6-30Z"/><path fill="#43963A" d="M177.5 160.1c-1.2 0-2.3.5-3.6 1.1l-29.5 11.9v2.3l30-9c1-.4 2.1-.7 3.2-.7 1.3 0 2.6.4 3.9 1.6l13.7 12.9h2s-12.6-14.3-16.3-18.3c-.9-1-1.9-1.8-3.4-1.8Zm-134 20h2.2s19.3-19 23.7-23.1c1.4-1.4 2.7-2.6 4.7-2.6 1.3 0 2.6.5 3.9 1 4 2 22.4 10.6 34 16l2-1.2c-11.6-7-31.9-19-35.4-21-1-.7-2.3-1.2-3.6-1.2-2 0-3.2 1.3-4 2.1l-27.6 30h.1Z"/><path fill="#43963A" d="M74.8 161.8 58.4 180h2.1l13.7-12.9a5.5 5.5 0 0 1 3.9-1.6c1 0 2 .4 3.2.7l30 9V173L82 161.2c-1.4-.6-2.4-1.1-3.8-1.1s-2.5.7-3.3 1.7h-.1Z"/></g><defs><clipPath id="a"><path fill="#fff" d="M0 0h256v256H0z"/></clipPath></defs></svg>