<svg xmlns="http://www.w3.org/2000/svg" width="256" height="256" fill="none"><circle cx="128" cy="128" r="128" fill="#fff"/><path fill="#13A3D7" d="M70 127.5V53l41 .1 41 .1 3.5.9a49.6 49.6 0 0 1 38.7 45l.2 3.4h-24.8l-.2-1.6a26 26 0 0 0-17.7-22l-2.7-1h-27l-27-.2v99.6h24.8v24.8H70v-74.6Z"/><path fill="#13A3D7" d="M138.5 189.8v-12.4l4.4-.2c2.5-.1 5.4-.4 6.6-.7 7.1-1.7 14-7.2 17.3-13.7 2.7-5.4 2.6-4.5 2.7-24.2l.1-17.4h24.8l-.2 19-.1 19-.9 3.4a49.4 49.4 0 0 1-13.6 24.4 49.6 49.6 0 0 1-35.2 15l-5.9.2v-12.4Z"/></svg>