<svg xmlns="http://www.w3.org/2000/svg" width="256" height="256" fill="none"><g clip-path="url(#a)"><path fill="#02081C" d="M128 256a128 128 0 1 0 0-256 128 128 0 0 0 0 256Z"/><path fill="url(#b)" fill-rule="evenodd" d="M80.7 135.5v61.6H127s65.2 5.5 65.2-68c0-70.6-59.5-70.4-71-70.3H80.7v61.6H64.3v15.1h16.4Zm26-51.1h18.4c6.8 0 41.2 2.7 41.3 45.2 0 42-34.7 42-40.2 42h-19.4v-36h28.8v-15.2h-28.8v-36h-.1Z" clip-rule="evenodd"/></g><defs><linearGradient id="b" x1="85" x2="193.2" y1="109.1" y2="129.9" gradientUnits="userSpaceOnUse"><stop stop-color="#9D62FF"/><stop offset=".5" stop-color="#FF7D6F"/><stop offset="1" stop-color="#FFA756"/></linearGradient><clipPath id="a"><path fill="#fff" d="M0 0h256v256H0z"/></clipPath></defs></svg>