<svg xmlns="http://www.w3.org/2000/svg" width="400" height="400" fill="none"><circle cx="200" cy="200" r="200" fill="#e6007a"/><g clip-path="url(#a)" fill="#fff"><path d="M200 118c29 0 51-13 51-29s-22-30-51-30-50 13-50 30 22 29 50 29zm0 223c29 0 51-13 51-30s-22-29-51-29-50 13-50 29 22 30 50 30zm-70-182c14-24 14-51-1-59s-37 5-51 29-13 51 1 59 37-5 51-29zm193 111c14-24 13-50-1-58s-37 5-51 29-14 51 1 59 36-5 51-30zm-194 30c15-8 15-35 1-59s-37-38-51-29-15 34-1 58 37 38 51 30zm193-112c14-8 15-34 1-58s-37-38-51-30-15 35-1 59 37 37 51 29z"/></g><defs><clipPath id="a"><path fill="#fff" transform="translate(68 59)" d="M0 0h265v282H0z"/></clipPath></defs></svg>