<svg xmlns="http://www.w3.org/2000/svg" width="256" height="256" fill="none"><g clip-path="url(#a)"><path fill="#0B1524" stroke="url(#b)" stroke-width="8" d="M128 252a124 124 0 1 0 0-248 124 124 0 0 0 0 248Z"/><path fill="url(#c)" d="M170.6 165.8c0 4-1.4 7.8-4.1 10.8 0 .2.1.3.3.3 7.2-1.8 13-8 13-16V119c0-12.4-6.9-23.8-18.1-30l-45.4-25-9 5 45.2 25a34.4 34.4 0 0 1 18.1 30v41.8Z"/><path fill="url(#d)" d="M158 173v-41.9c0-12.4-7-23.8-18.2-30L94.7 76.2l9-5 45.3 25a34.4 34.4 0 0 1 18.2 30V168a16.6 16.6 0 0 1-13.3 16.1l-.1-.1v-.4c2.6-2.8 4.1-6.4 4.1-10.6h.1Z"/><path fill="url(#e)" fill-rule="evenodd" d="m81.5 83.7 9-5.1 45.4 25a34.4 34.4 0 0 1 18.1 30v42c-.1 12.7-14.4 20.5-25.9 14.2l-41-22.7-5.6-3V83.7Zm63.3 55V163l-30.5-16.8v-44.4l12.4 6.9a34.4 34.4 0 0 1 18.1 30Zm-42-43.2 4.6 2.5v52l.5.2 37 20.4v4.7l-42-23.2h-.1V95.5Zm-7.5-4.2v64.9l.2.1-.2.1 49.5 27.3c-.5 2.2-3 3.4-5.2 2.3l-49-27V88.8l4.7 2.5Z" clip-rule="evenodd"/></g><defs><radialGradient id="b" cx="0" cy="0" r="1" gradientTransform="matrix(-192.5 -5.5 14 -492.3 69 45.5)" gradientUnits="userSpaceOnUse"><stop stop-color="#D9C096"/><stop offset=".5" stop-color="#B64A8D"/><stop offset=".7" stop-color="#6601E3"/><stop offset="1" stop-color="#2BE1FF"/></radialGradient><radialGradient id="c" cx="0" cy="0" r="1" gradientTransform="matrix(123.5 28 -53.2 234.8 84.5 83)" gradientUnits="userSpaceOnUse"><stop offset=".1" stop-color="#E5D89E"/><stop offset=".2" stop-color="#DCA397"/><stop offset=".3" stop-color="#BF747B"/><stop offset=".5" stop-color="#AE3CA8"/><stop offset=".7" stop-color="#5D6BFF"/><stop offset="1" stop-color="#42D7FF"/></radialGradient><radialGradient id="d" cx="0" cy="0" r="1" gradientTransform="matrix(123.5 28 -53.2 234.8 84.5 83)" gradientUnits="userSpaceOnUse"><stop offset=".1" stop-color="#E5D89E"/><stop offset=".2" stop-color="#DCA397"/><stop offset=".3" stop-color="#BF747B"/><stop offset=".5" stop-color="#AE3CA8"/><stop offset=".7" stop-color="#5D6BFF"/><stop offset="1" stop-color="#42D7FF"/></radialGradient><radialGradient id="e" cx="0" cy="0" r="1" gradientTransform="matrix(123.5 28 -53.2 234.8 84.5 83)" gradientUnits="userSpaceOnUse"><stop offset=".1" stop-color="#E5D89E"/><stop offset=".2" stop-color="#DCA397"/><stop offset=".3" stop-color="#BF747B"/><stop offset=".5" stop-color="#AE3CA8"/><stop offset=".7" stop-color="#5D6BFF"/><stop offset="1" stop-color="#42D7FF"/></radialGradient><clipPath id="a"><path fill="#fff" d="M0 0h256v256H0z"/></clipPath></defs></svg>