<svg xmlns="http://www.w3.org/2000/svg" width="256" height="256" fill="none"><circle cx="128" cy="128" r="128" fill="#23201f"/><g fill="#ede1d5"><path fill-rule="evenodd" d="m127 85-42.2 42.3 42 42L169 127l-42-42zm1 27-16 16 16 15.8 15.8-15.9L128 112z"/><circle cx="191" cy="127.5" r="33.5"/><path d="M170 101.5v52l-16-14v-23l16-15z"/></g><g fill="#23201f"><circle cx="190.5" cy="127.5" r="15.5"/><path d="M179.5 116.6v21.8L169 127.5l10.5-10.9z"/></g><g fill="#ede1d5"><circle cx="126.5" cy="63.5" r="33.5" transform="rotate(270 126.5 63.5)"/><path d="M100.5 84.5h52l-14 16h-23l-15-16z"/></g><g fill="#23201f"><circle cx="126.5" cy="64" r="15.5" transform="rotate(270 126.5 64)"/><path d="M115.6 75h21.8l-10.9 10.5L115.6 75z"/></g><g fill="#ede1d5"><circle cx="126.5" cy="191" r="33.5" transform="rotate(90 126.5 191)"/><path d="M152.5 170h-52l14-16h23l15 16z"/></g><g fill="#23201f"><circle cx="126.5" cy="190.5" r="15.5" transform="rotate(90 126.5 190.5)"/><path d="M137.4 179.5h-21.8l10.9-10.5 10.9 10.5z"/></g><g fill="#ede1d5"><circle cx="63.5" cy="126.5" r="33.5" transform="rotate(180 63.5 126.5)"/><path d="M84.5 152.5v-52l16 14v23l-16 15z"/></g><g fill="#23201f"><circle cx="64" cy="126.5" r="15.5" transform="rotate(180 64 126.5)"/><path d="M75 137.4v-21.8l10.5 10.9L75 137.4z"/></g></svg>