<svg xmlns="http://www.w3.org/2000/svg" width="256" height="256" fill="none"><circle cx="128" cy="128" r="128" fill="#fff"/><path fill="url(#a)" d="M128 33c-52.5 0-95 42.5-95 95s42.5 95 95 95 95-42.5 95-95-42.5-95-95-95Zm0 171.54A76.5 76.5 0 0 1 51.46 128c0-7.3 3.66-24.23 29.8-24.23 26.16 0 49.43 25.38 80.78 29.04 10.58 1.34 19.04 1.15 25.38.38 9.23-1.15 16.73 7.7 14.04 16.73A76.62 76.62 0 0 1 128 204.54Z"/><defs><linearGradient id="a" x1="-3.17" x2="120.76" y1="128.48" y2="255.78" gradientUnits="userSpaceOnUse"><stop stop-color="#FFE480"/><stop offset=".46" stop-color="#FF43C3"/><stop offset=".98" stop-color="#4156E0"/></linearGradient></defs></svg>