<svg xmlns="http://www.w3.org/2000/svg" width="256" height="257" fill="none"><path d="M128 256.4a128 128 0 1 0 0-256 128 128 0 0 0 0 256z" fill="url(#a)"/><path d="M62.6 76.2a23 23 0 0 1 7.8-8.6l54.4-38.1L69 122s-4.9-8.3-6.8-12.4a39.8 39.8 0 0 1 .4-33.4zM40.1 140a62.2 62.2 0 0 0 24.4 45.3l60.2 42S87.1 173 55.3 118.8a53 53 0 0 1-6.4-18.5 26 26 0 0 1 0-8.8L46.4 96a71.5 71.5 0 0 0-6.4 21 129.8 129.8 0 0 0 .2 23zm153.6 7.3c-2-4.1-6.8-12.4-6.8-12.4l-55.7 92.5 54.4-38.1a23 23 0 0 0 7.8-8.6c5-10.5 5.1-22.7.4-33.4h-.1zm22-30.4a62.2 62.2 0 0 0-24.3-45.3l-60.1-42.1s37.6 54.4 69.4 108.6a55.3 55.3 0 0 1 6.4 18.5c.4 3 .4 6 0 8.9l2.4-4.7a71.5 71.5 0 0 0 6.5-21c.7-7.6.6-15.3-.2-23z" fill="#fff"/><defs><linearGradient id="a" x1="0" y1="128.4" x2="256" y2="128.4" gradientUnits="userSpaceOnUse"><stop stop-color="#513eff"/><stop offset=".2" stop-color="#5157ff"/><stop offset=".6" stop-color="#5298ff"/><stop offset="1" stop-color="#52e5ff"/></linearGradient></defs></svg>