<svg xmlns="http://www.w3.org/2000/svg" viewBox="0 0 256 256" fill-rule="evenodd" stroke-linecap="round" stroke-linejoin="round" stroke-miterlimit="1.5"><path d="M128 256a128 128 0 1 0 0-256 128 128 0 0 0 0 256z" fill="#130e56" fill-rule="nonzero"/><path d="m36 116 80-79 27 5 8 28-27-8-8-25 8 25-80 80-8-26Zm27 7-19 19 55 15 15 56 27 7 80-79-7-28-28-7-80 78m45-114-81 80-7-27m0 0-27-7m46-45 8 25 26 9-7-29-27-5Zm-12 79 7 28 56 15 8 27m-27-7 80-81-8-26m8 26 27 9m-70-1 9 26 27 8-8-27-28-7Zm-52 17 29-30 8 28-27-8-8-27 27 7" fill="none" stroke="url(#a)" stroke-width="5"/><defs><linearGradient id="a" x1="75.7" y1="178.9" x2="181.8" y2="72.3" gradientUnits="userSpaceOnUse"><stop offset="0" stop-color="#61beff"/><stop offset=".5" stop-color="#7e71ff"/><stop offset="1" stop-color="#a857f1"/></linearGradient></defs></svg>