<svg xmlns="http://www.w3.org/2000/svg" width="256" height="256" fill="none"><circle cx="128" cy="128" r="128" fill="url(#a)"/><path fill="#46FFC8" d="M105.1 80.2 128 40.6v28.7l-22.9 10.9Zm22.9-11-22.9 11 22.9 14 22.9-14L128 40.6v28.7Zm0 29.6v19.5l-22.9-33.6 22.9 14Zm0 0 22.9-14.1-22.9 33.6V98.8Zm-77.3 88V132h36.6v9.1H59.9v13.7h27.4v9.2l-27.4-.2v14h27.4v9H50.7ZM156 132v54.9h-9.2V132h9.2ZM117 176l-14.5-44H91.9l18 54.9h14.2l18-54.9h-10.7l-14.3 44Zm54-44 14.6 44 14.3-44h10.7l-18 54.9h-14.2l-18-54.9H171Z"/><defs><linearGradient id="a" x1="47.6" x2="311.5" y1="44.4" y2="347.5" gradientUnits="userSpaceOnUse"><stop stop-color="#1A1E21"/><stop offset="1" stop-color="#06060A"/></linearGradient></defs></svg>