<svg xmlns="http://www.w3.org/2000/svg" width="256" height="256" fill="none"><circle cx="128" cy="128" r="128" fill="#EFEFEF"/><path fill="#F96D30" d="M156 209a11 11 0 1 1 0-22 11 11 0 0 1 0 22Z"/><path fill="#1D1D1F" d="M168.7 46A40.8 40.8 0 0 0 141 56.5c-9.7 8.5-14.9 18-19.5 34l-1.9 7.3c-8.8 35.8-19.4 80.4-23.3 91.2-1.8 6.3-4 9-7.6 9-2.8 0-9.8-7.3-10-7.7a11.3 11.3 0 0 0-12.2-3.2 10.7 10.7 0 0 0-7.5 10c0 1.2.2 2.4.6 3.4 1.4 5.1 8 8.5 13.8 8.5 6 0 12.1-1.3 18.8-5a77.5 77.5 0 0 0 33-35c5.2-11.2 12.8-37.3 21.2-71.2l1.9-7.3c2.7-11.5 5-19.8 7.6-27.5 2.2-6 5.2-11 9-11 3 0 4.2 2.5 4.2 6.6 0 .6 0 1.4-.2 2.1v1.4c0 5.3 4.4 9.6 10 9.6 1.3 0 2.7-.3 3.8-.8a9.7 9.7 0 0 0 6.2-8.2l.1-1.7c0-9.2-7.8-15-20.3-15Z"/><path fill="#1D1D1F" d="m107 88-3 9h58.1l2.9-9h-58Z"/></svg>