<svg xmlns="http://www.w3.org/2000/svg" width="256" height="256" fill="none"><g clip-path="url(#a)" fill-rule="evenodd"><path d="M128 256a128 128 0 1 1 0-256 128 128 0 0 1 0 256z" fill="#0090ff"/><path d="m140.2 112.6-3.9 20.5 36.5 5.1-2.6 9.6-35.8-5c-2.6 8.2-3.8 17.2-7 24.9-3.2 9-6.4 17.9-10.3 26.2A34.5 34.5 0 0 1 91 214.4a26 26 0 0 1-20.5-3.8c-2-1.3-3.8-3.9-3.8-5.8 0-2.6 1.2-5.8 3.2-7 1.2-.7 4.4 0 6.4.6 1.9 2 3.8 4.5 5 7 4 5.2 9 5.8 14.2 2 5.7-5.2 9-12.2 10.8-19.2 3.9-15.4 7.7-30.1 11-45.5v-2.5l-34-5.2 1.3-9.6 35.2 5.2 4.5-19.9-36.5-5.7L89 94.7l37.7 5.1c1.3-3.8 2-7 3.2-10.2 3.2-11.5 6.4-23 14.1-33.3s16.6-16.6 30-16c5.8 0 11.6 2 15.4 6.4.7.7 2 2 2 3.2 0 2.6 0 5.8-2 7.7-2.5 2-5.7 1.3-8.3-1.3-1.9-1.9-3.2-3.8-5.1-5.7-3.8-5.2-9.6-5.8-14-1.3a41 41 0 0 0-8.4 12.1C149.1 75 145.9 89 141.4 103l35.2 5.2-2.5 9.6-34-5.2z" fill="#fff"/></g><defs><clipPath id="a"><path fill="#fff" d="M0 0h256v256H0z"/></clipPath></defs></svg>