<svg xmlns="http://www.w3.org/2000/svg" width="256" height="256" fill="none"><circle cx="128" cy="128" r="128" fill="#fff"/><path fill="#3F75FF" d="M210 124.1a82 82 0 0 0-73.5-78c-4.7-.5-8.5 3.3-8.5 8v22.6c0 4.7 3.8 8.4 8.4 9.4a42.5 42.5 0 0 1 32.6 30.5 18 18 0 0 1 5.8-1c7.6 0 11.8 4.3 15 7.7 3 3.2 5.4 5.6 10.4 5.7 4.7 0 7-2.1 9.8-4.9ZM92.3 53.8c5.1-2.6 10.7 1.5 10.7 7.3v54.7c-7.5 0-11.5 4.2-14.7 7.6-3 3.2-5.4 5.6-10.4 5.6s-7.3-2.6-10.2-5.7c-3.2-3.4-7.3-7.7-14.8-7.7-1.8 0-3.4.2-4.9.7a82.3 82.3 0 0 1 44.3-62.5Z"/><path fill="#003F99" d="M136.4 209a7.9 7.9 0 0 1-8.4-8.1v-22.6c0-4.7 3.8-8.4 8.4-9.4a42.4 42.4 0 0 0 33.8-42.1 11 11 0 0 1 4.3-.8c5 0 7.4 2.5 10.4 5.7 3.1 3.4 7.2 7.6 14.8 7.7a17 17 0 0 0 9.3-2.7 81.8 81.8 0 0 1-72.6 72.3ZM47 127.5a82.5 82.5 0 0 0 45.3 73.7c5.1 2.6 10.7-1.5 10.7-7.3v-67.7c-5 0-7.3 2.5-10.2 5.6h-.1c-3.2 3.4-7.3 7.6-14.9 7.6-7.5 0-11.6-4.3-14.8-7.7-3-3.1-5.3-5.6-10.3-5.7-2.4 0-4.2.6-5.7 1.5Z"/></svg>