<svg xmlns="http://www.w3.org/2000/svg" width="256" height="256" fill="none"><path fill="#EC1966" d="M123 5c3-2 7-2 11 0l98 57c3 2 5 5 5 9v114c0 4-2 7-5 9l-98 57c-4 2-8 2-11 0l-99-57c-3-2-5-5-5-9V71c0-4 2-7 5-9l99-57Z"/><path fill="#D4165C" d="M19 72c0-3 3-5 6-4l104 60-2 119c0 3-3 5-6 4L21 192l-2-3V72Z"/><path fill="#BD1452" d="M237 71c0-3-3-5-6-3l-103 59-1 121c0 3 3 5 6 3l103-59 2-3-1-118Z"/><path fill="#fff" d="M181 190c0 5-8 5-8 0l-1-47c0-4 7-3 8-1l18 20v-30c0-5 2-5 5-5s4 2 4 5v44c-3 5-7 3-9 1l-17-20v33ZM92 62l19 11c13 9 25 9 30 8 3 0 11-3 14-11 4-7-2-13-5-15l-28-16c-1 0-2-1-5 1-2 2-1 4 0 5l24 14c6 4 9 7 3 11-3 3-12 5-19 0L98 55c-3-2-5-2-7 1-2 2-1 5 1 6ZM61 187v-16l22 11c2 1 6 3 8-1 3-5 0-7-5-9l-25-14v-18l27 14c4 3 9 5 11 0 2-4-2-6-6-8-12-7-33-20-38-21-3 0-5 4-5 5v57c0 3 0 5 5 6 5 0 6-4 6-6Z"/></svg>