<svg xmlns="http://www.w3.org/2000/svg" width="256" height="256" fill="none"><path d="M128 256a128 128 0 1 0 0-256 128 128 0 0 0 0 256z" fill="#000"/><path d="M179 158c0-11-5-21-15-28-7-5-16-10-32-14-29-9-29-14-29-18 0-6 9-14 24-14 9 0 25 3 25 18h26c0-7-2-14-5-20l21-21-18-18-22 21c-7-4-17-6-27-6-9 0-18 2-26 6L80 43 62 61l20 20a34 34 0 0 0 10 45c7 5 16 9 32 14 29 9 29 14 29 18 0 6-9 14-24 14-9 0-25-3-25-18H78c0 7 2 14 5 20l-21 21 18 18 22-21c7 3 17 5 27 5 9 0 18-1 26-5l21 21 18-18-20-20c3-5 5-11 5-17z" fill="#fff"/></svg>