<svg xmlns="http://www.w3.org/2000/svg" width="256" height="256" fill="none"><g clip-path="url(#a)"><mask id="b" width="256" height="256" x="0" y="0" maskUnits="userSpaceOnUse" style="mask-type:luminance"><path fill="#fff" d="M0 0h256v256H0V0Z"/></mask><g mask="url(#b)"><mask id="c" width="256" height="256" x="0" y="0" maskUnits="userSpaceOnUse" style="mask-type:luminance"><path fill="#fff" d="M256 0H0v256h256V0Z"/></mask><g mask="url(#c)"><mask id="d" width="256" height="256" x="0" y="0" maskUnits="userSpaceOnUse" style="mask-type:luminance"><path fill="#fff" d="M256 0H0v256h256V0Z"/></mask><g mask="url(#d)"><path fill="url(#e)" d="M128 256a128 128 0 1 0 0-256 128 128 0 0 0 0 256Z"/><mask id="f" width="180" height="129" x="38" y="51" maskUnits="userSpaceOnUse" style="mask-type:luminance"><path fill="#fff" d="M217.6 51.2H38.4v128h179.2v-128Z"/></mask><g mask="url(#f)"><path fill="url(#g)" d="m188.6 175.7.3 1.1v.6c.4 1 1.4 1.7 2.4 1.7h17.6a7 7 0 0 0 5.8-4.4c.3-.7 1-2.7 1.4-3.4 1.3-3.6 1.8-7.5 1-11.2-.4-2.9-3.5-10.8-4.4-13.7-.5-1.3-1-3.2-1.7-4.4a21 21 0 0 0-2.6-3.8l-8-9.2-1-1c-1.7-1.7-1-4.3-1.3-6.4a27.3 27.3 0 0 0-25.7-23.3h-9.9c-1.8 0-3.8-.3-5.5-1.2-1.7-.8-3-2.2-4.2-3.3l-7-6.7-3.6-3.3c-3-2.6-6.4-4.9-10-6.4L120.6 73c-1.8-.7-3.3-1.6-4.6-2.8-1.2-1-2.3-2.6-3.3-4l-3-3.8A21.2 21.2 0 0 0 98 55.1l-12.4-3.6c-5.2-1-10.5 1-13.9 5a13 13 0 0 0-2.5 5c-.3 1-.5 2.3-.6 3.4-.5 3.8-2.7 7.2-5.8 9.4l-.6.4c-1 .7-1 2.2-.4 3.2l.3.2 1.6 1.9c.5.3.6 1.2.3 1.8l-1 2-2.6 5.2a5.3 5.3 0 0 0 3.2 7.4l2.6 1c.8.2 1.5.8 1.9 1.5l.6 1.3.4.6a4.2 4.2 0 0 0 4.1 2.2h12.5c.4 0 .6.3.6.6 0 .4-.2.5-.5.6l-4.5.8c-.6 0-1.1.7-1.1 1.3v1a12 12 0 0 1-4.2 9l-15.1 13a53 53 0 0 0-15.6 22.5L38.7 171a5.7 5.7 0 0 0 5.6 7.7h19.1c1.3 0 2.4-1 2.4-2.2v-2.2c0-.6-.3-1.1-.7-1.5l-1-1c-.5-.5-.8-1.4-.5-2.2.2-1 1.2-1.5 2.2-1.5h5c1.3 0 2.4-1 2.4-2.3v-3.5c0-2.6 1.4-5.2 3.4-6.7l.5-.4a24.6 24.6 0 0 0 10.4-20c0-4 1.7-7.6 5-10.1l3.8-3c.4-.3.6-.8.5-1.3-.8-3.3-1.8-6.5-3-9.7a22.5 22.5 0 0 1 12.4-29c.3-.1.7 0 .8.3.1.2 0 .5-.3.8a22.9 22.9 0 0 0-10.1 27.1l1.6 4.8c1.7 5 2 10.5.6 15.5l-7.2 26-.3.7a12 12 0 0 0 1.1 9.6l.5 1c.7 1.2.6 3 .6 4.4v3.3c0 .7 0 1.7.6 2.3.5.6 1.4.8 2.1.7H118c1.2 0 2.2-1.3 2-2.5v-1.6c0-.4 0-.8-.2-1.1 0-.4-.5-.7-.7-1l-1.2-1.1a3 3 0 0 1-.3-4l2.5-3.5 7-9.4a25 25 0 0 0 3.4-19.7c-.4-2-1.6-4.4-2.2-6.2a184 184 0 0 1-3.6-9.5c-1-5.4-1-11-.2-16.4 0-.4.2-.6.6-.6.3 0 .6.2.6.5l.6 9.5c.2 3.2 1 6.2 2.3 9.3l3.7 9.3c.6 1.7 1.1 3.5 1.5 5.2a3.8 3.8 0 0 0 2.4 3l6 2c2.2.6 4.4-.4 5.4-2.4 0-.3.4-.7.5-1 1.3-2.5 3.3-4.9 5.1-7.2 1.7-2.2 3.6-4.3 5.4-6.3.2-.2.6-.2.9 0 .2.3.3.6 0 .8-2.1 3.5-4.7 7.1-7 10.4-2.7 4-4.7 8.7-5.5 13.5l-2.5 14.9c-.2 1.4-.3 3.4-1.2 4.6-.7 1.3-2.3 2.5-3.5 3.4l-.9.7c-.6.7-.9 1.5-.6 2.4l.8 3c.3.8 1.1 1.2 2.1 1.2h16.4c1.6 0 3.3-.4 4.5-1.4 1.8-1.2 2.5-2.8 3.1-4.7l5.6-14.3c2.1-4 5-7.7 8.5-10.6a33 33 0 0 0 9.6-12.9c0-.2.5-.5.8-.4.3 0 .5.4.5.8-.8 4.2-2.9 8.1-5.8 11.4a7.3 7.3 0 0 0-1.8 4.6v3.7a7.4 7.4 0 0 0 2.5 4.5l1 .8 3.7 3.3 1.8 1.6c.5.5.9 1 1.1 1.6a3 3 0 0 1-1.3 3.4l-2 1.5-.8.7c-.6.6-.8 1.5-.6 2.2l.3 1.2h.3v-.1Z"/></g></g></g></g></g><defs><radialGradient id="e" cx="0" cy="0" r="1" gradientTransform="rotate(90 0 128) scale(128)" gradientUnits="userSpaceOnUse"><stop offset=".4" stop-color="#001B1D"/><stop offset=".8" stop-color="#0A120F"/></radialGradient><linearGradient id="g" x1="45" x2="217" y1="83.5" y2="190.5" gradientUnits="userSpaceOnUse"><stop stop-color="#4CFB8E"/><stop offset="1" stop-color="#02C8FF"/></linearGradient><clipPath id="a"><path fill="#fff" d="M0 0h256v256H0z"/></clipPath></defs></svg>