<svg xmlns="http://www.w3.org/2000/svg" width="256" height="256" fill="none"><circle cx="128" cy="128" r="128" fill="url(#a)"/><path fill="url(#b)" d="M193.6 97.2a45 45 0 0 0-4-27.5c-4-8-10.5-14-19.4-18.3-6-3-13.1-4.8-21-5.8l2.2-15.7h-10.6l-2 15.1h-5.4l2.2-15.1H125L122.7 46c-6.7 1-13.2 2.8-19.2 5.3a65.6 65.6 0 0 0-25.4 18 51.2 51.2 0 0 0-12 26.7c-1.6 12.3.9 22.1 7.7 29.6 6.8 7.4 18.2 13.3 35.5 16.7l-4.3 31a17.3 17.3 0 0 1-8.4-7.8 22.8 22.8 0 0 1-2.1-12.6H54c-1.6 13-.2 23.7 4.1 32.3 4.4 8.7 11.4 15 21.1 19.3 6 2.7 13 4.5 20.6 5.5l-2.2 16H108l2.1-15.2 5.3.1-2 15.1H124l2.1-15.6c9-.8 17.1-2.6 24.4-5.4 10.2-3.9 18.5-9.5 24.7-16.8a51.2 51.2 0 0 0 11.6-26.8c1.6-12.8-1-23.2-7.9-31.5-6.9-8.2-19.9-15-38.9-18.7l4.1-29.6c3 1.3 5.8 3.5 7.2 6.1a18 18 0 0 1 1.7 9.4h40.6Zm-78.9 5.9a10 10 0 0 1-4-10c.4-2.6 1.4-4.8 3.2-6.8 1-1 2.2-2 3.6-2.8l-2.8 19.6Zm5.7 72.9c-1.4 0-4 0-5.3-.2l4.4-31 5 1.2-4.1 30Zm14.3-26.7c4.3 1.7 6 3.3 7.4 5.2 1.3 2 1.8 4.3 1.4 7-.4 2.8-1.6 5.3-3.6 7.5-2 2.1-4.9 4-8.7 5.2l3.5-25Zm-5-40.2c-1.8-.4-3.5-.9-5-1.4l3.8-27.5 5.3-.2-4 29.1Z"/><defs><radialGradient id="a" cx="0" cy="0" r="1" gradientTransform="rotate(90 0 128) scale(128)" gradientUnits="userSpaceOnUse"><stop offset=".4" stop-color="#001B1D"/><stop offset=".8" stop-color="#0A120F"/></radialGradient><linearGradient id="b" x1="78" x2="201.8" y1="70" y2="124.9" gradientUnits="userSpaceOnUse"><stop stop-color="#4BFA8C"/><stop offset="1" stop-color="#1EC3F0"/></linearGradient></defs></svg>