<svg xmlns="http://www.w3.org/2000/svg" width="256" height="256" fill="none"><circle cx="128" cy="128" r="128" fill="#16478E"/><path fill="#fff" d="M207.8 104.9c.3.9 1.6.6 1.6-.3l-.2-21.3v-.2a.5.5 0 0 0-.5-.3c-18.4.2-34.9.3-54.2.3-11 0-19.7-.3-25.5-.3-1.7 0-2.3.5-2.3 1.9 0 4.8 16.6-1 16.6 9.7v9.8c0 1 1 1.7 1.8 1.3a24 24 0 0 1 8.5-1.5c6.8 0 11.2 2.9 15.7 7.6.9.8 2.4.2 2.4-1V87.9c0-.8.6-1.4 1.4-1.4 11.1.4 22.9 1.5 30.4 10.6 2.3 2.8 3.5 5.6 4.3 7.8Zm-71.5 81.9c-1.4 0-1.7-.8-1.7-1.5 0-3.2 8.7-.3 8.7-7.8v-47.4c0-6.7-4.6-9.1-8.3-9.1-3.4 0-3.9-.3-6 .7-2.2 1-4.5-1.2-1-3.2a56.5 56.5 0 0 1 20.7-7.3c15 0 23 9.8 23 23v43.3c0 4 2.5 5 4.8 5.6 9.2.6 21.3-9.2 27.1-16.3 2.4-3 3.6-5.7 4.3-7.8.3-1 1.6-.7 1.6.2v27.3a.5.5 0 0 1-.5.3h-72.7Z"/><path fill="#fff" d="M192.4 149.5c.2 1.8.2 3.5 1.6 3.5.8 0 1.3-.2 1.3-1.5v-37.9c0-1.3-.5-1.5-1.3-1.5-1.4 0-1.4 1.8-1.6 3.6-1 7-7.2 12.9-15.6 14.4-.3 0-.4.3-.4.6l.2 2.5c0 .2.2.4.5.4 8 1.7 14.1 7.6 15.3 15.9ZM83 186.8c1.5 0 2.1-1 2.9-2.9l32.9-79.2c8.6-21.3 19.7-16.7 19.7-20.7 0-.9-1.1-1.2-2.5-1.2h-32.2c-2 0-2.5.5-2.5 1.7 0 4 13-.8 13 14.4 0 7-5 15.2-18.2 48.8h-.3c-18.7-47.6-21.1-52-21.1-54.9 0-7.3 9.2-5.6 9.2-8.5 0-1.2-1-1.5-3.3-1.5H33.4c-1.2 0-1.8.8-1.8 1.7 0 3.3 6.7-.6 10.6 9l38 90.4c.7 1.8 1.3 2.9 2.8 2.9Z"/></svg>