<svg xmlns="http://www.w3.org/2000/svg" width="256" height="256" fill="none"><circle cx="128" cy="128" r="128" fill="url(#a)"/><path fill="url(#b)" d="M144.27 117.63a10.3 10.3 0 0 0-4-6.7c-12-10.6-40.6-11.3-73.3-1.1l40.5-23.4c29.2-4.1 36 14.2 36.8 31.2Z"/><path fill="url(#c)" d="M140.27 111.03a10.3 10.3 0 0 0-11.5-.8l-50.1 29.1a15.59 15.59 0 0 1-17.5-1 15.7 15.7 0 0 1-4.1-4.6 15.8 15.8 0 0 1-1.5-12 15.7 15.7 0 0 1 2.7-5.6 15.7 15.7 0 0 1 4.7-4l4-2.3c32.7-10.2 61.2-9.5 73.3 1.1v.1Z"/><path fill="url(#d)" d="m175.97 83.23-.5 94.2a15.7 15.7 0 0 1-4.7 11 15.6 15.6 0 0 1-11 4.6 15.6 15.6 0 0 1-11-4.7 15.7 15.7 0 0 1-4.6-11l.3-58c-.01-.6-.08-1.2-.2-1.8-.8-17-7.6-35.2-36.9-31.1l37.2-21.6a20.9 20.9 0 0 1 21 0 21 21 0 0 1 7.6 7.8 21.01 21.01 0 0 1 2.8 10.6Z"/><path fill="url(#e)" d="M84.27 175.43a47 47 0 0 0 25 14.3 5.02 5.02 0 0 0 5.68-2.58c.33-.66.5-1.39.52-2.12v-25.5c0-.8 0-2.3-.5-3-.4-.7-1-1.4-1.7-1.8-.7-.4-1.8-.6-2.6-.6a5 5 0 0 0-2.4.6l-22.8 13.2a5 5 0 0 0-2.3 5.6 4.9 4.9 0 0 0 1 2l.1-.1Z"/><defs><linearGradient id="b" x1="113.57" x2="106.47" y1="81.43" y2="110.23" gradientUnits="userSpaceOnUse"><stop offset=".1" stop-color="#2C7AA8"/><stop offset="1" stop-color="#5FFEAE"/></linearGradient><linearGradient id="c" x1="111.37" x2="79.27" y1="82.93" y2="161.93" gradientUnits="userSpaceOnUse"><stop offset=".1" stop-color="#267DAF"/><stop offset="1" stop-color="#4CFB8E"/></linearGradient><linearGradient id="d" x1="137.57" x2="165.57" y1="66.33" y2="182.23" gradientUnits="userSpaceOnUse"><stop offset=".1" stop-color="#4DFC8D"/><stop offset="1" stop-color="#02C8FF"/></linearGradient><linearGradient id="e" x1="36.77" x2="146.47" y1="126.83" y2="197.13" gradientUnits="userSpaceOnUse"><stop offset=".1" stop-color="#3EFE99"/><stop offset="1" stop-color="#2AABF0"/></linearGradient><radialGradient id="a" cx="0" cy="0" r="1" gradientTransform="rotate(90 0 128) scale(128)" gradientUnits="userSpaceOnUse"><stop offset=".4" stop-color="#001B1D"/><stop offset=".8" stop-color="#0A120F"/></radialGradient></defs></svg>