<svg xmlns="http://www.w3.org/2000/svg" width="256" height="256" fill="none"><circle cx="128" cy="128" r="128" fill="#fff"/><path fill="#000" d="M126.4 109.5H87V97.3c0-7.7-.3-12.6-1-14.5-.8-2-2.6-3-5.4-3-2.4 0-4 .9-5 2.6-.8 1.6-1.3 5.9-1.3 12.8v64.6c0 6 .5 10 1.3 12 1 1.8 2.7 2.8 5.3 2.8 2.8 0 4.8-1 5.8-3.3 1-2.1 1.6-6.3 1.6-12.6v-16h-8v-20.4h46v72.2h-24.7L98 185a26 26 0 0 1-10.2 9.4c-4 2-8.9 3-14.4 3a41.1 41.1 0 0 1-31.7-14.8c-3-4.2-4.8-8.6-5.6-13.3-.7-4.6-1.1-11.5-1.1-20.8v-40c0-12.9.8-22.2 2.3-28 1.6-5.8 6-11.2 13.4-16 7.4-4.9 17-7.3 28.7-7.3 11.5 0 21 2.1 28.7 6.3a31.2 31.2 0 0 1 14.8 15 71.3 71.3 0 0 1 3.5 25.3v5.8Z"/><path fill="#FD0000" d="M218.6 102.2H182v-10c0-4.6-.4-7.6-1.4-8.9-.9-1.2-2.4-1.9-4.6-1.9-2.4 0-4.2.9-5.4 2.6a13.6 13.6 0 0 0-1.8 7.8c0 4.5.7 7.9 2 10.2 1.3 2.2 5 5 11.2 8.2 17.5 9.3 28.5 16.8 33 22.8 4.6 6 6.9 15.5 6.9 28.7 0 9.6-1.3 16.6-3.8 21.2a28.7 28.7 0 0 1-14.7 11.4 64 64 0 0 1-25.2 4.6 62.3 62.3 0 0 1-27-5.3c-7.4-3.6-12.3-8-14.6-13.6a62.4 62.4 0 0 1-3.4-23.3v-8.8h36.5v16.3c0 5 .5 8.3 1.6 9.8 1 1.4 2.8 2.1 5.4 2.1 2.6 0 4.6-.9 5.9-2.7 1.2-1.8 1.9-4.6 1.9-8.2 0-7.9-1.2-13-3.7-15.5s-8.6-6.5-18.4-12.2c-9.7-5.8-17.5-10-20.6-12.6a29.3 29.3 0 0 1-8-10.8c-2-4.6-3-10.5-3-17.6 0-10.3 1.4-19.5 4.4-24.3A29 29 0 0 1 149.5 61c6.6-2.7 15.8-4 25.2-4a69 69 0 0 1 26 4.4c7.3 3 12 6.6 14.4 11.1a61.8 61.8 0 0 1 3.5 24.4v5.3Z"/></svg>