<svg xmlns="http://www.w3.org/2000/svg" width="256" height="256" fill="none"><g clip-path="url(#a)"><path d="M128 256a128 128 0 1 0 0-256 128 128 0 0 0 0 256z" fill="url(#b)"/><g stroke="#000" stroke-width="10" stroke-miterlimit="22.4" stroke-linejoin="round"><path d="M145 57v33h-34V57m0 142v-33h34v33m-33-72h69v39H75V90h106" stroke-linecap="round"/><path d="M128 235a107 107 0 1 0 0-214 107 107 0 0 0 0 214z"/></g></g><defs><linearGradient id="b" x1="36" y1="33" x2="224" y2="212.5" gradientUnits="userSpaceOnUse"><stop stop-color="#af8a3c"/><stop offset="1" stop-color="#eed796"/></linearGradient><clipPath id="a"><path fill="#fff" d="M0 0h256v256H0z"/></clipPath></defs></svg>