<svg xmlns="http://www.w3.org/2000/svg" width="256" height="256" fill="none"><path d="M128 255a127 127 0 1 0 0-254 127 127 0 0 0 0 254z" fill="#fff"/><path d="M75 146c8 0 15-3 21-7L49 92a33 33 0 0 0 26 54zm139-34c0-7-2-14-7-20l-47 47a33 33 0 0 0 54-27zm24-50-21 20c17 20 14 50-6 67a47 47 0 0 1-60 0l-23 22-23-22a47 47 0 0 1-66-6 47 47 0 0 1 0-61L29 72 19 62a128 128 0 1 0 219 0zm-17-22C172-11 91-13 40 35a146 146 0 0 0-5 5l-9 10 102 102L230 50l-9-10zm-93-23c30 0 58 11 79 32l-79 79-79-79c21-21 49-32 79-32z" fill="#00193c"/></svg>