<svg xmlns="http://www.w3.org/2000/svg" width="256" height="256" fill="none"><circle cx="128" cy="128" r="128" fill="#fff"/><path fill="#FFC107" d="M222 108.5h-93.7v38.3h54.1a57.4 57.4 0 1 1-16-62l27.1-27a95.7 95.7 0 1 0 28.5 50.8Z"/><path fill="#FF3D00" d="m43.6 83.1 31.5 23a57.4 57.4 0 0 1 91.3-21.3l27.1-27A95.3 95.3 0 0 0 43.6 83Z"/><path fill="#4CAF50" d="M128.3 223.4c24.7 0 47.2-9.5 64.2-24.8L163 173.5A57.4 57.4 0 0 1 74.3 147l-31.2 24c15.8 31 48 52.3 85.2 52.3Z"/><path fill="#1976D2" d="M222 108.5h-93.7v38.3h54.1a57.6 57.6 0 0 1-19.5 26.7l29.6 25c-2 2 31.6-23 31.6-70.8 0-6.4-.9-13.1-2.1-19.2Z"/></svg>