<svg xmlns="http://www.w3.org/2000/svg" width="256" height="256" fill="none"><circle cx="128" cy="128" r="128" fill="#00E678"/><path fill="#fff" d="M151.7 92.4h-37.2c-23.2 0-42 19.2-42 43a42.4 42.4 0 0 0 42 42.8h27.3c4.7 0 8.5-3.9 8.5-8.6 0-4.8-3.8-8.6-8.5-8.6h-24c-15.4 0-27.9-11.4-27.9-25.6 0-14.2 12.5-25.8 27.8-25.8H160h-42.3H160c0 10-8.7 18.2-19.3 18.2.3 0-.4 0 0 0h-25.8a7.6 7.6 0 0 0-7.5 7.7c0 4.2 3.3 7.7 7.5 7.7h27a26.2 26.2 0 0 1 25.8 26.4 26.2 26.2 0 0 1-25.9 26.4h-27.3A60 60 0 0 1 55 135.3a60 60 0 0 1 59.5-60.7h54.4c0 9.8-7.7 17.7-17.2 17.8Zm64.6-8.7h-10.4V95c0 1-.7 1.7-1.7 1.7h-9.3c-1 0-1.8-.8-1.8-1.7V83.7h-10c-1 0-1.8-.8-1.8-1.7v-8.4c0-1 .8-1.7 1.8-1.7h10V60.7c0-1 .8-1.7 1.8-1.7h9.3c1 0 1.7.8 1.7 1.7V72h10.4c1 0 1.7.7 1.7 1.7V82c0 1-.8 1.7-1.7 1.7Z"/></svg>