<svg xmlns="http://www.w3.org/2000/svg" width="256" height="256" fill="none"><circle cx="128" cy="128" r="128" fill="#6747ED"/><path fill="#fff" fill-rule="evenodd" d="M126.1 144.5a34.1 34.1 0 1 1 0-68.2 34.1 34.1 0 0 1 0 68.2Zm0-85.3a51.2 51.2 0 1 1 0 102.4 51.2 51.2 0 0 1 0-102.4Zm48.8 105a8 8 0 0 1 0 12l-34.1 34.2a8 8 0 0 1-12 0 8 8 0 0 1 0-12l34.1-34.1a8 8 0 0 1 12 0Zm19.8-96.5c0 4.8-3.8 8.6-8.6 8.6a8.4 8.4 0 0 1-8.5-8.6c0-4.8 3.7-8.5 8.5-8.5 4.6 0 8.6 3.7 8.6 8.5Z" clip-rule="evenodd"/></svg>