<svg xmlns="http://www.w3.org/2000/svg" width="256" height="256" fill="none"><circle cx="128" cy="128" r="128" fill="url(#a)"/><path fill="url(#b)" d="M163.2 148.2c0-18.7-11.1-25-33.5-27.6-16-2.2-19.2-6.4-19.2-14 0-7.5 5.2-12.3 16-12.3 9.6 0 14.8 3.2 17.5 11.3a4.1 4.1 0 0 0 3.7 2.7h8.6c2.2 0 3.7-1.7 3.7-3.7v-.7a26.7 26.7 0 0 0-24-21.7V69.4c0-2.2-1.6-3.9-4.3-4.4h-8c-2.1 0-3.6 1.7-4.3 4.4v12.1c-16 2.2-26 13-26 26.3 0 17.5 10.7 24.4 33 27.1 15 2.7 19.8 5.9 19.8 14.5s-7.6 14.3-17.7 14.3c-13.8 0-18.7-5.9-20.2-13.8-.5-2.2-2.2-3.2-3.7-3.2h-9.1a3.6 3.6 0 0 0-3.7 3.7v.5c2 13.3 10.6 23 28.3 25.6v12.8c0 2.2 1.5 3.7 4.2 4.4h8c2.1 0 3.8-1.7 4.3-4.4v-12.8c16-2.7 26.6-13.8 26.6-28.3Zm-62.3 56A79.4 79.4 0 0 1 53.4 102a78.8 78.8 0 0 1 47.5-47.5c2-1 3.2-2.7 3.2-5.4v-7.4c0-2.2-1.2-3.7-3.2-4.2-.7 0-1.7 0-2.2.5a95.9 95.9 0 0 0 0 182.9c2.2 1 4.2 0 4.7-2.2.7-.5.7-1 .7-2V209c0-1.5-1.7-3.7-3.2-4.7ZM157.3 38c-2-1.2-4.2 0-4.7 2-.5.7-.5 1.2-.5 2.2v7.4c0 2.2 1.5 4.4 3.2 5.4a79.4 79.4 0 0 1 47.3 102.4 78.9 78.9 0 0 1-47.5 47.5c-2 1-3 2.7-3 5.4v7.4c0 2.2 1 3.7 3.2 4.2.5 0 1.5 0 2-.5a95.9 95.9 0 0 0 38.9-159.6A96.8 96.8 0 0 0 157.3 38Z"/><defs><radialGradient id="a" cx="0" cy="0" r="1" gradientTransform="rotate(90 0 128) scale(128)" gradientUnits="userSpaceOnUse"><stop offset=".4" stop-color="#001B1D"/><stop offset=".8" stop-color="#0A120F"/></radialGradient><linearGradient id="b" x1="59.9" x2="190" y1="64.5" y2="200.5" gradientUnits="userSpaceOnUse"><stop stop-color="#4BFA8C"/><stop offset="1" stop-color="#1EC3F0"/></linearGradient></defs></svg>