<svg xmlns="http://www.w3.org/2000/svg" width="256" height="256" fill="none"><circle cx="128" cy="128" r="128" fill="#BA5400"/><path fill="#D9EAD7" d="m92 193 6 8c6 7 11 19 21 20 6 1 19 1 24-2s14-19 17-23c2-3 4-5 3-6 0-1-2-3-4-1-3 3-16 11-19 7-4-5-4-8-13-8s-8 5-12 9c-3 2-12-2-18-6-5-4-6 0-5 2Zm-35-77-6 8c-5 7-15 16-13 25 1 7 5 20 10 23 4 3 22 7 26 9 4 1 6 2 8 1 1 0 1-2-1-4-3-2-15-12-12-16 3-6 6-6 3-14-3-9-7-7-12-10-3-2-1-12 1-19 2-5-3-5-4-3Zm62-58-9-3c-9-2-20-9-29-5-5 4-16 11-18 17-2 4 0 23-1 28l1 7c1 1 3 1 4-2 1-4 7-18 12-17 6 2 7 5 14-1 8-5 4-9 6-14 1-4 11-5 18-5 6 0 4-4 2-5Zm74 42V90c0-9 3-22-4-29-5-4-16-12-21-12-5-1-22 7-27 8l-7 3c0 1 0 3 3 3 4 0 19 1 20 6 0 7-2 8 5 14 8 5 10 0 15 0 4 0 9 9 11 16 2 5 5 3 5 1Zm-16 83 9-3c9-4 22-5 26-14 3-6 7-18 5-23-1-6-13-20-16-24-2-3-3-5-5-5-1 0-3 1-2 4 2 4 5 18 0 20-5 3-8 1-10 10-3 8 2 9 4 14 1 4-6 11-12 16-5 3-1 5 1 5Z"/></svg>