<svg xmlns="http://www.w3.org/2000/svg" width="256" height="256" fill="none"><circle cx="128" cy="128" r="128" fill="url(#a)"/><path fill="#fff" fill-rule="evenodd" d="M214 89a88 88 0 0 1 6 33h-27a60 60 0 0 0-17-42 58 58 0 0 0-41-17V35a84 84 0 0 1 60 25 87 87 0 0 1 19 29Zm-19 107a85 85 0 0 1-60 25v-28a58 58 0 0 0 58-59h27c0 23-9 45-25 62ZM37 134a88 88 0 0 0 25 62 85 85 0 0 0 60 25v-28a57 57 0 0 1-41-17 59 59 0 0 1-17-42H37Zm53-92a84 84 0 0 1 32-7v28a57 57 0 0 0-41 17 59 59 0 0 0-17 42H37a88 88 0 0 1 25-62c8-8 17-14 28-18Z" clip-rule="evenodd"/><defs><linearGradient id="a" x1="128" x2="128" y1="0" y2="256" gradientUnits="userSpaceOnUse"><stop stop-color="#072A20"/><stop offset="1" stop-color="#001B1C"/></linearGradient></defs></svg>