<svg xmlns="http://www.w3.org/2000/svg" width="256" height="256" fill="none"><path d="M128 256a128 128 0 1 0 0-256 128 128 0 0 0 0 256z" fill="#490082"/><path d="M47.4 67.1c-2.5.2-4.5.6-4.4 1l7.5 16.8 3.3.3A47.3 47.3 0 0 1 86 98.7a41 41 0 0 1 11.3 20.2c0 .2-1.1.2-6.3.2l-6.7.1c-.3.1-1 1.7-4 8.6l-3.7 8.6c-.1.4 1 .7 4.1 1.2l8.8.2 7.6.1-.4 1.6A45 45 0 0 1 52.5 171h-1.2l-3.8 8.7a38 38 0 0 0-3.6 8.8c1 .3 3.2.5 8.3.5 6.5 0 9.7-.3 15-1.4a67 67 0 0 0 48.4-37 58 58 0 0 0 3.8-12l.1-.6H136v.3a56 56 0 0 0 4.7 14.3 65.3 65.3 0 0 0 34.8 31.5 75 75 0 0 0 29.7 5.3c4.3 0 7.7-.6 7.5-1a2909 2909 0 0 0-7.4-17l-3.3-.1a52.9 52.9 0 0 1-31.5-11.6 42.9 42.9 0 0 1-14-21.3v-.4h6.2l6.4-.2c.2-.1 7.6-16.9 7.6-17.2 0-.2-1.9-.8-3.6-1-1.2-.3-2.8-.3-9.1-.4h-7.6l.3-1a46 46 0 0 1 33.8-31c3.7-1 7.3-1.4 12-1.6 2.8-.1 3.1-.2 3.3-.4a295.5 295.5 0 0 0 7.2-16.8c-.3-.2-2.4-.6-4-.7a71.5 71.5 0 0 0-56 19.6 58.6 58.6 0 0 0-16.9 30.8l-.2 1h-16.1l-.1-.2-.4-1.9a59.2 59.2 0 0 0-18.6-31.8 71.6 71.6 0 0 0-53.3-18z" fill="#fff"/></svg>