<svg xmlns="http://www.w3.org/2000/svg" width="256" height="256" fill="none"><circle cx="128" cy="128" r="128" fill="#ED1C24"/><path fill="#fff" fill-rule="evenodd" d="M126.492 72.253h-8.225a2.737 2.737 0 0 1-2.732-2.742c0-1.57 1.216-2.787 2.732-2.787h8.216l.009-24.901h-19.645l4.784 34.896H84.124s10.35 67.533-17.53 123.881c16.632.063 36.676 0 36.676 0 19.219-51.882 17.077-58.055 17.077-58.055h6.136l.009-23.195h-6.209c-1.58 0-2.814-1.261-2.814-2.741 0-1.58 1.234-2.833 2.814-2.833h6.2l.009-41.523Zm-17.194 75.403 1.989 9.541c.362 1.362-.437 2.851-1.889 3.178-1.353.399-2.769-.418-3.15-1.834l-2.261-8.243h-2.442l-2.242 8.243c-.39 1.416-1.77 2.233-3.159 1.834-1.453-.327-2.251-1.816-1.889-3.178l2.46-9.069c-2.341-2.233-3.294-4.593-3.286-7.099v-37.602c0-5.11 4.25-9.323 9.442-9.305 5.093.028 9.223 4.23 9.223 9.369v37.593a9.012 9.012 0 0 1-2.796 6.572ZM98.649 119.16v21.869c0 1.126.4 2.188 1.153 2.95.808.763 1.834 1.19 2.86 1.19 1.125.027 2.17-.454 3.033-1.253.744-.763 1.188-1.779 1.188-2.832V119.16h-8.234Zm8.234-5.22v-10.476c0-2.306-1.806-4.14-4.03-4.14-2.315 0-4.194 1.834-4.204 4.103v10.513h8.234Zm22.224 127.294c61.967 0 112.242-50.284 112.242-112.252 0-62.003-50.275-112.26-112.242-112.26-62.05 0-112.279 50.257-112.279 112.26 0 61.968 50.23 112.252 112.279 112.252ZM21.975 128.955C21.975 69.802 69.9 21.86 129.097 21.86c59.117 0 107.078 47.942 107.078 107.095s-47.961 107.122-107.078 107.122c-59.198 0-107.122-47.969-107.122-107.122Zm110.073-56.702h8.007a2.735 2.735 0 0 0 2.75-2.742c0-1.57-1.207-2.787-2.75-2.787h-8.007V41.823h19.473l-4.758 34.896h27.589s-10.467 67.533 17.449 123.881c-16.659.063-36.731 0-36.731 0-19.3-51.882-17.112-58.055-17.112-58.055h-5.91V119.35h6.055c1.552 0 2.787-1.261 2.787-2.741 0-1.58-1.235-2.833-2.787-2.833h-5.71l-.345-41.523Zm34.987 44.265L155.77 94.594l-11.203 21.924 8.66 16.876v24.439c0 1.461 1.163 2.605 2.56 2.605 1.453 0 2.642-1.144 2.642-2.605V133.34l8.606-16.822Zm-11.265 10.721-5.493-10.721 5.493-10.721 5.519 10.721-5.519 10.721Z" clip-rule="evenodd"/></svg>