<svg xmlns="http://www.w3.org/2000/svg" width="256" height="256" fill="none"><circle cx="128" cy="128" r="128" fill="#D631B9"/><path fill="#2563C1" d="M127.2 62h26.9c3.6 0 7 2.1 8.2 5.3l23.6 59.2v1.4l-.2.3-23.4 60.4a8.8 8.8 0 0 1-8.3 5.4h-26.8c-1.5 0-2.6-1.4-2-2.7l24.1-64.8-24.1-61.7c-.5-1.4.5-2.8 2-2.8ZM57.2 62h26.9c3.6 0 7 2.1 8.2 5.3l23.6 59.2v1.4l-.2.3-23.4 60.4A8.8 8.8 0 0 1 84 194H57.2c-1.5 0-2.6-1.4-2-2.7l24.1-64.8-24.1-61.7c-.5-1.4.5-2.8 2-2.8Z"/><path fill="#D631B9" d="M145.8 114H108v29h37.8l6.2-15-6.2-14Z"/><path fill="#fff" d="M143.2 62h26.9c3.6 0 7 2.1 8.2 5.3l23.6 59.2v1.4l-.2.3-23.4 60.4a8.8 8.8 0 0 1-8.3 5.4h-26.8c-1.5 0-2.6-1.4-2-2.7l24.1-64.8-24.1-61.7c-.5-1.4.5-2.8 2-2.8ZM73.2 62h26.9c3.6 0 7 2.1 8.2 5.3l23.6 59.2v1.4l-.2.3-23.4 60.4a8.8 8.8 0 0 1-8.3 5.4H73.2c-1.5 0-2.6-1.4-2-2.7l24.1-64.8-24.1-61.7c-.5-1.4.5-2.8 2-2.8Z"/><path fill="#fff" d="M161.7 114H123v29h38.7l6.3-15-6.3-14Z"/></svg>