<svg xmlns="http://www.w3.org/2000/svg" width="256" height="256" fill="none"><circle cx="128" cy="128" r="128" fill="#0F2C20"/><path fill="#fff" d="m209 127-33-57a44 44 0 0 0-38-22h-24a38 38 0 0 0-33 19l-34 58a39 39 0 0 0 0 39l5 8 7 14a37 37 0 0 0 34 22h69a39 39 0 0 0 34-21l4-6 9-16c7-12 7-26 0-38ZM93 200a29 29 0 0 1-27-17 29 29 0 0 1 1-27l41-70a6 6 0 0 1 5-3 6 6 0 0 1 5 3l5 10-37 65a15 15 0 0 0 12 22h79a37 37 0 0 0 15-3l-2 4a32 32 0 0 1-28 16H93Zm61-51h-53l27-46 26 46Zm25-9a6 6 0 0 1-6 9h-11l-38-66a13 13 0 0 0-11-7h-1a13 13 0 0 0-11 7l-40 69-5 13-3-5a31 31 0 0 1 0-31l34-58a31 31 0 0 1 27-15 29 29 0 0 1 23 11l42 72v1Zm13 31a30 30 0 0 1-15 4H98a7 7 0 0 1-6-3 7 7 0 0 1 0-7l5-8h76a14 14 0 0 0 12-21l-42-73-7-7h2a37 37 0 0 1 32 18l33 57a30 30 0 0 1-1 31c-3 4-6 7-10 9Z"/></svg>