<svg xmlns="http://www.w3.org/2000/svg" width="400" height="400" fill="none"><circle cx="200" cy="200" r="200" fill="#060716"/><g clip-path="url(#a)"><path d="M283.5 119c-18 0-37.7 9.8-58.5 29.2a257 257 0 0 0-24.8 26.8l21.2 24.2c6-7.6 14.6-17.9 24.6-27.1 18.4-17.3 30.5-20.8 37.4-20.8 26 0 47 21.8 47 48.7 0 26.7-21 48.5-47 48.7-1.2 0-2.7-.1-4.5-.5a58 58 0 0 0 23.4 6c47.5 0 57-32.8 57.4-35.2 1.4-6 2.2-12.3 2.2-18.8 0-44.8-35.2-81.2-78.4-81.2z" fill="url(#b)"/><path d="M117.4 281c18 0 37.7-9.8 58.5-29.2a257 257 0 0 0 24.8-26.8l-21.2-24.2c-6 7.6-14.6 17.9-24.6 27.1-18.4 17.2-30.6 20.8-37.4 20.8-26 0-47-21.8-47-48.7 0-26.7 21-48.5 47-48.7 1.3 0 2.7.1 4.5.5a58 58 0 0 0-23.4-6c-47.5-.1-56.9 32.8-57.4 35.2-1.4 6-2.2 12.3-2.2 18.8 0 44.8 35.1 81.2 78.4 81.2z" fill="url(#c)"/><path fill-rule="evenodd" d="M153.6 172.8c-5.2-5-30.6-25.7-55-26.4-43.3-1-56 30.4-57.2 34.5a79.5 79.5 0 0 1 76.1-61.9c30 0 60.3 29.5 82.7 56h.1l21.2 24.1s12.6 14.9 25.9 28c5.2 5 30.5 25.3 54.8 26 44.6 1.3 57-32 57.5-34.5a79.3 79.3 0 0 1-76.1 62.2c-30 0-60.3-29.4-82.8-56l-.1.2-21.2-24.2c.1 0-12.5-15-25.9-28z" fill="#29abe2"/></g><defs><linearGradient id="b" x1="241.4" y1="131.8" x2="352.4" y2="243.7" gradientUnits="userSpaceOnUse"><stop offset=".2" stop-color="#f15a24"/><stop offset=".7" stop-color="#fbb03b"/></linearGradient><linearGradient id="c" x1="159.6" y1="268.2" x2="48.5" y2="156.3" gradientUnits="userSpaceOnUse"><stop offset=".2" stop-color="#ed1e79"/><stop offset=".9" stop-color="#522785"/></linearGradient><clipPath id="a"><path fill="#fff" transform="translate(39 119)" d="M0 0h323v162H0z"/></clipPath></defs></svg>