<svg xmlns="http://www.w3.org/2000/svg" width="256" height="256" fill="none"><g clip-path="url(#a)"><path d="M128 256a128 128 0 1 0 0-256 128 128 0 0 0 0 256z" fill="#18a0b1"/><g clip-path="url(#b)" fill="#fff"><path d="M194 76a14 14 0 1 0 0-28 14 14 0 0 0 0 28zM88 152a46 46 0 0 1 63-64l11-11a61 61 0 0 0-40-10 61 61 0 0 0-55 56c-1 14 2 28 10 40l11-11zm80-47c5 9 7 19 6 29a46 46 0 0 1-13 27c-8 7-17 12-27 13a46 46 0 0 1-29-6l-11 11a61 61 0 0 0 40 11c14-2 27-8 37-18a61 61 0 0 0 8-78l-11 11zM62 208a14 14 0 1 0 0-28 14 14 0 0 0 0 28z"/></g></g><defs><clipPath id="a"><path fill="#fff" d="M0 0h256v256H0z"/></clipPath><clipPath id="b"><path fill="#fff" transform="translate(48 48)" d="M0 0h160v160H0z"/></clipPath></defs></svg>