<svg xmlns="http://www.w3.org/2000/svg" width="256" height="256" fill="none"><g clip-path="url(#a)"><path d="M128 256a128 128 0 1 0 0-256 128 128 0 0 0 0 256z" fill="#17b5cb"/><g clip-path="url(#b)"><mask id="c" maskUnits="userSpaceOnUse" x="41" y="57" width="174" height="141"><path d="M215 57H41v141h174V57Z" fill="#fff"/></mask><g mask="url(#c)"><path d="M196.3 57h18.3l-74 84.3a5.8 5.8 0 0 0-.2 7.7l42.7 49.5h-19l-39.5-46-2-2.4a5.8 5.8 0 0 1 .1-7.6L196.3 57zm-41.1 92c-1.3-1.4-1.7-3.4-1.3-5.2.4-1 1-2 1.8-2.7l4.8-5.4 54.5 62.8h-17.3L155.2 149zM60 198.5H41l58.3-67.3a5.7 5.7 0 0 0 0-7.4L41.5 57h18.3l58.2 67.3c1.5 2 1.7 4.8.1 6.7l-58 67.5zM91.8 57H74.3l54 62.3 6-7.3c1.7-1.8 2-4.2.2-6-11.3-11.6-42.7-49-42.7-49zm52.6 43.4L181.8 57h-17.7l-19.6 22.7-5.6 6.6a5.8 5.8 0 0 0-.1 7.6l5.6 6.5zm-32.5 54.7-37.5 43.4h17.7l19.5-22.7 5.6-6.6c2-2.1 2-5.4.2-7.6l-5.5-6.5z" fill="#fff"/></g></g></g><defs><clipPath id="a"><path fill="#fff" d="M0 0h256v256H0z"/></clipPath><clipPath id="b"><path fill="#fff" transform="translate(41 57)" d="M0 0h174v141H0z"/></clipPath></defs></svg>