<svg xmlns="http://www.w3.org/2000/svg" width="256" height="256" fill="none"><path d="M128 256a128 128 0 1 0 0-256 128 128 0 0 0 0 256z" fill="#14151a"/><path d="m63.7 71.5 3.3-3.9.2-.1.4-.4h.1l2.6-2.3a34.5 34.5 0 0 1 46.4 2.4c14.5 13.6 13.2 35.7 1.6 50.3-14.8 21.8-40 52.2-5 79.4 6.2 5 10.9 9 30.7 14.7-13 2.4-25 1.6-38.3-1.7-9.5-5.4-24.3-16.8-29.4-32.2-7.6-23.4 13.5-58.5 23.7-72 14-18.6-8.7-38.8-25.4-16.2-8.6 11.7-24 45-18.6 69.6 3 14 7.2 24.2 23.6 38.2-3-1.8-6-3.8-8.9-6a86.5 86.5 0 0 1-7-119.8z" fill="url(#a)"/><path d="m193.3 183.5-3.3 4h-.2l-.4.4-.1.1a40.2 40.2 0 0 1-13.2 8 34.5 34.5 0 0 1-35.7-8.2c-14.6-13.6-13.3-35.7-1.7-50.3 14.8-21.8 40-52.2 5-79.4-6.2-5-10.9-9-30.7-14.7 13-2.4 25-1.6 38.3 1.7 9.5 5.4 24.3 16.8 29.4 32.2 7.6 23.4-13.5 58.5-23.7 72-14 18.6 8.7 38.8 25.4 16.2 8.7-11.7 24-45 18.7-69.6a60.8 60.8 0 0 0-23.6-38.2c3 1.8 6 3.8 8.8 6a86.7 86.7 0 0 1 7 119.8z" fill="url(#b)"/><defs><linearGradient id="a" x1="43" y1="135" x2="214" y2="135" gradientUnits="userSpaceOnUse"><stop stop-color="#0082fa"/><stop offset="1" stop-color="#00f2fe"/></linearGradient><linearGradient id="b" x1="43" y1="120" x2="214" y2="120" gradientUnits="userSpaceOnUse"><stop stop-color="#0082fa"/><stop offset="1" stop-color="#00f2fe"/></linearGradient></defs></svg>