<svg xmlns="http://www.w3.org/2000/svg" width="32" height="32"><circle cx="16" cy="16" r="16" fill="#00d4d5"/><g fill="#fff"><path d="M16.52 5v5.46l4.74-2.73z"/><path opacity=".9" d="M21.26 7.73v5.46l4.73-2.73z"/><path opacity=".8" d="M16.52 10.46v5.45l4.74-2.72zm4.74 2.73v5.46l4.73-2.74zm-4.74 2.72v5.46l4.74-2.72z"/><path d="M21.26 18.65v5.45l4.73-2.73z"/><path opacity=".4" d="M4.27 10.27v5.46L9.01 13z"/><path opacity=".2" d="M10.25 12.3v5.46l4.73-2.73z"/><path opacity=".3" d="M6.74 15.75v5.46l4.74-2.73z"/><path opacity=".9" d="M9.86 19.87v5.46l4.73-2.73z"/><path opacity=".7" d="M16.48 22.22v5.46l4.73-2.74z"/><path opacity=".9" d="M11.04 9.6v5.46l4.73-2.72z"/><path opacity=".8" d="M16.52 5v5.46l-4.74-2.73z"/><path opacity=".6" d="M11.04 7.32v5.46L6.3 10.04zm4.74 2.7v5.46l-4.74-2.74z"/><path opacity=".95" d="M10.23 12.3v5.46l-4.74-2.73z"/><path opacity=".6" d="M16.52 15.91v5.46l-4.73-2.72z"/><path opacity=".55" d="M6.74 17.18v5.46L2 19.91z"/><path d="M26 10.46v5.45l-4.74-2.72z"/><path opacity=".95" d="M21.26 13.19v5.46l-4.74-2.74z"/><path opacity=".9" d="M26 15.91v5.46l-4.74-2.72z"/><path opacity=".7" d="M21.26 18.65v5.45l-4.74-2.73z"/><path opacity=".4" d="M15.47 20.92v5.46l-4.74-2.73z"/><path d="M21.26 7.73v5.46l-4.74-2.73z"/></g></svg>