<svg xmlns="http://www.w3.org/2000/svg" width="256" height="256" fill="none"><path fill="url(#a)" d="M73 38.3c18.9-51 91.1-51 110 0 6 16 18.6 28.7 34.7 34.7 51 18.9 51 91.1 0 110-16 6-28.7 18.6-34.7 34.7a58.7 58.7 0 0 1-110 0c-6-16-18.6-28.7-34.7-34.7a58.7 58.7 0 0 1 0-110C54.3 67 67 54.4 73 38.3Z"/><path fill="url(#b)" stroke="url(#c)" stroke-width="2" d="M43.7 77C59.5 71 74.6 56.2 78 40.2a55.7 55.7 0 0 1 104.7 0A58.1 58.1 0 0 0 217 74.7a53 53 0 0 1 34.5 54c-1 22.5-14.3 45-38.7 54a58.1 58.1 0 0 0-34.4 34.3c-10.8 24.3-31.5 35.8-51.8 35.2a54.6 54.6 0 0 1-49.2-37.9A58.1 58.1 0 0 0 43 180a54.6 54.6 0 0 1 .7-103Z"/><path fill="#000" d="M119.6 160.2V97.8h42.6c4.6 0 8.7 1 12.1 2.8a20 20 0 0 1 8.1 7.7c2 3.3 3 7.2 3 11.6 0 4.5-1 8.3-3 11.6-2 3.3-4.8 5.8-8.4 7.6a27.7 27.7 0 0 1-12.4 2.6h-31.7V127H156c2 0 3.7-.4 5.1-1a10 10 0 0 0 3.3-3c.3-.7.5-1.5.5-2.2 0-.7-.1-1.8-.5-2.4a7.3 7.3 0 0 0-3.3-3c-1.4-.7-3-1-5-1h-18v46h-18.5ZM101.4 97.8v62.4h-17V97.8h17Z"/><defs><linearGradient id="a" x1="43.6" x2="193" y1="72.4" y2="199" gradientUnits="userSpaceOnUse"><stop stop-color="#E2C878"/><stop offset="1" stop-color="#9A8134"/></linearGradient><linearGradient id="b" x1="65.4" x2="189.3" y1="62" y2="192.7" gradientUnits="userSpaceOnUse"><stop stop-color="#F7DC8F"/><stop offset="1" stop-color="#D3B040"/></linearGradient><linearGradient id="c" x1="60" x2="217.3" y1="184" y2="173.3" gradientUnits="userSpaceOnUse"><stop offset=".2" stop-color="#FFEDC0"/><stop offset="1" stop-color="#876C14"/></linearGradient></defs></svg>