<svg xmlns="http://www.w3.org/2000/svg" width="256" height="256" fill="none"><circle cx="128" cy="128" r="128" fill="#fff"/><path fill="url(#a)" fill-opacity=".7" d="m89.4 89.6 94.2-11.2v157.8l-94.2-24V89.6Z" style="mix-blend-mode:multiply"/><path fill="url(#b)" d="m89.4 89.6 94.2-11.2v157.8l-94.2-24V89.6Z" style="mix-blend-mode:darken"/><path fill="url(#c)" fill-opacity=".6" d="m89 30.4 73.7-18.9v54l-73.6 12V30.5Z" style="mix-blend-mode:multiply"/><path fill="url(#d)" d="m48 64.7 71-17.2V201L48 184V64.7Z" style="mix-blend-mode:multiply"/><path fill="url(#e)" d="M48 65 119 48v153.5l-71-17.2V65Z" style="mix-blend-mode:multiply"/><path fill="#215EB2" d="m88.9 54.8 30.1-7.3v25l-30 5.2-.1-22.9ZM89.4 89.7 119 86v115.2l-29.4-7-.2-104.6Z"/><defs><linearGradient id="a" x1="89.8" x2="183.6" y1="154.3" y2="157.2" gradientUnits="userSpaceOnUse"><stop stop-color="#0070D8" stop-opacity=".4"/><stop offset="1" stop-color="#084F88"/></linearGradient><linearGradient id="b" x1="89.8" x2="183.6" y1="154.3" y2="157.2" gradientUnits="userSpaceOnUse"><stop stop-color="#0070D8" stop-opacity=".4"/><stop offset="1" stop-color="#084F88"/></linearGradient><linearGradient id="c" x1="89.4" x2="162.9" y1="52.2" y2="39.5" gradientUnits="userSpaceOnUse"><stop stop-color="#AFF912"/><stop offset="1" stop-color="#65A607"/></linearGradient><linearGradient id="d" x1="48" x2="119.3" y1="118.2" y2="117.2" gradientUnits="userSpaceOnUse"><stop stop-color="#56BBF4" stop-opacity=".7"/><stop offset="1" stop-color="#005BAE" stop-opacity=".3"/></linearGradient><linearGradient id="e" x1="48" x2="119.3" y1="118.6" y2="117.5" gradientUnits="userSpaceOnUse"><stop stop-color="#56BBF4" stop-opacity=".7"/><stop offset="1" stop-color="#005BAE" stop-opacity=".3"/></linearGradient></defs></svg>