<svg xmlns="http://www.w3.org/2000/svg" width="256" height="256" fill="none"><g clip-path="url(#a)"><path d="M128 256a128 128 0 1 0 0-256 128 128 0 0 0 0 256z" fill="#f7941c"/><path d="m189 106-39 19c-4 2-7 2-6-3V88c0-4-1-5-6-3l-32 19-14 8c-3 2-4 4-3 6 2 3 4 1 6 0l21-9c4-2 7-2 6 4a172 172 0 0 0 0 20c0 4-1 6-5 9-12 6-23 12-31 22-13 14-10 35 5 44 19 12 44 1 50-21 4-13 3-26 3-40 0-5 1-9 7-12l41-23c2-1 5-3 3-6s-4-1-6 0zm-73 82c-4 6-10 8-15 6s-8-9-6-16c4-12 14-18 24-24 2-1 3 0 3 2v8c0 8-1 17-6 24zm3-118a15 15 0 0 0 10 4 15 15 0 0 0 6-1l5-3a14 14 0 0 0 3-5 15 15 0 0 0-3-16c-3-3-7-4-11-4a15 15 0 0 0-5 1 14 14 0 0 0-5 3 15 15 0 0 0-4 10 15 15 0 0 0 4 11z" fill="#fff"/></g><defs><clipPath id="a"><path fill="#fff" d="M0 0h256v256H0z"/></clipPath></defs></svg>