<svg xmlns="http://www.w3.org/2000/svg" width="256" height="256" fill="none"><g clip-path="url(#a)"><path fill-rule="evenodd" d="M128 0a128 128 0 1 1 0 256 128 128 0 0 1 0-256z" fill="#b41514"/><path d="M127 211.2a17.1 17.1 0 0 1-9.6-2.9c-2.8-1.9-5-4.6-6.3-7.7a17.1 17.1 0 0 1 3.7-18.7c2.4-2.4 5.5-4 8.8-4.7a17.1 17.1 0 0 1 17.6 7.3c2 2.8 3 6.2 3 9.5a17.1 17.1 0 0 1-5.1 12.2c-3.2 3.2-7.6 5-12.1 5zm0-118.3a17.1 17.1 0 0 1-16.8-20.5 17.1 17.1 0 0 1 4.6-8.8c2.4-2.4 5.5-4 8.8-4.6a17.1 17.1 0 0 1 10 1 17.2 17.2 0 0 1 7.6 6.2 17.1 17.1 0 0 1-2 21.7c-3.3 3.2-7.7 5-12.2 5zm-70.2 72.5v-23.8h140.3v23.8H56.8zm70.2-35.6a74 74 0 0 1-74-71.4h25.4a48.6 48.6 0 0 0 97.1 0H201a74 74 0 0 1-74 71.4z" fill="#fff"/></g><defs><clipPath id="a"><path fill="#fff" d="M0 0h256v256H0z"/></clipPath></defs></svg>