<svg xmlns="http://www.w3.org/2000/svg" width="256" height="256" fill="none"><g clip-path="url(#a)"><path d="M128 256a128 128 0 1 0 0-256 128 128 0 0 0 0 256z" fill="#000"/><circle cx="128" cy="128" r="112" fill="#fff"/><circle cx="128" cy="128" r="104" fill="#000"/><path d="M77 173.7a2.3 2.3 0 0 1 0-3.5l7.8-7.7 2.6-2.7 3.3-3.9c2.7-3.7 1.9-17.3-2.3-21.3-6-6.5-19.4-18.2-23.2-24.8-4.7-8.3-.8-12.7 1.8-16 1.3-1.7 2.2-1 3 0 6.1 6.5 20.4 20.7 26.7 27.2 6.2 6.5 10.4 11.7 11.8 20.3 4.1 23.8-18.3 38-20.1 40.1-1.5 1.6-2.6 1.2-3 .6l-8.3-8.3zm4.6-96.2c1-1.3 2.6-1 3.5 0L93 85l2.7 2.6 3.8 3.3c3.7 2.6 17.3 1.8 21.3-2.4 6.5-6 18.1-19.5 24.8-23.3 8.2-4.8 12.6-.9 16 1.7 1.6 1.3 1 2.2 0 3-6.5 6.1-20.7 20.5-27.1 26.8-6.5 6.3-11.7 10.5-20.2 12-23.8 4.2-38.2-18.2-40.3-20-1.6-1.5-1.1-2.6-.6-3l8.3-8.3zm95.2 5.5c1.3 1 1 2.6 0 3.5l-7.6 7.8-2.5 2.8-3.3 3.8c-2.6 3.8-1.6 17.4 2.7 21.3 6 6.4 19.5 18 23.4 24.5 4.9 8.3 1 12.7-1.5 16-1.3 1.7-2.2 1.1-3 0-6.2-6.3-20.7-20.3-27-26.8-6.4-6.4-10.6-11.5-12.2-20-4.4-23.8 17.8-38.4 19.6-40.5 1.5-1.6 2.6-1.2 3-.6l8.4 8.2zm-4.5 94.7c-1 1.3-2.7 1-3.6 0L161 170l-2.7-2.6-3.8-3.2c-3.8-2.7-17.4-1.8-21.3 2.5-6.5 6-18.1 19.4-24.7 23.2-8.3 4.8-12.7 1-16-1.6-1.7-1.3-1.1-2.3 0-3 6.4-6.2 20.5-20.5 27-26.9 6.4-6.3 11.7-10.5 20.2-12 23.8-4.2 38.2 18.1 40.2 20 1.7 1.4 1.2 2.5.6 3l-8.2 8.3z" fill="#fff"/></g><defs><clipPath id="a"><path fill="#fff" d="M0 0h256v256H0z"/></clipPath></defs></svg>