<svg xmlns="http://www.w3.org/2000/svg" width="256" height="256" fill="none"><g clip-path="url(#a)"><path d="M128 256a128 128 0 1 0 0-256 128 128 0 0 0 0 256z" fill="#111523"/><path d="M44.4 186.7a105.3 105.3 0 0 0 32.7 29.6 105.3 105.3 0 0 0 41.8 13.7c-7.6-11.4-18.6-22-32.4-30s-28.4-12.3-42-13.3z" fill="url(#b)"/><path d="M105 168.2c-26.5-15.4-55.3-19.4-75.8-12.4a105.8 105.8 0 0 0 7.8 19c17.9-.5 37.4 4.4 55.5 15s32 25 40.5 40.7c6.9-.2 13.7-1 20.4-2.6-4.2-21.3-21.8-44.3-48.4-59.7z" fill="url(#b)"/><path d="M231.5 105.6a105.2 105.2 0 0 0-49.3-65.9 105.2 105.2 0 0 0-39.8-13.4c-14-1.8-28.2-.7-41.8 3.2 22.7 2.8 47.9 11.3 72.6 25.7s44.7 32 58.3 50.4z" fill="url(#c)"/><path d="M198.5 156c-11.6-19.4-31.6-37.9-56.1-52.1s-50.5-22.4-73-23c-19.8-.4-34.7 5.3-40.8 15.8l-.1.2a105.7 105.7 0 0 0-1.4 6 84.3 84.3 0 0 1 29.3-5.5c24.4-.5 51.8 7.3 77 22s45.5 34.5 57.2 56a84.7 84.7 0 0 1 9.8 28.2 99.7 99.7 0 0 0 4.5-4.2v-.2c6.2-10.5 3.8-26.3-6.4-43.3z" fill="url(#d)"/><path d="M123.7 136c-37.6-21.8-79-25.3-99-10a104.9 104.9 0 0 0 1 14.2c6-1.7 12-2.9 18-3.3 22.4-1.7 47 4.5 69.3 17.5s40 31.3 49.6 51.5a82 82 0 0 1 6 17.3 105.6 105.6 0 0 0 13-6c3.3-25-20.3-59.4-57.9-81.2z" fill="url(#c)"/><path d="M217.8 123.6c-11.7-19.3-31.8-37.8-56.6-52.2S110.5 48.8 88 48.1c-17.2-.5-30.6 3.7-37.5 11.6C79.2 54.8 117 63 153.8 84.3s62.5 50.2 72.5 77.6c3.5-10 .5-23.6-8.5-38.3z" fill="url(#b)"/></g><defs><linearGradient id="b" x1="162.4" y1="67.1" x2="67.4" y2="230.5" gradientUnits="userSpaceOnUse"><stop offset="0" stop-color="#a4d756"/><stop offset="1" stop-color="#00b6e7"/></linearGradient><linearGradient id="c" x1="162.4" y1="67.1" x2="67.4" y2="230.5" gradientUnits="userSpaceOnUse"><stop offset="0" stop-color="#a4d756"/><stop offset="1" stop-color="#00b6e7"/></linearGradient><linearGradient id="d" x1="162.4" y1="67.1" x2="67.4" y2="230.5" gradientUnits="userSpaceOnUse"><stop offset="0" stop-color="#a4d756"/><stop offset="1" stop-color="#00b6e7"/></linearGradient><clipPath id="a"><path fill="#fff" d="M0 0h256v256H0z"/></clipPath></defs></svg>