<svg xmlns="http://www.w3.org/2000/svg" width="256" height="256" fill="none"><circle cx="128" cy="128" r="128" fill="url(#a)"/><path fill="#32FFDC" fill-rule="evenodd" d="M71 78.3c0-3.7 3-6.8 6.8-6.8l28.9-.2c3.8 0 6.8 3 6.8 6.8l.1 21.5c0 3.7 3.1 6.8 6.9 6.8l19.3-.1c1.8 0 3.5-.8 4.8-2l9.2-9.4c1.3-1.3 2-3 2-4.8V77.9c0-3.8 3-6.8 6.7-6.8L177 71c3.8 0 6.8 3 6.9 6.8v14.6c0 3.8-3 6.9-6.7 6.9h-11.7c-1.8 0-3.5.8-4.8 2l-10 10.3c-1.3 1.3-2 3-2 4.8V139c0 1.8.8 3.6 2 4.8l10.1 10c1.3 1.3 3 2 4.9 2h11.7c3.8-.1 6.9 3 6.9 6.7v14.7c0 3.7-3 6.8-6.7 6.8H163c-3.7 0-6.8-3-6.8-6.7v-12c0-1.8-.8-3.6-2-4.8l-10-9.8c-1.2-1.3-3-2-4.7-2l-18.8.1c-3.8 0-6.8 3.1-6.8 6.9l.1 21.8c0 3.8-3 6.8-6.8 6.8l-28.9.2c-3.7 0-6.8-3-6.8-6.8l-.2-29c0-3.7 3-6.8 6.8-6.8l21.5-.1c3.7 0 6.7-3 6.7-6.8v-14.4c0-3.7-3.1-6.8-6.9-6.7H78c-3.8 0-6.8-3-6.9-6.7l-.1-29Z" clip-rule="evenodd"/><defs><linearGradient id="a" x1="38.5" x2="224" y1="38.5" y2="212" gradientUnits="userSpaceOnUse"><stop stop-color="#143A3D"/><stop offset="1" stop-color="#020403"/></linearGradient></defs></svg>