<svg xmlns="http://www.w3.org/2000/svg" width="256" height="256" fill="none"><g clip-path="url(#a)"><path d="M244 82c-6-15-16-29-27-41a126 126 0 0 0-88-35c-17 0-34 1-49 7S53 31 41 42C30 54 17 66 10 81c-6 14-4 32-4 49s2 33 8 47c6 16 19 26 30 38 11 11 22 25 37 31 14 6 31 10 48 10s33-5 47-11a125 125 0 0 0 67-68c6-14 13-31 13-47s-6-34-12-48zm-80 119-27-4 8-51-56 43-16-22 49-37-49-38 16-21 56 43-8-52 27-4 10 72-10 71z" fill="#6fc7ba"/></g><defs><clipPath id="a"><path fill="#fff" d="M0 0h256v256H0z"/></clipPath></defs></svg>