<svg xmlns="http://www.w3.org/2000/svg" width="256" height="256" fill="none"><g clip-path="url(#a)"><path fill-rule="evenodd" d="m209 226-81-82-82 83c17 10 42 29 81 29s71-19 82-30zm17-180-82 82 82 82c42-54 38-110 0-164zM30 209l71-189L1 120c-5 30 10 67 29 89zm37-37c5-1 118-117 142-141-12-17-56-32-77-31L67 172z" fill="url(#b)"/></g><defs><linearGradient id="b" x1="70.3" y1="242.5" x2="197.4" y2="20.2" gradientUnits="userSpaceOnUse"><stop stop-color="#850000"/><stop offset=".3" stop-color="#c70158"/><stop offset=".5" stop-color="#de1e41"/><stop offset=".6" stop-color="#f63b2a"/><stop offset="1" stop-color="#ff8700"/></linearGradient><clipPath id="a"><path fill="#fff" d="M0 0h256v256H0z"/></clipPath></defs></svg>