<svg xmlns="http://www.w3.org/2000/svg" width="256" height="256" fill="none"><circle cx="128" cy="128" r="128" fill="#000"/><path fill="#fff" d="m154 155.6-48.2-31.9V97.4c0-1.3-1-2.4-2.4-2.4a2.5 2.5 0 0 0-2.4 2.4v60c0 1.4 1.1 2.5 2.4 2.5 1.3 0 2.4-1.1 2.4-2.4v-28l45.4 30c1.2.8 2.6.6 3.4-.6.7-1 .5-2.5-.7-3.3ZM123.3 116.3l.5.9a2 2 0 0 0 2.6.5l27.8-18.5c.8-.5 1-1.7.5-2.5l-.5-.9a2 2 0 0 0-2.6-.5l-27.8 18.5c-.8.5-1 1.6-.5 2.5Z"/><path fill="url(#a)" d="M202.6 179c-.7 0-1.4.3-1.8.9a90 90 0 0 1-162.3-49 89.5 89.5 0 0 1 89.7-92.5 90.5 90.5 0 0 1 72.6 36.7 2.3 2.3 0 0 0 3.9-.3c.3-.7.2-1.6-.2-2.4A95 95 0 0 0 61.2 62a93 93 0 0 0 0 131.2 95 95 0 0 0 143.4-10.5c.5-.7.5-1.6.1-2.4a2.3 2.3 0 0 0-2-1.2Z"/><defs><radialGradient id="a" cx="0" cy="0" r="1" gradientTransform="matrix(113.01562834 -157.34800028 332.83663818 239.0608189 90.5 229)" gradientUnits="userSpaceOnUse"><stop stop-color="#fff"/><stop offset="1" stop-color="#fff" stop-opacity="0"/></radialGradient></defs></svg>