<svg xmlns="http://www.w3.org/2000/svg" width="400" height="400" fill="none"><circle cx="200" cy="200" r="200" fill="#fff"/><path d="m24 133.4 46-69 11.6 7.7-46 69-11.6-7.7zm17.3 11.5 46-69 11.5 7.7-46 68.9-11.5-7.6zm17.2 11.4 46-68.9 11.6 7.7L70 164l-11.6-7.7zm218.7 145.5 46-69 11.5 7.7-46 69-11.5-7.7zm17.2 11.5 46-69L352 252l-46 69-11.6-7.7zm17.3 11.4 46-68.9 11.6 7.7-46.1 68.9-11.5-7.7zm-17.2-61.2 57.5 38.3z" fill="#000"/><path d="m294.5 263.5 57.5 38.3" stroke="#fff" stroke-width="12.5"/><path d="M127.6 152.5A83 83 0 0 1 278 182.2a82.9 82.9 0 0 1-12.3 62.2l-138.1-91.9z" fill="#cd2e3a"/><path d="M127.6 152.5A82.7 82.7 0 0 0 213 279.6a83 83 0 0 0 52.8-35.3 41.4 41.4 0 0 0 6.1-31 41.4 41.4 0 0 0-17.6-26.4 41.5 41.5 0 0 0-57.6 11.5l-69-45.9z" fill="#0047a0"/><path d="M196.6 198.4a41.5 41.5 0 1 0-57.5 11.5 41.6 41.6 0 0 0 57.5-11.5z" fill="#cd2e3a"/><path d="m70 332.4-46-69 11.5-7.6 46 69-11.4 7.6zm17.3-11.5-46-69 11.5-7.6 46 69-11.5 7.6zm17.3-11.5-46-68.9L70 233l46 68.9-11.4 7.6zM323.2 164l-46-69 11.5-7.6 46 69-11.5 7.6zm17.3-11.5-46-69 11.4-7.6 46.1 69-11.5 7.6zm17.2-11.5-46-68.9 11.5-7.6 46 68.9-11.5 7.6zM61.4 288.4l17.3-11.5zm233-155 20.2-13.4zm37.5-25L349 97z" fill="#000"/><path d="m61.4 288.4 17.3-11.5m215.8-143.5 20-13.4m17.4-11.5L349 97" stroke="#fff" stroke-width="12.5"/></svg>