<svg xmlns="http://www.w3.org/2000/svg" width="256" height="256" fill="none"><g clip-path="url(#a)"><path d="M255.7.3H.3v255.4h255.4V.3z" fill="#000" stroke="#000" stroke-miterlimit="10"/><path d="M216.9 74c-3-2.4-6.6-5.7-13.2-6.5-6.2-.8-12.4 3.3-16.7 6s-12.2 10.8-15.5 13.2-11.8 4.7-25.4 13-67.2 42.5-67.2 42.5l14 .1-62.2 32H37l-9 6.8s8 2.1 14.6-2v1.8s74-29.1 88.2-21.6L122 162l14.8 1a20 20 0 0 0 2.9 8.1 20 20 0 0 0 6 6.2c8.5 5.6 8.7 8.7 8.7 8.7s-4.4 1.8-4.4 4c0 0 6.5-2 12.5-1.8A48 48 0 0 1 174 190s-.5-2.4-6.4-4-11.6-8-14.5-11.5a16.3 16.3 0 0 1-2.4-16c2-5.2 9.2-8.1 23.8-15.7 17.2-8.9 21.2-15.5 23.6-20.7s6-15.4 8-20.2c2.6-6.3 5.8-9.6 8.4-11.5s14.2-6.4 14.2-6.4L217 74z" fill="#fff"/></g><defs><clipPath id="a"><rect width="256" height="256" rx="128" fill="#fff"/></clipPath></defs></svg>