<svg xmlns="http://www.w3.org/2000/svg" width="256" height="256" fill="none"><circle cx="128" cy="128" r="128" fill="#00CC43"/><path fill="#FBFFFF" d="M110.8 45.6a5.5 5.5 0 0 1 7.9 3.8l9.5 47.2c.7 3.7-3.6 6.3-6.6 4l-2.6-1.9c-3.9-3-8-5.7-12.2-8.2l-23.5 51a33.1 33.1 0 0 0 30.3 46.6h37.8c14 0 25.3-11.3 25.3-25.1s-11.3-25-25.3-25H131a11.6 11.6 0 0 1-11.6-11.5c0-6.3 5.2-11.5 11.6-11.5h22.6a15.7 15.7 0 0 0 15.7-15.5 15.6 15.6 0 0 0-15.7-15.6h-2a11.6 11.6 0 0 1-11.7-11.5c0-6.3 5.2-11.5 11.6-11.5h2c21.6 0 39 17.3 39 38.6 0 9.7-3.7 19.1-10.4 26.2 11.4 9 18 22.8 18 37.3 0 26.5-21.7 48-48.6 48h-37.8A56.2 56.2 0 0 1 62 131.9L86 80.6c-4.3-1.6-8.7-3-13.1-4l-4.5-1.2a4 4 0 0 1-.9-7.5l43.4-22.3Z"/></svg>