<svg xmlns="http://www.w3.org/2000/svg" xmlns:xlink="http://www.w3.org/1999/xlink" width="256" height="256" fill="none"><mask id="a" maskUnits="userSpaceOnUse" x="0" y="0" width="256" height="256"><path d="M128 0a128 128 0 1 1 0 256 128 128 0 0 1 0-256z" fill="#fff"/></mask><g mask="url(#a)"><path d="m0 0 256 256m0-256L0 256" stroke="#000" stroke-miterlimit="22.9"/></g><path d="M128 0a128 128 0 1 1 0 256 128 128 0 0 1 0-256z" fill="url(#b)"/><mask id="c" maskUnits="userSpaceOnUse" x="58" y="118" width="140" height="108"><path d="m127.9 150.7-57-32.5-1.6 2.3a67.1 67.1 0 0 0 9.4 84.8 70.5 70.5 0 0 0 98.3 0c23-22.6 27-57.8 9.5-84.8l-1.6-2.3-57 32.5z" fill="#fff"/></mask><g mask="url(#c)"><path d="M127.9 227.3a69.5 69.5 0 1 0 0-139 69.5 69.5 0 0 0 0 139z" fill="url(#d)"/></g><path d="m127.9 78-49.2 28 49.2 28.1 49.1-28L128 78z" fill="url(#e)"/><path d="m128 85.3-57.1 32.9 57 32.5 57-32.5L128 85.3z" fill="url(#f)"/><path d="m127.9 30.7-49.2 75.4 49.2 28V30.7z" fill="url(#g)"/><path d="m127.9 134.1 49.1-28-49-75.4v103.4z" fill="url(#h)"/><defs><linearGradient id="b" x1="128" y1="0" x2="128" y2="256" xlink:href="#i"><stop stop-color="#f89791"/><stop offset="1" stop-color="#f7c882"/></linearGradient><linearGradient id="g" x1="103.3" y1="25.6" x2="103.3" y2="128" xlink:href="#i"><stop stop-color="#77d4ff"/><stop offset="1" stop-color="#93d6f2" stop-opacity=".9"/></linearGradient><linearGradient id="h" x1="152.5" y1="25.6" x2="152.5" y2="128" xlink:href="#i"><stop stop-color="#506aac"/><stop offset="1" stop-color="#96cfef" stop-opacity=".8"/></linearGradient><linearGradient id="i" gradientUnits="userSpaceOnUse"/><radialGradient id="d" cx="0" cy="0" r="1" gradientTransform="matrix(-.75584 -92.85032 110.67233 -.90092 127.8 214.7)" xlink:href="#i"><stop stop-color="#c5c6ab"/><stop offset="1" stop-color="#7985ab"/></radialGradient><radialGradient id="e" cx="0" cy="0" r="1" gradientTransform="translate(127.9 106) scale(2.4576)" xlink:href="#i"><stop stop-color="#06f" stop-opacity="0"/><stop offset="1" stop-color="#00c2ff" stop-opacity=".4"/></radialGradient><radialGradient id="f" cx="0" cy="0" r="1" gradientTransform="translate(127.8 118) scale(2.86802)" xlink:href="#i"><stop stop-color="#aee6f9" stop-opacity=".9"/><stop offset="1" stop-color="#c8d6dc"/></radialGradient></defs></svg>