<svg xmlns="http://www.w3.org/2000/svg" width="256" height="256" fill="none"><path d="M128 256a128 128 0 1 0 0-256 128 128 0 0 0 0 256z" fill="#000"/><rect x="118.2" y="58.7" width="70.5" height="27.6" rx="13.8" transform="rotate(45 118.2 58.7)" fill="url(#a)"/><path d="M109 89.1a28.2 28.2 0 0 1 34.5-5L118 58.4c-6-6-14-3.5-18.4 1.1l-73.1 73c-4 4.4-7 12.7-1.4 19.5s15.9 6 20.9 1l63-64z" fill="url(#b)"/><g filter="url(#c)"><rect x="138.2" y="196.7" width="70.5" height="27.6" rx="13.8" transform="rotate(224.8 138.2 196.7)" fill="url(#d)"/><path d="M147.2 166.2a28.2 28.2 0 0 1-34.4 5.2l25.6 25.4c6 6 14 3.5 18.4-1.1l72.8-73.2c4-4.5 7-12.8 1.3-19.6S215 97 210 102l-62.8 64.2z" fill="url(#e)"/></g><defs><linearGradient id="a" x1="134.9" y1="75.6" x2="187.9" y2="70" gradientUnits="userSpaceOnUse"><stop stop-color="#5b97fe"/><stop offset="1" stop-color="#66f4fa"/></linearGradient><linearGradient id="b" x1="124" y1="66" x2="26.5" y2="152.5" gradientUnits="userSpaceOnUse"><stop stop-color="#69fcfc"/><stop offset="1" stop-color="#5898fd"/></linearGradient><linearGradient id="d" x1="154.9" y1="213.6" x2="208" y2="207.9" gradientUnits="userSpaceOnUse"><stop stop-color="#6ae9fe"/><stop offset="1" stop-color="#5dacfe"/></linearGradient><linearGradient id="e" x1="132.3" y1="189.4" x2="229.5" y2="102.5" gradientUnits="userSpaceOnUse"><stop stop-color="#6a7af3"/><stop offset="1" stop-color="#519ff1"/></linearGradient><filter id="c" x="89.9" y="98.1" width="148.1" height="110.3" filterUnits="userSpaceOnUse" color-interpolation-filters="sRGB"><feFlood flood-opacity="0" result="A"/><feColorMatrix in="SourceAlpha" values="0 0 0 0 0 0 0 0 0 0 0 0 0 0 0 0 0 0 127 0" result="B"/><feOffset dy="4"/><feGaussianBlur stdDeviation="2"/><feComposite in2="B" operator="out"/><feColorMatrix values="0 0 0 0 0 0 0 0 0 0 0 0 0 0 0 0 0 0 0.25 0"/><feBlend in2="A"/><feBlend in="SourceGraphic"/></filter></defs></svg>