<svg width="256" height="256" fill="none" xmlns="http://www.w3.org/2000/svg"><g clip-path="url(#a)"><path d="M128 256a128 128 0 1 0 0-256 128 128 0 0 0 0 256Z" fill="#fff"/><path d="M175.4 208 51.6 120.9a32.1 32.1 0 0 1 0-52.7l30-21.2 123.8 87.1a32.2 32.2 0 0 1 0 52.7l-30 21.2ZM81.6 61.1 58.2 77.5a20.7 20.7 0 0 0 0 34l117.2 82.4 23.4-16.4a20.6 20.6 0 0 0 0-34L81.6 61.2Z" fill="#4ABFC7"/><path d="M81.2 194 58 177.4a20.7 20.7 0 0 1-8.7-17 21 21 0 0 1 8.7-17l60-42.5-9.9-7-56.5 40A32.1 32.1 0 0 0 38 160.5a32.6 32.6 0 0 0 13.6 26.4L81.2 208l36.8-26-9.9-7-26.9 19ZM205.3 68.1l-30-21.1L138 73l10 7.1 27.1-19 23.5 16.4a20.7 20.7 0 0 1 0 34L138 154l10 7 57.3-40.1a32.3 32.3 0 0 0 0-52.9v.1Z" fill="#00809A"/><path d="m105.5 96-47.1 33 6.6 9.3 47.1-33-6.6-9.4ZM192.7 116 170 131.8l6.5 9.2 23.5-16.4c-2.5-2.8-5-5.7-7.3-8.6Z" fill="#00809A"/></g><defs><clipPath id="a"><path fill="#fff" d="M0 0h256v256H0z"/></clipPath></defs></svg>