<svg xmlns="http://www.w3.org/2000/svg" width="256" height="256" fill="none"><g clip-path="url(#a)"><path d="M128 256a128 128 0 1 0 0-256 128 128 0 0 0 0 256z" fill="#dc2626"/><path d="m216.2 124.8-25-8.5c-9.2-3.2-16-11-18-20.6l-10.5-52.4c-.3-1.3-1.5-2.3-2.9-2.3s-2.5 1-2.8 2.3l-10.5 52.4a27.4 27.4 0 0 1-18 20.6l-25 8.5c-1.2.4-2 1.5-2 2.7s.9 2.3 2 2.7l25 8.6c9.2 3.1 16 11 18 20.5l10.5 52.5c.3 1.3 1.5 2.2 2.8 2.2s2.6-1 2.9-2.2l10.5-52.5c2-9.6 8.8-17.4 18-20.5l25-8.6c1.2-.3 2-1.4 2-2.7s-.9-2.3-2-2.7zM81.6 76.7l8.8 3a9.6 9.6 0 0 1 6.4 7.2l3.7 18.6c0 .4.5.8 1 .8s.9-.4 1-.8l3.7-18.6c.7-3.3 3-6.1 6.4-7.2l8.8-3c.4-.2.7-.6.7-1s-.3-.8-.7-1l-8.8-3a9.7 9.7 0 0 1-6.4-7.2L102.5 46c-.1-.5-.5-.8-1-.8s-1 .3-1 .8l-3.7 18.5a9.9 9.9 0 0 1-6.4 7.3l-8.8 3c-.4.1-.7.5-.7 1s.3.7.7.9zm20.6 91-11.8-4a13 13 0 0 1-8.5-9.7l-5-24.9c-.1-.6-.7-1-1.3-1s-1.3.4-1.4 1l-5 24.9a13 13 0 0 1-8.5 9.7l-11.8 4c-.5.2-.9.7-.9 1.3s.4 1.1.9 1.3l11.8 4a13 13 0 0 1 8.5 9.7l5 24.8c.1.7.7 1 1.4 1s1.1-.4 1.3-1l5-24.8a13 13 0 0 1 8.5-9.7l11.8-4c.6-.2 1-.7 1-1.3s-.4-1.1-1-1.3z" fill="#fffdf7"/></g><defs><clipPath id="a"><path fill="#fff" d="M0 0h256v256H0z"/></clipPath></defs></svg>