<svg xmlns="http://www.w3.org/2000/svg" width="400" height="400"><defs><linearGradient x1="85.4%" y1="14.6%" x2="14.6%" y2="85.4%" id="a"><stop stop-color="#ff2d55" offset="0%"/><stop stop-color="#ffbc5b" offset="100%"/></linearGradient><linearGradient x1="50%" y1="0%" x2="50%" y2="100%" id="b"><stop stop-color="#a524b3" offset="0%"/><stop stop-color="#ff2d55" offset="100%"/></linearGradient></defs><g fill-rule="evenodd"><circle fill="url(#a)" cx="200" cy="200" r="200"/><path fill="url(#b)" d="M142 130v150h125z"/><path fill="#fff" d="M17 280h125V130z"/><path d="M40 320c11 15 25 29 40 40h240c15-11 29-25 40-40H40z" fill="#fc9965"/><path d="M80 360a199 199 0 0 0 240 0H80z" fill="#ff2d55"/><path fill="url(#b)" d="M268 210v110h92z"/><path d="M268 280H17c6 14 14 28 23 40h228v-40z" fill="#ffbc5b"/><path fill="#fff" d="M177 320h91V210z"/><g fill="#ffc95b"><circle cx="268.3" cy="130" r="50"/><circle cx="141.7" cy="75" r="25"/></g></g></svg>