<svg xmlns="http://www.w3.org/2000/svg" width="256" height="256" fill="none"><g clip-path="url(#a)"><path d="M128 256a128 128 0 1 0 0-256 128 128 0 0 0 0 256z" fill="#000"/><path fill-rule="evenodd" d="M66.5 210.5A102.7 102.7 0 0 1 128 25c47 0 98.1 28 110.5 71a115 115 0 1 0 4.5 32v-6h-7.2l-3.2-.1c-2.7-.1-6.4-.3-10.7-.7a96.3 96.3 0 0 1-25.1-4.9A68.8 68.8 0 0 1 173 99.6l-.4-.3a98.9 98.9 0 0 0-28.4-20.7 62.9 62.9 0 0 0-39-3A99.1 99.1 0 0 0 87.6 81c-5.4 2.3-10.7 5-16.1 7.5L87.2 93l.9.3a65.2 65.2 0 0 1 13.2 6.3 28.2 28.2 0 0 1 12.2 13.7A85.5 85.5 0 0 0 82 125.1 127.2 127.2 0 0 0 66.3 136L55 146s13.9 1.5 20.7 2.9c4.6.9 10.7 2.4 17.1 4.6 6.4 2.2 13 5.2 18.4 9s9.3 8.1 11.3 13c5.7 14.6 0 28.8-11.1 36.8-11.1 7.9-28 9.7-44.8-1.8zm39.2 18a47.3 47.3 0 0 0 12.6-6.3 42.6 42.6 0 0 0 15.4-51c-3.1-8-9.1-14-15.7-18.6s-14.2-8-21.3-10.5c-4.6-1.6-9.1-2.9-13-3.8 1.4-1 2.9-1.9 4.5-2.8 9.3-5.5 21-10.5 32.3-10.5 17 0 29.6 5.2 41.6 10.8l3.3 1.5c10.8 5 22 10.4 35.2 10.4a62 62 0 0 0 29.6-7.3 102.9 102.9 0 0 1-124.5 88zm111.4-95.6c-4.5 1.6-10 2.7-16.4 2.7-10.3 0-19.2-4.2-30.5-9.4l-3-1.4a109.7 109.7 0 0 0-41.3-11.8 38.3 38.3 0 0 0-18-23.6 49.6 49.6 0 0 0-2.5-1.4l2.3-.5c9.8-2 21.5-2.6 31.4 2.1 11.7 5.5 18.4 12 25.3 18.5l.2.3c7.1 6.8 14.6 14 27.7 19.2a99.4 99.4 0 0 0 24.8 5.3z" fill="url(#b)"/></g><defs><linearGradient id="b" x1="11" y1="130.1" x2="245.1" y2="125.9" gradientUnits="userSpaceOnUse"><stop stop-color="#29ccb9"/><stop offset=".5" stop-color="#0091ff"/><stop offset="1" stop-color="#ff66b7"/></linearGradient><clipPath id="a"><path fill="#fff" d="M0 0h256v256H0z"/></clipPath></defs></svg>