<svg xmlns="http://www.w3.org/2000/svg" width="256" height="256" fill="none"><path d="M128 256a128 128 0 1 0 0-256 128 128 0 0 0 0 256z" fill="#225dd6"/><path d="M233 128a105 105 0 1 1-210 0 105 105 0 0 1 210 0z" fill="#fff"/><path fill-rule="evenodd" d="M128.5 249c68.8 0 124.5-54 124.5-121C253 61.2 197.3 7 128.5 7S4 61 4 128c0 66.8 55.7 121 124.5 121zM95.3 66l33 23.8v.2l33.1-23.8v30.1l-33 23.8-33.1-23.8V66zm0 40.5 33 23.8v.2l33.1-23.8v-.3l36-26.8v83.8l-36 26.7v-53.4l-33 23.8-33.1-23.8v53.6l-36-26.8V79.8l36 26.7z" fill="#225dd6"/></svg>