<svg xmlns="http://www.w3.org/2000/svg" width="256" height="256" fill="none"><g clip-path="url(#a)"><circle cx="128" cy="128" r="128" fill="#000"/><path fill="#fff" fill-rule="evenodd" d="M70 101.4h1.8a7.3 7.3 0 0 1 0 14.5H56.7c-.2 0-.5 0-.7.4-.1.4 0 .6.2.7l12.2 14.1a15 15 0 0 1-8.9 24.8v5a7.2 7.2 0 1 1-14.4 0v-4.8h-4.9a7.2 7.2 0 0 1 0-14.4H57c.2 0 .4 0 .6-.4.2-.4 0-.6 0-.7l-12.3-14.1a15 15 0 0 1 2.7-22.4 15 15 0 0 1 7.6-2.6v-5.3a7.2 7.2 0 0 1 14.4 0v5.2Zm137 48c1.6 0 3.4.5 4.9 1.2a8.3 8.3 0 0 1 4.9 9.4c-.7 4-4 7.2-7.9 7.7l-2.3.1h-42.2c-2.5 0-5.2 0-7.6-.7-5.7-1.5-8.1-6.6-5.6-11.8 1.2-2.6 2.8-5 4.5-7.2l9-12.4 4-5.2c.8-1.2.8-2.3-.2-3.4l-3-3.6-6.6-7.7c-1-1.3-1.3-1.3-2.3 0l-5.2 7c-4.1 5.4-8.3 10.8-12.2 16.4-3.8 5.4-11.3 4.4-14.6 1l-13.1-13-3-3-.3-.2c-.9-.7-2.1-.2-2.3 1v31.8a11 11 0 0 1-9 11.1 9.5 9.5 0 0 1-11.3-9.3V99.8c0-4.6 2.1-8 6.3-9.7a10 10 0 0 1 11.3 2l13.9 13.7 6 6 6.7 6.5c1 1.1 1.3 1.1 2.2-.1l4.2-5.7 13.9-19c2-2.8 4.7-4.2 8.1-4.2h49.2a9.4 9.4 0 0 1 .2 18.8h-27.8c-.3.1-1 .3-1 .5 0 .3 0 .9.3 1.2l7 8.1.7.9.9 1 1.7 2c3.4 4.4 3.6 9.2 0 13.6-2 2.6-4.2 5.2-6.4 7.8l-3.7 4.4c-.2.2-.3.6-.4.9l-.2.4.5.2.9.3H207Z" clip-rule="evenodd"/><mask id="b" width="184" height="80" x="33" y="89" maskUnits="userSpaceOnUse" style="mask-type:alpha"><path fill="#fff" fill-rule="evenodd" d="M70 101.4h1.8a7.3 7.3 0 0 1 0 14.5H56.7c-.2 0-.5 0-.7.4-.1.4 0 .6.2.7l12.2 14.1a15 15 0 0 1-8.9 24.8v5a7.2 7.2 0 1 1-14.4 0v-4.8h-4.9a7.2 7.2 0 0 1 0-14.4H57c.2 0 .4 0 .6-.4.2-.4 0-.6 0-.7l-12.3-14.1a15 15 0 0 1 10.3-25v-5.3a7.2 7.2 0 0 1 14.4 0v5.2Zm137 48c1.6 0 3.4.5 4.9 1.2a8.3 8.3 0 0 1 4.9 9.4c-.7 4-4 7.2-7.9 7.7l-2.3.1h-42.2c-2.5 0-5.2 0-7.6-.7-5.7-1.5-8.1-6.6-5.6-11.8 1.2-2.6 2.8-5 4.5-7.2l9-12.4 4-5.2c.8-1.2.8-2.3-.2-3.4l-3-3.6-6.6-7.7c-1-1.3-1.3-1.3-2.3 0l-5.2 7c-4.1 5.4-8.3 10.8-12.2 16.4-3.8 5.4-11.3 4.4-14.6 1l-13.1-13-3-3-.3-.2c-.9-.7-2.1-.2-2.3 1v31.8a11 11 0 0 1-9 11.1 9.5 9.5 0 0 1-11.3-9.3V99.8c0-4.6 2.1-8 6.3-9.7a10 10 0 0 1 11.3 2l13.9 13.7 6 6 6.7 6.5c1 1.1 1.3 1.1 2.2-.1l4.2-5.7 13.9-19c2-2.8 4.7-4.2 8.1-4.2h49.2a9.4 9.4 0 0 1 .2 18.8h-27.8c-.3.1-1 .3-1 .5 0 .3 0 .9.3 1.2l7 8.1.7.9.9 1 1.7 2c3.4 4.4 3.6 9.2 0 13.6-2 2.6-4.2 5.2-6.4 7.8l-3.7 4.4c-.2.2-.3.6-.4.9l-.2.4.5.2.9.3H207Z" clip-rule="evenodd"/></mask><g mask="url(#b)"><g filter="url(#c)" opacity=".4"><path fill="url(#d)" d="M138.1 213.8c68.6 8.8 127.4-9.6 131.4-41s-48.3-64-116.8-72.8c-68.5-8.8-127.3 9.6-131.4 41-4 31.4 48.3 64 116.8 72.8Z"/></g><g filter="url(#e)" opacity=".4"><path fill="url(#f)" d="M133.3 224.2c71.2 9.1 131.7-5.3 135.1-32.3C272 165 217 135.7 146 126.6c-71.3-9.1-131.8 5.3-135.2 32.3-3.5 27 51.4 56.2 122.5 65.3Z"/></g></g></g><defs><linearGradient id="d" x1="38.5" x2="210.2" y1="157.1" y2="183.2" gradientUnits="userSpaceOnUse"><stop stop-color="#FF8A00"/><stop offset=".3" stop-color="#E50505"/><stop offset=".7" stop-color="#F00180"/><stop offset=".8" stop-color="#5103CA"/><stop offset="1" stop-color="#5DC7FE"/></linearGradient><linearGradient id="f" x1="14.8" x2="207" y1="172.8" y2="201.1" gradientUnits="userSpaceOnUse"><stop stop-color="#CC2500"/><stop offset=".3" stop-color="#E50505"/><stop offset=".7" stop-color="#F00180"/><stop offset=".8" stop-color="#5103CA"/><stop offset="1" stop-color="#5DC7FE"/></linearGradient><filter id="c" width="312.6" height="182.2" x="-10.9" y="65.8" color-interpolation-filters="sRGB" filterUnits="userSpaceOnUse"><feFlood flood-opacity="0" result="BackgroundImageFix"/><feBlend in="SourceGraphic" in2="BackgroundImageFix" result="shape"/><feGaussianBlur result="effect1_foregroundBlur_5842_160" stdDeviation="16"/></filter><filter id="e" width="305.9" height="151.1" x="-13.4" y="99.9" color-interpolation-filters="sRGB" filterUnits="userSpaceOnUse"><feFlood flood-opacity="0" result="BackgroundImageFix"/><feBlend in="SourceGraphic" in2="BackgroundImageFix" result="shape"/><feGaussianBlur result="effect1_foregroundBlur_5842_160" stdDeviation="12"/></filter><clipPath id="a"><path fill="#fff" d="M0 0h256v256H0z"/></clipPath></defs></svg>