<svg xmlns="http://www.w3.org/2000/svg" width="256" height="256" fill="none"><path d="M128 256a128 128 0 1 0 0-256 128 128 0 0 0 0 256z" fill="url(#a)"/><path fill-rule="evenodd" d="M44 224c-6-4-10-9-15-15l73-66 1-7-36-5c-1 0-3-2-3-4s2-4 3-4l33-5-38-50c-1-1-2-4 0-6s5 0 6 0l50 38 5-33c0-2 2-4 4-4s3 2 4 4l5 33 50-38c1-1 3-2 6 0s1 5 0 6l-37 50 32 5c2 0 3 2 3 3 0 2-1 4-3 5l-33 5 38 50c0 1 1 4-1 5l-4 1-51-38-5 33c-1 2-1 3-4 3s-4-2-4-3l-5-37-6 2-68 72z" fill="#fff"/><defs><linearGradient id="a" x1="35.5" y1="37.5" x2="216" y2="220" gradientUnits="userSpaceOnUse"><stop stop-color="#362ecc"/><stop offset="1" stop-color="#b482ff"/></linearGradient></defs></svg>