<svg xmlns="http://www.w3.org/2000/svg" width="256" height="256" fill="none"><path fill="url(#a)" d="M214 60c3-4 9-4 12 0l6 14c1 3 0 6-3 9l-75 74c-4 5-10 8-16 9l-6 2c-6 1-12 4-16 9l-58 57c-2-9-4-16 4-23L214 60Zm16 32c2-2 6-1 6 2-2 20-11 42-28 59-14 14-51 36-77 51-5 3-10-4-5-8L230 92Zm-35-62c3-3 6-3 9-2 5 4 9 9 12 15 1 2 0 5-2 7l-81 80c-5 5-10 8-16 9l-7 1c-6 2-11 5-16 9l-50 50c-2-9-1-18 7-26L195 30Zm-34-15c4-4 11-6 16-4l10 5c4 2 4 8 0 12l-74 73c-4 4-10 7-15 6-6 0-12 2-17 7l-40 40c-3-9 1-20 8-28l13-13 99-98Zm-12-7c4 0 5 4 2 7L81 85l-8 8-13 13c-2 2-6 0-5-3l12-28 3-5c7-15 18-31 28-41 17-17 33-21 51-21Z"/><defs><linearGradient id="a" x1="272.5" x2="77.9" y1="8.3" y2="234.3" gradientUnits="userSpaceOnUse"><stop stop-color="#F5BD00"/><stop offset=".4" stop-color="#F54B00"/><stop offset="1" stop-color="#6E45FF"/></linearGradient></defs></svg>