<svg xmlns="http://www.w3.org/2000/svg" width="256" height="256" fill="none"><circle cx="128" cy="128" r="128" fill="#006CDE"/><path fill="#fff" d="M44 145c0 8 2 15 4 18 3 5 8 7 13 7 6 0 11-1 22-16l25-39 12-17c8-12 17-26 28-35 8-8 17-12 27-12 16 0 31 9 42 26 13 19 19 43 19 67 0 14-3 25-8 33-5 9-14 17-29 17v-24c13 0 16-12 16-25 0-20-4-42-15-58-7-11-16-18-26-18-11 0-20 9-30 24l-17 28-7 12c-14 24-17 30-24 39-12 16-22 22-35 22-16 0-26-7-32-18-6-8-8-19-8-32l23 1Z"/><path fill="#fff" d="M39 79c11-17 26-28 44-28 10 0 20 3 31 12s24 25 39 50l6 10 25 39c6 6 10 8 15 8 13 0 16-12 16-25l21-1c0 14-3 25-8 33-5 9-14 17-29 17-10 0-18-2-28-11-7-7-15-19-22-30l-19-32c-10-16-18-28-24-34-5-6-12-13-24-13-9 0-16 7-23 17L39 79Z"/><path fill="#fff" d="M82 74c-9 0-16 7-23 17-9 13-15 34-15 54 0 8 2 15 4 18l-19 13c-6-8-8-19-8-32 0-23 6-47 18-65 11-17 26-28 44-28l-1 23Z"/></svg>