<svg xmlns="http://www.w3.org/2000/svg" width="256" height="256" fill="none"><circle cx="128" cy="128" r="128" fill="#00CFFF"/><path fill="#000" d="M223 116c-3.2-2.2-6.6-4.2-10-6l-3-3-8-9v-8c1-5 0-10-3-14l-4-7-4-10a29 29 0 0 0-8-12c-7-7-26-10-42-11l-3-1c-7-1-14-3-21-2-10 2-20 5-28 13l-5 4c-4 3-8 3-11 6-2 2-2 8-7 11L52 77l-4 6c-1 2-8 4-10 6l-3 6c-.5 2-.5 4 0 6l1 1 2 10c-1 3-8 22 8 28a7 7 0 0 1 5 6 24 24 0 0 0 2 8l4 5 6 6c5 10 4 15 14 18l8 3 9 5 7-16c-6-6-10-13-12-22a46 46 0 0 1 0-24 1.1 1.1 0 1 1 2-1c4 3 16 16 15 38l11-21a47 47 0 0 1 0-49h1a1 1 0 0 1 1 0c3 4 10 18 5 37l8-11c5-32 29-42 35-45a1 1 0 0 1 1 0 1 1 0 0 1 1 1 56 56 0 0 1-10 27c-6 8-14 14-23 18l-9 14a47 47 0 0 1 38-9 1 1 0 0 1 0 1h1a1 1 0 0 1-1 1c-3 5-17 20-44 17-4.6 7.5-9 15.2-13 23 12-9 29-13 42-8a1 1 0 0 1 1 1 1 1 0 0 1-1 1c-4 4-19 18-45 13-5 10.8-9.7 21.9-14 33a5 5 0 0 0 0 2 5 5 0 0 0 0 2l1 2a5 5 0 0 0 2 1 105 105 0 0 0 63 2 5 5 0 0 0 3-3l1-2s9-20 10-30l3-8a9 9 0 0 1 3-3l4-1c7-1 21-1 27-3 7-2 4-15 3-17s4-4 4-6-1-3-3-5 3-3 4-5-2-4-2-5l-1-4 8-6c3-3 2-4 2-5Z"/></svg>