<svg xmlns="http://www.w3.org/2000/svg" width="256" height="256" fill="none"><g clip-path="url(#a)"><path d="M128 256a128 128 0 1 0 0-256 128 128 0 0 0 0 256z" fill="url(#b)"/><path d="M128.5 188a11 11 0 0 0 5.8-1.7 7.6 7.6 0 0 0 2.6-5.8l1.6-10a40.6 40.6 0 0 1-20 0l1.6 10c0 2.5.9 4.1 2.6 5.8a11 11 0 0 0 5.8 1.7zm57.6-1.7H202V95c0-12.5-5.8-20.9-15.9-24.2v115.5zm-131.1 0h15.9V70.7C60.9 74.2 55 82.5 55 95v91.3zm83.5-15.9c10-2.5 17.6-10 19.2-23.4l10-77c-11.6 2.4-17.5 11.6-20 25.9l-9.2 74.5zm-20 0L109.3 96c-1.7-14.3-8.4-23.5-19.2-26l10 77c1.7 13.5 8.4 21 18.4 23.5zM186 70.7V64c0-6.7-3.3-10-8.3-10s-8.4 3.3-9.2 9.2l-.8 6.7a47 47 0 0 1 18.3.8zm-115 0c3.3-.8 7.5-1.6 10.8-1.6 2.5 0 5 0 8.4.8l-.9-6.7c-1.6-6.7-5-9.2-10-9.2S71 57.4 71 64v6.7z" fill="#2d2d2d"/><path d="m138.5 170.4-1.6 10a8 8 0 0 1-2.6 6c-1.6.8-3.3 1.6-5.8 1.6s-4.2-.8-5.8-1.7a7.6 7.6 0 0 1-2.6-5.8l-1.6-10m20 0a40.6 40.6 0 0 1-20 0m20 0c10-2.6 17.6-10.1 19.2-23.5l10-77m-29.2 100.4 9.2-74.5c2.5-14.3 8.4-23.5 20-26m-49.2 100.5L109.3 96c-1.7-14.3-8.4-23.5-19.2-26m28.4 100.5c-10-2.5-16.7-10-18.4-23.4l-10-77m96 .8C196.1 74 202 82.5 202 95v91.3h-15.9V70.7zm0 0V64c0-6.7-3.3-10.1-8.3-10.1s-8.4 3.4-9.2 9.2l-.8 6.7m18.3.9a45.4 45.4 0 0 0-18.3-.9m-97 .9v115.5H55V95c0-12.5 5.8-20.9 15.9-24.3zm0 0c3.4-.9 7.6-1.7 11-1.7 2.4 0 5 0 8.3.8m-19.2.9V64c0-6.7 3.3-10.1 8.3-10.1s8.4 2.5 10 9.2l.9 6.7" stroke="#fff" stroke-width="7" stroke-miterlimit="5.3"/></g><defs><linearGradient id="b" x1="128" y1="0" x2="128" y2="256" gradientUnits="userSpaceOnUse"><stop stop-color="#e95223"/><stop offset=".2" stop-color="#a255c7"/><stop offset=".6" stop-color="#7f30ff"/><stop offset="1" stop-color="#1aa2c0"/></linearGradient><clipPath id="a"><path fill="#fff" d="M0 0h256v256H0z"/></clipPath></defs></svg>