<svg xmlns="http://www.w3.org/2000/svg" width="256" height="256" fill="none"><g clip-path="url(#a)"><path d="M128 255a127 127 0 1 0 0-254 127 127 0 0 0 0 254z" fill="#000"/><path d="M53 89 14 69 6 88l42 13a83 83 0 0 1 5-12zm33-35 21 37 10-4-11-41a82 82 0 0 1 8-2l-6-43-20 5 14 40-13 5-19-38a127 127 0 0 0-17 11l25 35 8-5zm115 30-37 22 4 10 41-11 2 8 43-6-5-20-40 13a86 86 0 0 0-5-12l38-20-11-17-35 26a85 85 0 0 1 5 7zm-15-71-19-8-13 42 12 5 20-39zm-16 40-22 37a42 42 0 0 1 9 7l61-61-15-13-26 35a86 86 0 0 0-7-5zM54 84l37 22a42 42 0 0 1 7-9L37 37a128 128 0 0 0-13 15l35 25-5 7zm87-41 7-42a129 129 0 0 0-20-2v87l11 1 11-42a85 85 0 0 0-9-2zm-53 73-42-11-2 9-42-7a130 130 0 0 0-2 20h87a42 42 0 0 1 1-11zm115 49 38 20 8-19-41-13-5 12zm-33 35-21-37a41 41 0 0 1-10 4l11 41-8 2 6 43 20-5-14-40a84 84 0 0 0 13-5l19 38 17-11-25-35-8 5zM55 169l37-21a41 41 0 0 1-4-10l-41 11a83 83 0 0 1-2-8l-43 6a126 126 0 0 0 5 20l40-14a84 84 0 0 0 5 13l-38 19 11 17 35-25a84 84 0 0 1-5-8zm15 71a129 129 0 0 0 19 8l13-41a85 85 0 0 1-12-5l-20 38zm15-40 22-37a41 41 0 0 1-9-7l-60 61a128 128 0 0 0 15 13l25-35 7 5zm116-31-37-22-7 9 61 61 13-15-35-26a86 86 0 0 0 5-7zm-84-2-11 42 9 2-7 42a129 129 0 0 0 20 2v-87l-11-1zm52-40-1 11 42 11 2-9 42 7 2-20h-87z" fill="#fff"/></g><defs><clipPath id="a"><path fill="#fff" d="M0 0h256v256H0z"/></clipPath></defs></svg>