<svg xmlns="http://www.w3.org/2000/svg" width="256" height="256" fill="none"><circle cx="128" cy="128" r="128" fill="#F2BB15"/><path fill="#000" d="M199.8 130.8c-1.6 0-3.3-.3-4.9-.7h-.2l-.5-.3-1.6-.6h-.1c-2.1-1-4-2.5-5.4-4.3a14 14 0 0 1 0-18 16 16 0 0 1 6.9-4.8h.2c.8-.4 1.4-.6 2-.6l.4-.1c1-.2 2.2-.3 3.2-.3 6.6 0 12-1.9 15.8-5.4 3.5-3.3 5.3-7.8 5.3-13V64H181v19.5c0 4.8-3 11.4-8.4 13-3.5 1.2-7.7-.4-11.4 0-3 .3-5.9 1.2-8.5 2.7-5.1 3-8.6 8.2-9.2 13.8-.3 2.2-.1 3.8 0 5 0 1.3.1 1.7-.4 3-1 2.6-3 5-5.8 6.7-2.8 1.8-6 2.7-9.1 2.7h-.6c-3 0-6.3-1-9-2.7a14.2 14.2 0 0 1-6-6.7c-.4-1.3-.4-1.7-.3-3 .1-1.2.3-2.8 0-5a18.8 18.8 0 0 0-9.3-13.8 21.3 21.3 0 0 0-8.4-2.8c-3.7-.3-8 1.3-11.4.2-5.4-1.7-8.4-8.3-8.4-13.1V64H35.1v18.6c0 5.3 1.7 9.8 5.2 13 3.8 3.6 9.2 5.5 15.8 5.5 1 0 2.1 0 3.2.3h.5l1.9.6.3.1c2.7 1 5 2.6 6.8 4.8a14 14 0 0 1 0 18 16 16 0 0 1-5.3 4.2h-.2c-.6.4-1.1.6-1.6.7l-.5.2H61c-1.6.5-3.2.8-5 .8-12.5 0-21 7.2-21 17.9 0 8.4 4.1 12.7 7.6 14.9 4.2 2.6 9.2 3.4 14 3.8h.4c1.3.2 2.4.4 3.6.8l.7.2c3.3 1.1 6 3.2 7.8 6 1 1.6 1.6 3.7 1.8 5.9l.3 2.5c0 .6 0 1.3.2 2V201h39.5v-19a17.8 17.8 0 0 0-6.2-13.5l-.7-.6-.2-.1c-4.3-3.5-9.8-3.6-13.9-3.6h-2l-.5-.2-1.3-.3-1.3-.3-1.3-.5a17 17 0 0 1-3.8-2.2l-.3-.2a14.6 14.6 0 0 1-2.2-20.8c2-2.6 5-4.5 8.4-5.4 3.4-1 9.7-1 12.7 0 5.5 1.6 9.5 6.3 9.8 11.7v1.4c-.1 1.6-.2 3.8.8 6.5a20.2 20.2 0 0 0 19.1 12.8c8.7 0 16.3-5.2 19-12.8 1-2.7 1-4.9 1-6.5V146c.2-5.4 4.2-10.1 9.7-11.8 3-.9 9.3-.8 12.7.1 3.3 1 6.3 2.8 8.4 5.4a14.5 14.5 0 0 1-2.2 20.8l-.3.2c-1.1.9-2.4 1.6-3.8 2.2l-1.3.5-1.3.3-1.3.3-.6.1h-1.9c-4 .1-9.6.2-14 3.7l-.8.7-.4.4a17.8 17.8 0 0 0-5.8 13V201h39.5v-16.1l.2-2c0-.9.1-1.7.3-2.6.2-2.2.9-4.3 1.8-5.9 1.7-2.8 4.5-4.9 7.7-6h.1l.7-.2c1.2-.4 2.3-.6 3.6-.8h.3c4.9-.4 10-1.2 14.1-3.8 3.5-2.2 7.6-6.6 7.6-15 0-10.6-8.5-17.8-21-17.8h-.2Z"/></svg>