<svg xmlns="http://www.w3.org/2000/svg" width="256" height="256" fill="none"><path d="M128 256a128 128 0 1 0 0-256 128 128 0 0 0 0 256z" fill="#fff"/><path d="m114 68-86 97m181-76L28 165m87 24-87-24m88-98-28 74m32 46-31-47m27-76 93 18m-93-19 85 68m14-35-14 36m-83-70 4 130m90-100-90 100m73-56-69 53" stroke="#000" stroke-width="4"/><path d="M218 104a20 20 0 1 0 0-40 20 20 0 0 0 0 40z" fill="#ffc107"/><path d="M122 205a18 18 0 1 0 0-36 18 18 0 0 0 0 36z" fill="#2196f4"/><path d="M116 81a19 19 0 1 0 0-38 19 19 0 0 0 0 38z" fill="#f34335"/><path d="M89.5 154a14.5 14.5 0 1 0 0-29 14.5 14.5 0 0 0 0 29z" fill="#9c27af"/><path d="M32 178a15 15 0 1 0 0-30 15 15 0 0 0 0 30z" fill="#f34335"/><path d="M200.5 145a14.5 14.5 0 1 0 0-29 14.5 14.5 0 0 0 0 29z" fill="#8bc349"/></svg>