<svg xmlns="http://www.w3.org/2000/svg" width="256" height="256" fill="none"><path d="M128 256a128 128 0 1 0 0-256 128 128 0 0 0 0 256z" fill="#fff"/><path fill-rule="evenodd" d="M186.5 78.8a9.8 9.8 0 0 1 19.7 0v98.4a9.8 9.8 0 0 1-19.7 0V78.8zM50 78.8a9.8 9.8 0 0 1 19.7 0v98.4a9.8 9.8 0 0 1-19.7 0V78.8zm55.4 10.6a9.8 9.8 0 0 0-9.9 9.8v57.5a9.8 9.8 0 0 0 19.7 0V99.2c0-5.4-4.4-9.8-9.8-9.8zm35.6 26.3a9.8 9.8 0 0 1 19.7 0V140a9.8 9.8 0 0 1-19.7 0v-24.3z" fill="url(#a)"/><defs><linearGradient id="a" x1="50" y1="128" x2="206.2" y2="128" gradientUnits="userSpaceOnUse"><stop stop-color="#4400e2"/><stop offset=".4" stop-color="#f94e6c"/><stop offset="1" stop-color="#ffcb00"/></linearGradient></defs></svg>