<svg xmlns="http://www.w3.org/2000/svg" width="400" height="400" fill="none"><g clip-path="url(#a)"><path d="M200 400a200 200 0 1 0 0-400 200 200 0 0 0 0 400z" fill="#f0f0f0"/><path d="M400 200c0-79-46-148-113-180v360c67-32 113-101 113-180z" fill="#ce1126"/><path d="M0 200c0 79 46 148 113 180V20A200 200 0 0 0 0 200z" fill="#006847"/><path d="M148 200a52 52 0 1 0 104 0v-17H148v17z" fill="#6da544"/><path d="M270 165h-53a17 17 0 0 0-34 0h-53c0 10 9 18 18 18 0 9 8 17 17 17 0 10 8 17 18 17h34c10 0 18-7 18-17 9 0 17-8 17-17 9 0 18-8 18-18z" fill="#ff9811"/></g><defs><clipPath id="a"><path fill="#fff" d="M0 0h400v400H0z"/></clipPath></defs></svg>