<svg xmlns="http://www.w3.org/2000/svg" width="400" height="400" fill="none"><circle cx="200" cy="200" r="200" fill="#141414"/><g clip-path="url(#a)"><path d="m266 101-46 68c-3 5 3 11 8 7l45-40c1-1 3 0 3 2v123c0 2-2 2-3 1L136 98c-4-5-11-8-18-8h-5c-13 0-23 11-23 23v174a23 23 0 0 0 43 12l46-68c4-5-3-11-7-7l-45 39c-1 1-3 1-3-1V139c0-2 2-2 3-1l137 164c4 5 11 8 18 8h5c13 0 23-11 23-23V113c0-12-10-23-23-23-9 0-16 4-21 11z" fill="#fff"/></g><defs><clipPath id="a"><path fill="#fff" transform="translate(90 90)" d="M0 0h220v220H0z"/></clipPath></defs></svg>