<svg xmlns="http://www.w3.org/2000/svg" width="256" height="256" fill="none"><circle cx="128" cy="128" r="128" fill="#000"/><path fill="#fff" d="M123 49.9c3-1.8 7-1.8 10 0l60.1 34.7a10 10 0 0 1 5 8.7v69.4a10 10 0 0 1-5 8.7L133 206a10 10 0 0 1-10 0l-60.1-34.7a10 10 0 0 1-5-8.7V93.3a10 10 0 0 1 5-8.7L123 50Z"/><path fill="#000" d="M126.3 61a2 2 0 0 1 3.4 0l57.2 99a2 2 0 0 1-1.7 3H70.8a2 2 0 0 1-1.7-3l57.2-99Z" opacity=".9"/><circle cx="128.5" cy="128.5" r="29.5" fill="#fff"/><rect width="24" height="24" x="116" y="117" fill="#000" rx="1"/></svg>