<svg xmlns="http://www.w3.org/2000/svg" width="256" height="256" fill="none"><circle cx="128" cy="128" r="128" fill="#101010"/><path fill="#C20000" d="M115 46H83v164c10.5-2.4 21.5-3.7 32-4.1V46Z"/><path fill="url(#a)" d="M115 46H83v126a176 176 0 0 1 32-4.1V46Z"/><path fill="#C20000" d="M173 210V46h-31v160.2c18.1 1.2 31 3.8 31 3.8Z"/><path fill="url(#b)" d="M173 210V101h-31v105.2c18.1 1.2 31 3.8 31 3.8Z"/><path fill="#FA0000" d="M173 210 114.4 46H83l57.2 160.1c19 1.1 32.8 3.9 32.8 3.9Z"/><defs><linearGradient id="a" x1="77.3" x2="100.8" y1="123.1" y2="105" gradientUnits="userSpaceOnUse"><stop stop-color="#C20000" stop-opacity="0"/><stop offset="1" stop-color="#9D0000"/></linearGradient><linearGradient id="b" x1="177.5" x2="156.5" y1="147.1" y2="155.7" gradientUnits="userSpaceOnUse"><stop stop-color="#C20000" stop-opacity="0"/><stop offset="1" stop-color="#9D0000"/></linearGradient></defs></svg>