<svg fill="none" xmlns="http://www.w3.org/2000/svg" viewBox="0 0 256 256"><g clip-path="url(#a)"><path d="M241 171V85c0-3-2-6-4-8L134 2a9 9 0 0 0-7-2l-5 2L20 77a10 10 0 0 0-4 8v86c0 3 2 6 4 8l102 75c4 3 9 3 12 0l103-75c2-2 4-5 4-8Z" fill="#050708"/><path d="M116 21c1-1 2-3 4-3h16l3 3v16h-5l-1-1V23h-12v5h-5v-7Zm-13 7h6v23h-6V28Zm46 8h15v5h-15v-5Zm-29 3 6-1 6 11h-6l-6-10Zm20 6h5l14 21v7h-2l-12-18v20h-5V45Zm21 4h6v5h-6v-5Zm-89 2h15v5L71 66l-5-3 12-7h-6v-5Zm45 2h5v5h-5v-5Zm-26 5 9 13 8-13v8l-9 13-8-13v-8Zm78 1h25v5h-25v-5Zm-45 6h5v23l-2 2h-17l-3-2v-7h5v4h12V65Zm82 22V70h5v17h-5Zm-26-12h10l7 21h-6l-4-17h-3l-5 17h-5l6-21ZM38 77h23v6H38v-6Zm27 0h5v6h-5v-6Zm19 0h5v13h-5V77Zm134 4h6l6 11h-6l-6-11Zm-78 5h6v16h-6V86Zm18 6v-5h6v5h-6Zm-97 8 13-8h8l-12 8 12 8h-8l-13-8Zm145-5h5v6h-5v-6ZM24 96h26v5l-11 8-5-3 7-5H24v-5Zm76 5h22v5h-22v-5Zm27 0h6v5h-6v-5Zm25 8c-1-2 1-3 2-5l7 1v5h-4v12h19v5h-22c-1-1-3-2-2-4v-14Zm25-2h5v5h-5v-5Zm17 0h23v5h-23v-5Zm-107 6h13v5H87v-5Zm29 0h20c3 0 5 2 5 5v15l-3 2h-7v-5h5v-12h-20v-5Zm-48 2h10l6 21h-5l-5-17-2 1-5 16h-5l6-21Zm144 6h18c1 1 3 2 2 4v23h-5v-22h-12v4h-5v-7l2-2Zm-164 0h6v17h-6v-17Zm-16 5h5v5h-5v-5Zm62 31v-30h6l12 20c2 2 1 5 1 8h-2l-11-18v20h-6Zm24-26h5v13h-5v-13Zm32 6h5v5h-5v-5Zm17 0h16v5h-16v-5Zm22 1h5v18h-5v-18Zm-49 3h6v5h-6v-5Zm-82 4h23v5H58v-5Zm-34 4 2-3h7v5l-4 1v12h20v5h-5l-18-1-2-2v-17Zm136 3 2-2h17l3 2v17h-5v-14h-12v4h-5v-7Zm36 10 19-12 4 3-13 9h20v5h-30v-5m-71 1 19-12 4 3-13 9h20v5h-30v-5Zm-65-4 8 12 8-13v9l-8 13-8-13v-8Zm30 10v-5h5v5h-5Zm24 3h6v20h-6v-20Zm37 4h10l6 22h-5l-5-17h-2l-5 17h-5l6-22Zm-75 12 19-12 4 3-14 9h20v5H76v-5Zm52-11h5c3 4 5 7 6 11h-5l-6-11Zm73 2h6v6h-6v-6Zm-13 14 7-10v8l-1 2-8 11-8-13v-8l8 12 2-2Zm-135-5h14v5H53v-5Zm56 11h23l2 3v17l-2 2h-7v-4l4-1v-11l-20-1v-5Zm-35 2h5v6h-5v-6Zm92 3c2-1 4 1 5 2v1l-13 8h7v6h-17v-5l18-12Zm-83 5h22v5H83v-5Zm19 13h6c2 4 5 7 6 11h-5l-7-11Zm35 6h6l-1 5h-5v-5Zm-12 17v-12h6v12h-6Z" fill="#fff"/></g><defs><clipPath id="a"><path fill="#fff" d="M0 0h256v256H0z"/></clipPath></defs></svg>