<svg width="256" height="256" fill="none" xmlns="http://www.w3.org/2000/svg"><path d="M256 128a128 128 0 0 1-256 0" fill="#fff"/><path d="M0 128a128 128 0 0 1 256 0" fill="#000"/><path d="M128.5 222a93.5 93.5 0 1 0 0-187 93.5 93.5 0 0 0 0 187Z" fill="url(#a)" stroke="#000" stroke-miterlimit="10"/><path d="M165.6 179.3c2-3.1 4.8-5.7 6.5-10.2.3-.8 3-5.4 3.3-6.3.3-1.3 3.2-6.5 6.2-13.1a38 38 0 0 0 2.4-17.4c-.3-3-3-4.8-2.2-10.2 1-5.2.7-10.5-1-15.6-1.7-3.8-3.2-4-3.5-9.5-.5-4.5-2.2-8.9-4.8-12.6a56.8 56.8 0 0 0-64.8-19.7c-5.6 2.7-11.1 5.4-16.6 8.3-11.2 8-12.4 28.9-12.3 41.5.3 13 4.7 20.3 5.6 22.3l5.2 9.9a8.8 8.8 0 0 1 1.2 4.3v11a38.5 38.5 0 0 1-11.2 28 9.5 9.5 0 0 1-5 2.5 43 43 0 0 0-10.2 4 93.5 93.5 0 0 0 125.7 2.2c-5-2.2-16.8-7.1-25.3-6.3-11 1-12.3-2.5-12.6-3.5-.6-1.7 0-4.7 0-4.7 2.9-.4 11.8-2.4 13.3-4.9h.1Z" fill="#D9D9D9" stroke="#000" stroke-miterlimit="10"/><path d="m154.7 127.2 8.9 25.7v.2a.2.2 0 0 1-.2 0l-22.3.2" stroke="#000" stroke-miterlimit="10" stroke-linecap="round"/><path d="M168.2 127.4a3.7 3.7 0 1 0 0-7.4 3.7 3.7 0 0 0 0 7.4Z" fill="#000" stroke="#000" stroke-miterlimit="10"/><path d="M135.9 165.3H165M103.3 136s-.9 10.3 2 16.9c2.8 6.5 16.3 16.9 21.6 22.5a28.1 28.1 0 0 0 23.7 9l1.6-.2m-46.2-1.7s-5.5.6-6.7 5.5c-1.1 4.7-4.1 4.5-6.1 4.5m-11.4-.5-6.5.5m30.7-33.3s2.1 7.4-1.6 13.3m33.8 14.3c.3 1.1.6 2.2 1.1 3.2 1.6 3 3.1 2.5 3.1 2.5" stroke="#000" stroke-miterlimit="10" stroke-linecap="round"/><path d="M131 127.4a3.7 3.7 0 1 0 0-7.4 3.7 3.7 0 0 0 0 7.4Z" fill="#000" stroke="#000" stroke-miterlimit="10"/><defs><radialGradient id="a" cx="0" cy="0" r="1" gradientUnits="userSpaceOnUse" gradientTransform="matrix(93.4584 0 0 93.4653 128.5 128.5)"><stop offset=".5" stop-color="#97E8FF"/><stop offset=".6" stop-color="#94E6FF"/><stop offset=".7" stop-color="#8BE2FF"/><stop offset=".8" stop-color="#7BDAFF"/><stop offset=".9" stop-color="#65D0FF"/><stop offset="1" stop-color="#41BFFF"/></radialGradient></defs></svg>