<svg xmlns="http://www.w3.org/2000/svg" width="256" height="256" fill="none"><circle cx="128" cy="128" r="128" fill="#77B900"/><path fill="#fff" d="M51 119s17-26 53-28V81c-39 3-73 36-73 36s19 55 73 60v-10c-40-5-53-48-53-48Zm53 29v9c-30-6-38-36-38-36s14-16 38-19v10h-1c-12-1-22 10-22 10s6 20 23 26Zm0-84v17h3c44-1 73 36 73 36s-33 40-68 40h-8v10l7 1c32 0 55-16 78-36 3 3 19 10 22 14a194 194 0 0 1-107 31v15h121V64H104Zm0 38V91h3c32-1 53 27 53 27s-23 31-47 31l-9-1v-36c12 2 14 7 22 20l16-14s-12-16-32-16h-6Z"/></svg>