<svg xmlns="http://www.w3.org/2000/svg" width="256" height="256" fill="none"><g clip-path="url(#a)"><circle cx="128" cy="128" r="128" fill="url(#b)"/><path fill="#fff" d="M157 100.6V112A623.8 623.8 0 0 0 54 23a35 35 0 0 1 6.4-5c35.2 21.3 79 64 96.6 82.6Z"/><path fill="#fff" d="m173.8 194-79.4-75.9v67L61 151.7V69h26l78.6 75V69H199v125h-25.2ZM209 162v13.6c18.3 26.3 22.5 36.7 22.4 38.4.8-.4 3.6-2 5.6-7.6-5.6-13-21.1-35.4-28-44.4Z"/><path stroke="#fff" stroke-width="9" d="M4 86c22.8 33.6 93.4 118 180 170"/></g><defs><linearGradient id="b" x1="59" x2="194" y1="21.5" y2="235" gradientUnits="userSpaceOnUse"><stop stop-color="#57FCC8"/><stop offset="1" stop-color="#1622CE"/></linearGradient><clipPath id="a"><rect width="256" height="256" fill="#fff" rx="128"/></clipPath></defs></svg>