<svg xmlns="http://www.w3.org/2000/svg" width="256" height="256" fill="none"><path fill="#0052B4" d="M256 128a128 128 0 0 1-256 0C15.5 60 61 11.5 128 0a128 128 0 0 1 128 128Z"/><path fill="#F0F0F0" d="M127.5 128h.5v-.5l-.5.5Z"/><path fill="#F0F0F0" d="M128 67V0A128 128 0 0 0 0 128h67V90.5l37.5 37.5h23l.5-.5v-23L90.5 67H128Z"/><path fill="#D80027" d="M65 16.5C44.5 28 28 44.5 16.5 65v63H50V50h78V16.5H65Zm63 96L82.5 67H67l61 61v-15.5ZM221.5 95l3 8.5h9l-7.5 5 3 8.5-7.5-5-7 5 2.5-8.5-7-5h9l2.5-8.5Zm-32 61 4.5 13h13.5l-11 8 4 12.5-11-8-10.5 8 4-12.5-11-8h13.5l4-13ZM191 56l3.5 10.5h11l-9 6.5 3.5 11-9-6.5-9 6.5 3.5-11-9-6.5h11L191 56Zm-31 38.5 4.5 13h13L167 115l4 13-11-8-10.5 8 4-13-11-7.5H156l4-13Z"/></svg>