<svg xmlns="http://www.w3.org/2000/svg" width="256" height="256" fill="none"><g clip-path="url(#a)"><path d="M128 256a128 128 0 1 0 0-256 128 128 0 0 0 0 256z" fill="#3e51ff"/><g fill="#fff"><circle cx="128" cy="44" r="14"/><circle cx="128" cy="85" r="14"/><circle cx="170" cy="65" r="14"/><circle cx="170" cy="106" r="14"/><circle cx="128" cy="126" r="14"/><circle cx="87" cy="106" r="14"/><circle cx="87" cy="65" r="14"/><circle cx="211" cy="86" r="14"/><circle cx="46" cy="86" r="14"/><circle cx="46.5" cy="123.5" r="10.5"/><circle cx="169.5" cy="144.5" r="10.5"/><circle cx="87.5" cy="144.5" r="10.5"/><circle cx="128.5" cy="164.5" r="10.5"/><circle cx="211.5" cy="123.5" r="10.5"/><circle cx="211" cy="155" r="7"/><circle cx="170" cy="176" r="7"/><circle cx="129" cy="197" r="7"/><circle cx="87" cy="176" r="7"/><circle cx="46" cy="155" r="7"/><circle cx="46.5" cy="180.5" r="3.5"/><circle cx="87.5" cy="200.5" r="3.5"/><circle cx="128.5" cy="221.5" r="3.5"/><circle cx="169.5" cy="200.5" r="3.5"/><circle cx="211.5" cy="179.5" r="3.5"/></g></g><defs><clipPath id="a"><path fill="#fff" d="M0 0h256v256H0z"/></clipPath></defs></svg>