<svg xmlns="http://www.w3.org/2000/svg" width="256" height="256" fill="none"><g clip-path="url(#a)"><path fill="#000" d="M128 256a128 128 0 1 0 0-256 128 128 0 0 0 0 256Z"/><path fill="#fff" d="M202 153h-47a2 2 0 0 0-2 2v47c0 1.1.9 2 2 2h47a2 2 0 0 0 2-2v-47a2 2 0 0 0-2-2Zm-100 0H55a2 2 0 0 0-2 2v47c0 1.1.9 2 2 2h47a2 2 0 0 0 2-2v-47a2 2 0 0 0-2-2Zm50-51h-47a2 2 0 0 0-2 2v47c0 1.1.9 2 2 2h47a2 2 0 0 0 2-2v-47a2 2 0 0 0-2-2Zm50-51h-47a2 2 0 0 0-2 2v47c0 1.1.9 2 2 2h47a2 2 0 0 0 2-2V53a2 2 0 0 0-2-2Zm-100 0H55a2 2 0 0 0-2 2v47c0 1.1.9 2 2 2h47a2 2 0 0 0 2-2V53a2 2 0 0 0-2-2Z"/></g><defs><clipPath id="a"><path fill="#fff" d="M0 0h256v256H0z"/></clipPath></defs></svg>