<svg xmlns="http://www.w3.org/2000/svg" width="256" height="256" fill="none"><g clip-path="url(#a)"><path d="M128 256a128 128 0 1 0 0-256 128 128 0 0 0 0 256z" fill="url(#b)"/><g clip-path="url(#c)"><path d="M150.3 93.8 128.5 72 107 93.7l21.7 21.9 21.7-21.8zM207 93l-59 58a28 28 0 0 1-39 0L50 93l-21 21.5 59 58a57.5 57.5 0 0 0 81 0l59-58L207 93z" fill="#252322"/></g></g><defs><clipPath id="a"><path fill="#fff" d="M0 0h256v256H0z"/></clipPath><clipPath id="c"><path fill="#fff" transform="translate(29 72)" d="M0 0h199v117H0z"/></clipPath><linearGradient id="b" x1="250.5" y1="70.5" x2="16" y2="191" gradientUnits="userSpaceOnUse"><stop stop-color="#ff97d6"/><stop offset="1" stop-color="#f7ba93"/></linearGradient></defs></svg>