<svg xmlns="http://www.w3.org/2000/svg" width="400" height="400" fill="none"><g clip-path="url(#a)"><path d="M200 400a200 200 0 1 0 0-400 200 200 0 0 0 0 400z" fill="#000"/><path d="M81.6 154.3c-19.6 7-32.2 31.5-27.7 54.2a40.7 40.7 0 0 0 12 24c9.4 10.2 15.4 12.5 32 12.5 13 0 15-.5 22.3-4.4a43.8 43.8 0 0 0 22.6-36.5c2.1-23.3-11.4-45.2-31.2-50.8a64.6 64.6 0 0 0-30 1zm33.2 18.9c9 6.5 13.5 21.5 10.3 34.7-6 25.4-39.5 30.4-51 7.6-7-13.7-3.4-35 7.2-42.5a31.7 31.7 0 0 1 33.5.2zm172.4-18.5c-28.5 11.4-36.5 53.5-15 79 11.7 14 39.2 16.6 51.5 4.8l3.3-3.2.5 4.2c.4 3.8.9 4.1 8 4.1h7.6l.4-24 .5-23.9h-42.6V211h13c13.9 0 14.3.3 10.4 8.6-2.8 5.6-12.4 11.2-19.7 11.2-17.4 0-27.9-12.3-27.9-32.2.2-22 14.3-34.7 33.5-30.2 7.4 1.9 15 8.4 15 13.1 0 1.6 2.2 2.2 9 2.2h9l-2.1-6.9c-4.7-16-16.4-24-35.6-24.6-8.5-.3-13.2.3-18.8 2.6zM156 198.9v46h15.1l.3-31 .4-31 11.2 31 11.2 31.1 7.5-.5 7.5-.4 11-30.6 11-30.6.5 30.6.5 30.6 8 .4 7.8.5-.3-45.6-.5-45.6h-20.9l-12 34a237 237 0 0 1-13 32.9c-.7-.7-6-15.2-12.1-32.5s-11.8-32.3-12.5-33.4c-1-1-5.2-1.8-11-1.8H156v46z" fill="#fff"/><circle cx="200.5" cy="199.5" r="187.5" stroke="#fff" stroke-width="12"/></g><defs><clipPath id="a"><path fill="#fff" d="M0 0h400v400H0z"/></clipPath></defs></svg>