<svg xmlns="http://www.w3.org/2000/svg" width="320" height="320" fill="none"><rect width="320" height="320" rx="160" fill="#0564ff"/><g clip-path="url(#a)" fill="#fff"><path d="M271 130.2h-59.5v59.4h59.4v-59.4zM189.6 49 160 100.5l51.5 29.7 29.7-51.5L189.7 49zm-81.2 140.6-29.7 51.5 51.5 29.7 29.7-51.5-51.5-29.7zm.1-59.4H49.1v59.4h59.4v-59.4zm103 59.5L160 219.4l29.7 51.5 51.5-29.8-29.7-51.4zM130.3 49 78.8 78.7l29.7 51.5 51.5-29.7L130.3 49z"/></g><defs><clipPath id="a"><path fill="#fff" transform="translate(49 49)" d="M0 0h222v222H0z"/></clipPath></defs></svg>