<svg xmlns="http://www.w3.org/2000/svg" width="256" height="256" fill="none"><g clip-path="url(#a)"><path d="M128 255a127 127 0 1 0 0-254 127 127 0 0 0 0 254z" fill="#fff"/><path d="M137 256h-9a128 128 0 1 1 127-109h-18l1-19a110 110 0 1 0-110 110h66a128 128 0 0 1-57 18zm81-37h-90a91 91 0 1 1 91-91 92 92 0 0 1-2 19h-18a74 74 0 1 0-71 55h105a129 129 0 0 1-15 17zm-90-36h116l7-18H128a37 37 0 1 1 32-18h19a55 55 0 0 0 4-19 55 55 0 1 0-55 55z" fill="#000"/></g><defs><clipPath id="a"><path fill="#fff" d="M0 0h256v256H0z"/></clipPath></defs></svg>