<svg xmlns="http://www.w3.org/2000/svg" width="256" height="256" fill="none"><g clip-path="url(#a)"><path d="M128 256a128 128 0 1 0 0-256 128 128 0 0 0 0 256z" fill="#ff0420"/><path d="M74.1 175a41.6 41.6 0 0 1-25.3-7.3 25 25 0 0 1-9.8-21.2c0-1.9.2-4.2.6-7a403 403 0 0 1 4.8-22.6C50.3 92.9 65.5 81 90.1 81c6.6 0 12.7 1.1 18 3.4a26.7 26.7 0 0 1 17 25.6c0 1.8-.2 4.1-.6 6.9-1.4 7.7-2.9 15.3-4.7 22.6a48 48 0 0 1-15.8 26.8 47 47 0 0 1-29.9 8.7zm2-18.8c4.8 0 8.9-1.4 12.3-4.3 3.4-2.9 6-7.2 7.4-13.2a290 290 0 0 0 4.5-21.4c.4-1.9.6-3.7.6-5.7 0-8-4-11.9-12.3-11.9A19 19 0 0 0 76 104a24 24 0 0 0-7.3 13.3c-1.6 5.8-3.1 12.9-4.7 21.4-.4 1.7-.6 3.5-.6 5.5 0 8 4.2 12 12.5 12zm55 17.5c-1 0-1.6-.2-2.2-.9a3 3 0 0 1-.4-2.3l18-85c0-.9.6-1.6 1.4-2.3a3.8 3.8 0 0 1 2.5-.9H185a40 40 0 0 1 23.1 6c6 4 8.9 9.8 8.9 17.4 0 2.2-.3 4.5-.8 6.8a35 35 0 0 1-13.1 22.2 44.4 44.4 0 0 1-26.9 7.2h-17.5l-6 28.6c-.2 1-.6 1.7-1.4 2.3-.8.7-1.6 1-2.5 1h-17.7zm46-49.8c3.7 0 6.8-1 9.5-3 2.8-2 4.6-4.9 5.5-8.7.3-1.4.4-2.7.4-3.9 0-2.5-.7-4.4-2.2-5.7-1.4-1.4-4-2.1-7.5-2.1h-15.6l-5 23.4h15z" fill="#fff"/></g><defs><clipPath id="a"><path fill="#fff" d="M0 0h256v256H0z"/></clipPath></defs></svg>