<svg width="256" height="256" fill="none" xmlns="http://www.w3.org/2000/svg"><path d="M142 20h-9l-16-8c-2-1-2-2 1-2l35 2c2 0 3 1 0 2l-11 6ZM69 37c-3 0-3-1-1-2l27-22c2-2 6-2 9-1l20 10c3 1 3 3 0 3L69 37ZM150 27c-3-1-3-3 0-4l14-8c2-1 6 0 8 1l30 26c2 2 1 2-1 1l-51-16ZM57 36c-2 2-5 2-6 1l3-4 15-8c2-1 2-1 0 1L57 36ZM99 84c-1 2-4 3-6 1L62 49c-2-2-1-4 1-5l64-13c3-1 4 1 2 3L99 84ZM184 78c-2 1-5 1-7-1l-29-42c-1-2 0-3 2-2l58 19c2 1 3 3 1 5l-25 21Z" fill="#575E9D"/><path d="M171 79c2 2 1 4-2 4l-61 6c-3 1-4-1-3-3l30-51c2-2 4-2 6 0l30 44Z" fill="#3D4A70"/><path d="M216 45c2 1 3 3 2 4s-4 0-6-2l-10-11c-2-2-2-3 0-1l14 10ZM47 41c1 1 0 3-2 5L33 57c-2 1-2 1-1-1l10-13c2-2 4-3 5-2ZM89 89c2 2 1 4-2 5l-55 22c-2 1-4-1-3-3l23-60c1-2 3-3 5 0l32 36ZM222 54c1-1 3 0 4 2l8 15c1 2 1 2-1 0l-10-12c-2-2-2-4-1-5ZM24 109c-1 3-2 3-3 0l-7-21c-1-3 0-6 2-8l26-23c2-2 3-1 2 1l-20 51ZM228 121c1 3-1 4-3 2l-37-34c-2-2-2-5 0-7l25-21c2-2 4-1 4 2l11 58ZM248 103c2 2 2 6 0 8l-10 12c-1 2-3 2-3-1l-10-51c0-2 0-3 2-1l21 33ZM159 153c-1 2-3 3-5 1l-47-54c-2-3-1-4 1-5l63-6c2 0 4 2 3 4l-15 60Z" fill="#575E9D"/><path d="M168 157c-2 1-4 0-3-3l15-59c1-2 3-3 5-1l40 36c2 2 1 4-1 5l-56 22Z" fill="#3D4A70"/><path d="M18 117c0 3 0 7-2 9l-7 10c-2 2-3 2-3-1l4-34c0-3 1-3 2 0l6 16Z" fill="#575E9D"/><path d="M76 162c-1 2-3 3-5 1l-39-36c-2-2-2-4 1-5l55-22c3-1 4 1 4 3l-16 59Z" fill="#3D4A70"/><path d="M150 158c2 2 1 3-2 4l-62 6c-3 0-5-2-4-4l15-60c1-2 3-3 5-1l48 55Z" fill="#22BAD0"/><path d="M247 156c-1 3-2 3-3 0l-5-16c-1-3-1-7 1-9l8-10c1-2 2-2 2 1l-3 34ZM31 186c1 3 0 3-2 1L8 154c-2-2-1-6 0-8l10-12c1-2 3-2 4 1l9 51ZM44 196c-3 2-5 1-5-2l-11-58c0-3 1-4 3-2l37 34c2 2 2 5 0 7l-24 21ZM204 204c-1 2-3 3-5 1l-32-36c-1-3-1-5 2-6l55-22c2-1 4 1 3 3l-23 60ZM242 169c1 3 0 6-2 8l-26 23c-2 2-3 2-2-1l20-51c1-3 2-3 3 0l7 21ZM121 222c-2 2-4 2-6 0l-30-44c-2-2-1-4 2-4l61-6c3-1 4 1 3 3l-30 51ZM195 208c1 2 1 5-2 5l-64 13c-2 1-3-1-2-3l30-50c1-2 4-3 6-1l32 36ZM108 222c2 2 1 3-2 2l-58-19c-2-1-3-3-1-5l25-21c2-1 5-1 7 1l29 42ZM33 198c2 2 3 4 2 5-2 1-3 0-5-2l-8-14c-1-3 0-3 1-1l10 12ZM214 214c-2 2-4 3-5 2s0-3 2-5l12-10c2-2 2-2 1 0l-10 13ZM38 208c2-1 4 0 6 2l10 11c2 2 2 3 0 1l-13-10c-3-1-4-3-3-4ZM92 242c-2 1-6 1-8-1l-29-26c-2-1-2-2 1-1l50 16c3 1 3 3 0 4l-14 8ZM205 220c1 1-1 3-3 4l-14 8c-3 1-3 1-1-1l12-10c2-2 5-2 6-1ZM161 244c-2 2-6 2-9 1l-20-10c-3-1-2-3 0-3l55-12c3 0 3 1 1 2l-27 22ZM104 245c-3 0-3-1-1-2l11-6h9l16 8c3 1 2 2 0 2l-35-2Z" fill="#575E9D"/></svg>