<svg xmlns="http://www.w3.org/2000/svg" width="256" height="256" fill="none"><circle cx="128" cy="128" r="128" fill="url(#a)"/><circle cx="128" cy="128" r="128" fill="url(#b)" fill-opacity=".9"/><path fill="#fff" fill-rule="evenodd" d="M128.3 57h.4c17.5 0 33.6 6.7 45.9 17.8.8.8.3 2.2-.9 2.2H83.3a1.3 1.3 0 0 1-.9-2.2 68.7 68.7 0 0 1 46-17.8Zm-27.2 89.2A2.7 2.7 0 0 0 99 145H62.6c-1 0-1.8 1-1.5 2a70.5 70.5 0 0 0 67.4 51 70.5 70.5 0 0 0 67.4-51c.3-1-.4-2-1.5-2H158c-.8 0-1.6.5-2.1 1.2a33.2 33.2 0 0 1-54.8 0Zm54-38.6c.6.9 1.6 1.4 2.7 1.4h36.6c1 0 1.8-1 1.5-2.1a74.4 74.4 0 0 0-13-25c-.5-.6-1.2-.9-2-.9H76c-.7 0-1.4.3-2 1a74.4 74.4 0 0 0-13 24.9c-.2 1 .5 2.1 1.6 2.1h36.6c1 0 2-.5 2.7-1.4a33 33 0 0 1 26.6-13.7 33 33 0 0 1 26.6 13.7Zm5.7 33.4c-.6 0-1.1-.7-.9-1.4a36.3 36.3 0 0 0-.4-25.2c-.2-.6.3-1.4 1-1.4h35.8c.8 0 1.4.6 1.6 1.4a77.1 77.1 0 0 1 .2 25.2c-.2.8-.8 1.4-1.6 1.4h-35.7Zm-63.7-1.4c.2.7-.3 1.4-1 1.4H60.6c-.8 0-1.4-.6-1.6-1.4a77.2 77.2 0 0 1 .2-25.2c.2-.8.8-1.4 1.6-1.4h35.8c.7 0 1.2.8 1 1.4a36.2 36.2 0 0 0-.4 25.2Z" clip-rule="evenodd"/><defs><radialGradient id="b" cx="0" cy="0" r="1" gradientTransform="matrix(-11.5 151.5 -221.3 -16.8 181 23)" gradientUnits="userSpaceOnUse"><stop stop-color="#793B61"/><stop offset="1" stop-color="#793B61" stop-opacity="0"/></radialGradient><linearGradient id="a" x1="41.5" x2="121.5" y1="23.5" y2="232.5" gradientUnits="userSpaceOnUse"><stop stop-color="#714CFF"/><stop offset=".5" stop-color="#5A218E"/><stop offset="1" stop-color="#0C0216"/></linearGradient></defs></svg>