<svg xmlns="http://www.w3.org/2000/svg" width="182" height="182" fill="none"><path d="M168.2 71.1a69.3 69.3 0 0 1-18 46.4A69.1 69.1 0 0 1 106 140a37.8 37.8 0 0 0-33.6-41V7.4a69 69 0 0 1 87.6 31 69.3 69.3 0 0 1 8.2 32.7z" fill="#dedede"/><path d="M30.3 141.1a39.2 39.2 0 0 1 11.3-31.6A69.3 69.3 0 0 0 99 140.2a77.3 77.3 0 0 0 6.8-.3 38.4 38.4 0 0 1-37.3 35 38 38 0 0 1-38.3-33.8z" fill="#1e4480"/><path d="M72.4 7.5V99a37.8 37.8 0 0 1 33.5 40.9 75.7 75.7 0 0 1-6.8.3 69.7 69.7 0 0 1-32.6-8 69.3 69.3 0 0 1-25-22.7 38 38 0 0 1 22.2-10.4V11.8c2.7-1.6 5.6-3 8.7-4.3z" fill="#152e51"/><path d="M30 71.1a69 69 0 0 1 9-34 68.6 68.6 0 0 1 24.8-25.3V99c-8.3 1-16.1 4.6-22.2 10.5A68.2 68.2 0 0 1 30 71.1z" fill="#dedede"/></svg>