<svg xmlns="http://www.w3.org/2000/svg" width="256" height="256" fill="none"><circle cx="128" cy="128" r="128" fill="#44256B"/><path fill="#FBB44A" d="M102.33 182.85c0 2.63 2.79 2.23 4.18 1.7 3.81-1.47 11.88-4.07 13.23-4.53 1.59-.52 1.7-1.7 1.7-2.48v-63.68h14.02v68.31c0 3.4 2.26 3.01 3.96 2.5 4.19-1.3 12.82-4.1 14.03-4.87a2.53 2.53 0 0 0 1.24-2.26v-63.68h9.95c17.42 0 21.27-13 21.27-19.22V84.12h-19.23v10.52H92.15C74.23 94.64 71 108.09 71 114.2v12.22h19.23v-12.56h12.1v69Z"/><rect width="19.23" height="15.83" x="102.21" y="71" fill="#FBB44A" rx="2"/><rect width="19.23" height="15.83" x="135.24" y="71" fill="#FBB44A" rx="2"/><circle cx="128" cy="128" r="100" stroke="#FBB44A" stroke-width="16"/></svg>