<svg xmlns="http://www.w3.org/2000/svg" width="256" height="256" fill="none"><g clip-path="url(#a)"><path d="M128 256a128 128 0 1 0 0-256 128 128 0 0 0 0 256z" fill="#19072f"/><g fill-rule="evenodd" fill="#fff" stroke="#fff" stroke-miterlimit="1.5" stroke-linejoin="round"><path d="m173.6 154.7-46 27.5-46.1-27.3-.2 50 46.2 27.2 89-52.2-42.9-25.2z"/><path d="m127.4 24 .2 50.4 46.1 27v54.1l42.9-25.5-.2-54-89-52z"/><path d="m39 180.8 42.5-25.4v-54.3l46-26.8-42.6-25.2L39 75.9m0 104.9V75.9z" stroke-linecap="round"/></g></g><defs><clipPath id="a"><path fill="#fff" d="M0 0h256v256H0z"/></clipPath></defs></svg>