<svg xmlns="http://www.w3.org/2000/svg" width="256" height="256" fill="none"><circle cx="128" cy="128" r="128" fill="#F0F0F0"/><path fill="#020202" d="m200.6 155 13.4-13.4a3.3 3.3 0 0 0 0-4.7l-82.4-82.6c-.8-.8-2-1.3-3-1.3-1.2 0-2.4.5-3.2 1.3L79.7 100l-4.5 4.6L43 137a3.3 3.3 0 0 0 0 4.7L56.4 155a3.3 3.3 0 0 0 4.6 0l65.7-65.8c1-1 2.6-1 3.5 0L196 155a3.3 3.3 0 0 0 4.7 0Z"/><path fill="#020202" d="M151.5 171c-1.8 6-5.7 11.5-9.6 16.6-4 5.4-8.6 10.6-13.4 15.4-4.8-4.8-9.3-10-13.4-15.4a54.6 54.6 0 0 1-9.6-16.7c-2.8-9.4.4-20.4 7.7-26.8l.9-.7.9-.6.9-.6a22.4 22.4 0 0 1 2.9-1.6 24.1 24.1 0 0 1 25 3.5 26.5 26.5 0 0 1 7.7 26.8Z"/></svg>