<svg xmlns="http://www.w3.org/2000/svg" width="256" height="256" fill="none"><circle cx="128" cy="128" r="128" fill="#FEFEFE"/><path fill="#52D593" d="M65.5 196.5C21 156 93 97 93 97l68.5 62.5s-51.5 77.5-96 37Z"/><path fill="#1C8862" d="M76.05 191.3c-18.92-8.64-23.22-25.5-23.22-25.5s15.04 104.09 108.3-6.96l-9.65-9.29-31.68 34.94c-9.78 10.38-30.62 12.82-43.75 6.82Z"/><path fill="#BAD0D1" d="M187.62 73.34c-5.34-12.64-9.53-17.16-12.1-19.53 13.28 3.69 65.63 33.17-13.36 103.1-9.47-8.64-9.25-8.7-9.25-8.7l31.03-32.57c9.26-10.03 9.07-29.56 3.68-42.3Z"/><path stroke="#fff" stroke-linecap="round" stroke-width="3" d="m78 148-2.3 2.76m2.4 30.08 2.4 2.4m-7.88-24.06s-.54 2.22-.54 5.88c0 5.37 2.4 8.56 2.4 8.56"/><path fill="#174542" d="M187.63 61.58a42.24 42.24 0 0 0-59.66 2.95L98.94 96.58l62.62 56.71 29.02-32.04 5.9 5.33-63.4 69.98-5.88-5.33 29.02-32.05-62.61-56.71-29.03 32.04a42.24 42.24 0 1 0 62.62 56.72l5.89 5.33a50.19 50.19 0 0 1-70.65 3.72l-.24-.21a50.19 50.19 0 0 1-3.73-70.65l.22-.24 63.39-69.98a50.19 50.19 0 0 1 70.89-3.5l.24.21a50.19 50.19 0 0 1 3.26 70.67l-5.89-5.33a42.24 42.24 0 0 0-2.95-59.67Z"/></svg>