<svg xmlns="http://www.w3.org/2000/svg" width="256" height="256" fill="none"><circle cx="128" cy="128" r="128" fill="#fff"/><path fill="#009EE3" fill-rule="evenodd" d="M121.6 83.2h52.2c28 0 38.5 14.1 36.9 35-2.7 34.3-23.5 53.3-51 53.3h-14c-3.7 0-6.3 2.5-7.3 9.3l-6 39.4c-.3 2.5-1.7 4-3.7 4.2H96c-3.1 0-4.2-2.3-3.4-7.4l20-126.4c.7-5 3.5-7.4 9-7.4Z" clip-rule="evenodd"/><path fill="#113984" fill-rule="evenodd" d="M89 39.7h52.2c14.7 0 32.2.5 43.8 10.7A35.3 35.3 0 0 1 196 80c-3.2 39.9-27 62.2-59 62.2h-25.8c-4.4 0-7.3 2.9-8.5 10.7l-7.2 45.8c-.5 3-1.8 4.7-4 4.9H59.2c-3.5 0-4.8-2.7-3.9-8.7L78.5 48.4c1-6 4.2-8.7 10.5-8.7Z" clip-rule="evenodd"/><path fill="#172C70" fill-rule="evenodd" d="m103.4 148.3 9.1-57.7c.8-5 3.6-7.5 9.1-7.5h52.2c8.6 0 15.6 1.4 21 3.9-5.2 35.4-28.1 55.1-58.2 55.1H111c-3.4 0-6 1.8-7.5 6.2Z" clip-rule="evenodd"/></svg>