<svg xmlns="http://www.w3.org/2000/svg" width="256" height="256" fill="none"><g clip-path="url(#a)"><path d="M128 256c70.7 0 128-57.3 128-128S198.7 0 128 0 0 57.3 0 128s57.3 128 128 128z" fill="#e6dafe"/><g clip-path="url(#b)" fill="#110f23"><path d="M145.12 126.8c0 9.22-7.44 16.7-16.62 16.7v16.7c18.36 0 33.25-14.96 33.25-33.4s-14.89-33.4-33.25-33.4a32.93 32.93 0 0 0-16.63 4.47 33.4 33.4 0 0 0-16.62 28.93v83.5l14.95 15.02 1.67 1.68V126.8c0-9.22 7.45-16.7 16.63-16.7s16.62 7.48 16.62 16.7zM128.5 60a65.93 65.93 0 0 0-33.25 8.94 66.53 66.53 0 0 0-16.63 13.68A66.72 66.72 0 0 0 62 126.8v50.1l16.63 16.7v-66.8a50.08 50.08 0 0 1 16.62-37.34 50 50 0 0 1 16.63-9.9 49.3 49.3 0 0 1 16.62-2.86c27.54 0 49.88 22.43 49.88 50.1s-22.34 50.1-49.88 50.1v16.7c36.73 0 66.5-29.9 66.5-66.8S165.23 60 128.5 60z"/></g></g><defs><clipPath id="a"><path fill="#fff" d="M0 0h256v256H0z"/></clipPath><clipPath id="b"><path fill="#fff" transform="translate(62 60)" d="M0 0h133v167H0z"/></clipPath></defs></svg>