<svg xmlns="http://www.w3.org/2000/svg" width="400" height="400" fill="none"><circle cx="200" cy="200" r="200" fill="#000"/><g clip-path="url(#a)" fill="#fff"><path d="m119 60 80 95 55-32s-66-88-83-82l-52 19zm137 63s12-22 18-51c0 0 62 25 38 87l-56-36zm56 36 5 64 24-3s6-2 5-13l-3-38s1-6-13-8l-18-2zm5 64-47 39 22 42s5 16 20-2c14-19 20-22 19-33-1-12-4-38-14-46zm-48 39-64-29-57 114s-4 8 11 9c14 2 37 7 50-5 12-11 60-89 60-89zm-64-30-7-76-139 9s-8 1-7 16l3 44s-1 9 18 10c18 1 130 1 132-3z"/></g><defs><clipPath id="a"><path fill="#fff" transform="translate(52 41)" d="M0 0h294v318H0z"/></clipPath></defs></svg>