<svg xmlns="http://www.w3.org/2000/svg" width="256" height="256" fill="none"><circle cx="128" cy="128" r="128" fill="#193989"/><path fill="#fff" fill-rule="evenodd" d="m218.3 148.5 15.9 8-7.8 8h-7.9v-8l-11.9-4-19.8-19.8-15.9-7.9-15.8-23.8-8-8 4-11.9-11.9-11.9-8 8V93l-7.9 8 15.9 15.8-8 8 16 15.9v8l7.9 15.8h8l7.9-8-4-4-4-11.8h8l7.8 15.8 7.9 8-23.8 8-7.8 7.8-8-7.9-4-12-11.9-4v-8h-7.9l-3.9 20 4 11.9L105 188l-5.5-7.8 4-8v-7.8H91.7l-15.9 15.8-11.9-4v-15.8l-19.8-3.1-15.2 7.6-8.6-4.4v-16l8-4 31.6-15.8 3.9 4 12-12V109l15.7-16 8-15.8 11.9-19.8 19.8-4h8v7.9L155 77.2V93l23.8 23.8 23.8 15.9 11.9 4 3.8 11.8Z" clip-rule="evenodd"/></svg>