<svg xmlns="http://www.w3.org/2000/svg" width="256" height="256" fill="none"><circle cx="128" cy="128" r="128" fill="#FBEBEB"/><path fill="#AE0822" d="m175 50.3-.1-.3H81L34 128l47 77.7.1.3H175l47.1-78-47-77.7ZM95.2 84.5l-22.7 37.4H51.1l33.3-55.1 10.8 17.7Zm9.9 92.1h45.7l10.7 18H94.4l10.7-18Zm45.9-98h-46L94.7 61.6h66.8L151 78.7ZM105 165.2l-22.6-37.5L105 90.2H151l22.6 37.4-22.6 37.5H105Zm78.4-43.2-22.7-37.4 10.8-17.7 33.3 55h-21.4Zm-88.3 49L84.3 189l-33.7-55.7h22l22.6 37.5Zm110.2-37.5L171.7 189l-11-18.2 22.8-37.5h21.9Z"/></svg>