<svg width="256" height="256" fill="none" xmlns="http://www.w3.org/2000/svg"><g clip-path="url(#a)"><path d="M128 256a128 128 0 1 0 0-256 128 128 0 0 0 0 256Z" fill="url(#b)"/><path d="m128.2 143.4-.3 1.1a58.5 58.5 0 0 0 13.5 28.5c2.6 3 6.3 4.5 10.1 4.5 11.7 0 21.2-4.7 29-13.2 1.2-1.4 2.6-2.8 4-4.1 1.9-1.4 4.1-1.9 6.2-.5 2.2 1.3 2.5 3.2 2.2 5.5-.4 3-1.8 5.9-3.9 8.1a65.6 65.6 0 0 1-31.8 19.7c-11.6 2.9-21.1-.3-29-9a74.7 74.7 0 0 1-13-21.3l-5.7-15-1.5-3.8-2.3 5.8c-3.5 9.3-6.8 18.6-10.5 27.8-2 5.1-5 9.9-8.8 14-3 3-6.4 5-10.8 4.4a9 9 0 0 1-8.3-8.5c-.4-3.7.4-7.4 2.2-10.6l14-25.5c7.3-13.4 14.6-26.7 22.2-39.9 3.6-5.7 7.5-11.2 11.6-16.5 1.6-1.8 3.4-3.5 5.4-4.8a5.3 5.3 0 0 1 6.3-.4c2 1 3 3.2 2.5 5.4-.3 2.5-.8 5-1.7 7.4-3.2 7.7-6.6 15.3-10 23l-1 2.2c3.1.5 6.4.4 9.5-.4a44.8 44.8 0 0 0 34.4-35.2 20.9 20.9 0 0 0-13.3-23.9c-5-2-10.4-3-15.8-2.9-6.7 0-13.1.4-19.6 2.3A39 39 0 0 0 91.4 86c-2.4 4-4.8 8-7.4 11.8-1.7 3-4.5 5-7.8 5.7-5.9 1.4-12.7-1.7-12.2-9.9.4-5.3 2.7-9.9 5.7-14 7-9.6 16.1-16.3 26.6-21.2 13-6.2 27.5-9 42-8.2 10.6.6 20.5 3.2 29.6 9a37.1 37.1 0 0 1 12.6 49.4 64.5 64.5 0 0 1-27.2 25.7 93.8 93.8 0 0 1-25.1 9.2Z" fill="#fff"/></g><defs><linearGradient id="b" x1="121.5" y1="0" x2="123.5" y2="251.5" gradientUnits="userSpaceOnUse"><stop stop-color="#C448CB"/><stop offset="1" stop-color="#8A2ADF"/></linearGradient><clipPath id="a"><path fill="#fff" d="M0 0h256v256H0z"/></clipPath></defs></svg>