<svg xmlns="http://www.w3.org/2000/svg" width="256" height="256" fill="none"><circle cx="128" cy="128" r="128" fill="#F6E8D7"/><path fill="#AEBFC3" d="M128 200H56l36-36 36 36Z"/><path fill="#6696AE" d="M128 56a72 72 0 0 0-72 72h72V56Z"/><path fill="#8AAAB8" d="m56 128 72 72h72l-72-72H56Z"/><path stroke="#F6E8D7" stroke-linecap="round" stroke-linejoin="round" stroke-width="8.5" d="M128 200H56l36-36 36 36ZM128 56a72 72 0 0 0-72 72h72V56Z"/><path stroke="#F6E8D7" stroke-linecap="round" stroke-linejoin="round" stroke-width="8.5" d="m56 128 72 72h72l-72-72H56Z"/><path fill="#4281A4" d="M200 128c0 20-8 38-21 51l-51-51V56a72 72 0 0 1 72 72Z"/><path fill="#4281A4" d="M128 58a69.8 69.8 0 0 1 64.7 43.4 70.6 70.6 0 0 1-15.2 76.6L128 128.3V58Z"/><path stroke="#F6E8D7" stroke-linecap="round" stroke-linejoin="round" stroke-width="8.5" d="M200 128c0 20-8 38-21 51l-51-51V56a72 72 0 0 1 72 72h0Z"/></svg>