<svg xmlns="http://www.w3.org/2000/svg" width="256" height="256" fill="none"><path d="M128 256a128 128 0 1 0 0-256 128 128 0 0 0 0 256z" fill="#c4ff61"/><path d="M235 138v.6a106.7 106.7 0 0 1-95 96.4h-1l96-97zM175.9 32l-8.2-3.6a114 114 0 0 0-39-7.4c-3.6 0-7.2.2-10.8.4A107.7 107.7 0 0 0 54 51.1l-3.4 3.4a107.9 107.9 0 0 0-29 64.2 107.4 107.4 0 0 0 7.2 49.7l3.7 8.7c2.5 4.8 5.2 9.5 8.4 13.9l17.7-17.9L172.3 58 190 40a111 111 0 0 0-14.1-8.1zM48.2 148.9a86.6 86.6 0 0 1-2.3-20.2A82 82 0 0 1 68.4 72l3-3a82.4 82.4 0 0 1 74.3-21.5l2.6.7L48.2 148.9zM91 230l-7.8-3.2c-5.3-2.5-10.3-5.2-15.2-8.6L217 68a136.6 136.6 0 0 1 12 23L91 230z" fill="#000"/></svg>