<svg xmlns="http://www.w3.org/2000/svg" width="256" height="256" fill="none"><path fill="url(#a)" d="m128.3 1.3 110 63.5v127l-110 63.5-110-63.5v-127l110-63.5Z"/><path fill="#F1F1F3" d="M117.4 117.8v8.4h23.5c6.3 0 10-4 12-7.6 2-3.6 3.3-9.9 0-14.4-3-4.1-7-6.5-12-6.5h-23.5v8.2h8.6v2.8H86v-15H67.4V72.2h82.4c3.7 0 10.8.3 21 6.7 12.8 8 18.6 22.2 14.7 42a29.8 29.8 0 0 1-23.1 23.3l27 39h-35.9l-23-33.8h-13v33.8H86v-46H67.3V115H126v2.8h-8.6Z"/><defs><linearGradient id="a" x1="27.3" x2="225.3" y1="61.3" y2="194.8" gradientUnits="userSpaceOnUse"><stop stop-color="#EA862F"/><stop offset="1" stop-color="#FFBF4B"/></linearGradient></defs></svg>