<svg xmlns="http://www.w3.org/2000/svg" width="256" height="256" fill="none"><g fill-rule="evenodd"><path d="M128 0c70.66 0 128 57.34 128 128s-57.34 128-128 128S0 198.66 0 128 57.34 0 128 0z" fill="#cf1011"/><path d="M128.2 98.05a30.3 30.3 0 1 1 0 60.61 30.3 30.3 0 0 1 0-60.61zm.72-48.95a80 80 0 0 1 51.91 19.97l.2.2a78.57 78.57 0 0 1 26.32 54.38 79.25 79.25 0 0 1-19.76 57.34l-.2.2A78.56 78.56 0 0 1 133 207.53a79.26 79.26 0 0 1-57.34-19.77 78.65 78.65 0 0 1-26.52-54.58A79.26 79.26 0 0 1 68.9 75.83l6.86 6.04a70.1 70.1 0 0 0 5.94 98.92 70.1 70.1 0 0 0 98.92-5.94l.2-.2a69.62 69.62 0 0 0 17.3-50.49 70.1 70.1 0 0 0-23.44-48.23l-.2-.2a69.75 69.75 0 0 0-21.1-12.8 71.16 71.16 0 0 0-24.47-4.71l.1-9.22-.1.1z" fill="#fff"/></g><path d="M83.14 49.62a19.92 19.92 0 0 1 19.87 19.87 19.92 19.92 0 0 1-19.87 19.87c-5.53-.01-10.44-2.27-14.03-5.85s-5.83-8.6-5.83-14.03c0-5.53 2.25-10.44 5.83-14.03s8.6-5.84 14.03-5.84zM90.72 62a10.67 10.67 0 0 0-15.16 0 10.67 10.67 0 0 0 0 15.15 10.65 10.65 0 0 0 15.16 0 10.67 10.67 0 0 0 0-15.16z" fill="#fff"/></svg>