<svg xmlns="http://www.w3.org/2000/svg" width="256" height="256" fill="none"><circle cx="128" cy="128" r="128" fill="#6C3C97"/><path fill="#fff" d="M69 114.7c0-5.2-4.3-9.4-9.4-9.4H55V124h4.6c5.1 0 9.3-4.2 9.3-9.3ZM90 152H73l-13.5-18.7H55V152H40V96h21.5c12.3 0 22.4 8.4 22.4 18.7 0 6.3-3.9 12-9.7 15.4L90 152Z"/><path fill="#fff" d="M107 118c-4 0-7.4 5.3-7.4 12s3.4 12 7.4 12 7.4-5.3 7.4-12-3.4-12-7.4-12Zm23 12a23 23 0 1 1-46 0 23 23 0 0 1 46 0ZM165.3 108 148 125.4V108h-15v44h15v-17.8l18 17.9H185l-23-23 19-19v26.2c0 8.7 5.3 16.7 18.4 16.7 6.3 0 12-3.5 14.8-6.7l6.7 5.8h3.2v-44h-15v28.5c-1.7 2.9-4 4.8-7.7 4.8s-5.3-2.2-5.3-9.2V108h-30.7Z"/></svg>