<svg xmlns="http://www.w3.org/2000/svg" width="256" height="256" fill="none"><g clip-path="url(#a)"><path fill-rule="evenodd" d="M45 41v143.7a18 18 0 0 0 6.7 14l67.9 54.4a13.5 13.5 0 0 0 16.8 0l67.9-54.4a18 18 0 0 0 5-6.3 18 18 0 0 0 1.7-7.7V40.9A18 18 0 0 0 193 23H63a18 18 0 0 0-18 18z" fill="#004de5"/><path d="M177 106.4v-31c0-4-1.7-8-4.6-10.9a15.8 15.8 0 0 0-11.1-4.5H94.7a15.8 15.8 0 0 0-11.1 4.5c-3 3-4.6 6.9-4.6 11v89.8c0 2.3.5 4.6 1.5 6.7a15.5 15.5 0 0 0 4.4 5.3l24.2 19.3a2 2 0 0 0 1 .4 2 2 0 0 0 1.1-.2c.4-.1.6-.4.8-.7a2 2 0 0 0 .3-1v-63.5a2 2 0 0 1 .6-1.4 2 2 0 0 1 1.4-.6h17.6c3.1 0 6.1 1.3 8.3 3.4s3.5 5.2 3.5 8.2v53.9a2 2 0 0 0 .3 1 2 2 0 0 0 .8.7 2 2 0 0 0 2-.2l24.3-19.3a15.5 15.5 0 0 0 5.9-12v-28c0-4-1.7-8-4.6-10.9a15.8 15.8 0 0 0-11-4.5 15.8 15.8 0 0 0 11-4.5c3-3 4.6-6.9 4.6-11zm-45.1 7.8h-17.6a2 2 0 0 1-1.4-.6 2 2 0 0 1-.6-1.4V77.4a2 2 0 0 1 .6-1.4 2 2 0 0 1 1.4-.5h27.4a2 2 0 0 1 1.4.5c.4.4.6.9.6 1.4v25.2a11.5 11.5 0 0 1-3.5 8.2 11.8 11.8 0 0 1-8.3 3.4z" fill="url(#b)"/></g><defs><linearGradient id="b" x1="128" y1="60" x2="128" y2="197" gradientUnits="userSpaceOnUse"><stop stop-color="#fff"/></linearGradient><clipPath id="a"><path fill="#fff" d="M0 0h256v256H0z"/></clipPath></defs></svg>