<svg xmlns="http://www.w3.org/2000/svg" width="256" height="256" fill="none"><path d="M128 256a128 128 0 1 0 0-256 128 128 0 0 0 0 256z" fill="#040129"/><path fill-rule="evenodd" d="M197.4 75.3A68.3 68.3 0 0 0 144 48c-41 0-71.2 38.2-71.2 79.6 0 28.8 19.2 50.4 40.4 50.4 2 0 4-.1 6-.5a61.7 61.7 0 0 1-23.4-49.9c0-32.7 22.1-58.3 48.2-58.3 28.5 0 48.3 28.3 48.3 58.3-.2 22.2-8 44.2-22 60.4a75.2 75.2 0 0 1-45 26l3.3.1a86.6 86.6 0 0 0 69-138.7zm-13 52.2c0-28.8-19.3-50.4-40.5-50.4-2 0-4 .1-6 .5a61.7 61.7 0 0 1 23.4 49.9c0 32.7-22.1 58.3-48.2 58.3-28.5 0-48.3-28.3-48.3-58.3.2-22.2 8-44.2 22-60.4a75.2 75.2 0 0 1 45-26l-3.3-.1a86.6 86.6 0 0 0-69 138.7 68.1 68.1 0 0 0 53.6 27.3c41 .1 71.2-38.1 71.2-79.5z" fill="#0089db"/></svg>