<svg fill="none" xmlns="http://www.w3.org/2000/svg" viewBox="0 0 256 256"><path fill-rule="evenodd" clip-rule="evenodd" d="M128 256a128 128 0 0 0 0-256 128 128 0 0 0 0 256Z" fill="#000"/><path fill-rule="evenodd" clip-rule="evenodd" d="M95 62h19l1 1v27l1 1h24l1-1V63l1-1h19l1 1v27l1 1h23l1 1v19l-1 1h-23l-1 1v29l1 1h23l1 2v18l-1 1h-23l-1 1v27l-1 2h-19l-1-2v-27l-1-1h-24l-1 1v27l-1 2H95l-1-2v-27l-1-1H70l-1-1v-18l1-2h23l1-1v-29l-1-1H70l-1-1V92l1-1h23l1-1V63l1-1Zm46 80v-29l-1-1h-24l-1 1v29l1 1h24l1-1Z" fill="#fff"/></svg>