<svg xmlns="http://www.w3.org/2000/svg" width="256" height="256" fill="none"><path d="M128 256a128 128 0 1 0 0-256 128 128 0 0 0 0 256z" fill="#0a021c"/><path d="M120.2 181.2 69 218l32.5-149.6 18.7 112.8zm1-.3 31.1.4-49.6-112.4 18.5 112zm34-2.5 24-88.5-9.1-11-14.8 99.5zM143.9 39.6l-39.3 26.5L162 47.5l-18.1-7.9zm-5 0-24.3.8-3.6 10.2 28-11z" fill="#384182"/><path d="m168.4 75.4-62.8-8.6L162.2 49l6.2 26.4zm-15-33.2 3.5-9.4-18-7.9 14.6 17.3zm5.3-10.3 4.1 14.7 24.1-6.4-28.2-8.3z" fill="#f79534"/><path d="M153.7 180.7 103.4 67.9 169 77l-15.3 103.6zM142 39.7l-31 12-7.5 13.9 38.5-26zm-19.3-9.3L115 39l25.7-.6-18-8zm13.6-6.7L124 29.4l28 12.4-15.7-18zm14-.7H137l20.5 8-7.3-8zm7.7 10.5-3.2 9.5 6.3 3-3.1-12.5z" fill="#f0513a"/></svg>