<svg xmlns="http://www.w3.org/2000/svg" width="256" height="256" fill="none"><path d="M128 256a128 128 0 1 0 0-256 128 128 0 0 0 0 256z" fill="url(#a)"/><path d="M208 128h-19c-6 0-11 5-11 11v28c0 6-5 10-10 10H90c-6 0-11 5-11 11v19c0 6 5 11 11 11h82c6 0 11-5 11-11v-15c0-6 4-10 10-10h15c6 0 11-5 11-11v-33c0-5-5-10-11-10zM79 89c0-6 5-10 10-10h78c6 0 11-5 11-11V49c0-6-5-11-11-11H85c-6 0-11 5-11 11v15c0 5-4 10-10 10H49c-6 0-11 5-11 11v33c0 6 5 10 11 10h19c6 0 11-5 11-11V89zm40 18h19c6 0 11 5 11 11v19c0 6-5 11-11 11h-19c-6 0-11-5-11-11v-19c0-6 5-11 11-11z" fill="#121312"/><defs><linearGradient id="a" x1="32.5" y1="210.5" x2="218.5" y2="39" gradientUnits="userSpaceOnUse"><stop stop-color="#13fe82"/><stop offset="1" stop-color="#4fe3e5"/></linearGradient></defs></svg>