<svg xmlns="http://www.w3.org/2000/svg" width="256" height="256" fill="none"><g clip-path="url(#a)"><path d="M128 256a128 128 0 1 0 0-256 128 128 0 0 0 0 256z" fill="#ff8b00"/><path d="m131 228-18-4 6-25-15-2-6 23-18-5 6-24c-6-2-28-12-39-22l15-19c12 9 45 27 70 26 29-1 25-22 9-29-90-42-73-71-56-86 9-7 19-9 38-7l7-27 18 5-6 25 15 3 6-25 18 5-6 26c5 1 22 12 30 17-1 1-3 6-14 18-39-25-73-27-80-15-4 8 4 16 11 21l41 23c21 13 35 33 23 55-10 17-39 17-49 16l-6 27z" fill="#fff"/></g><defs><clipPath id="a"><path fill="#fff" d="M0 0h256v256H0z"/></clipPath></defs></svg>