<svg xmlns="http://www.w3.org/2000/svg" width="256" height="256" fill="none"><circle cx="128" cy="128" r="128" fill="#DE2523"/><path fill="#fff" d="m134.7 33.5 73.9 41.2c4.3 2.4 7.1 7.2 7.3 12l.1 82.1a15 15 0 0 1-7 12.2l-73.6 41c-4.3 2.5-10 2.5-14.4.3 0 0-71-39.8-73.6-41-6.9-4.3-7.2-10-7.4-12.5V87.2c0-4.8 2.5-9.3 6.7-12 0 0 51.8-28.7 73.9-41.3 5.9-3.4 11.8-1.4 14-.4Zm-9.3 10.1L53.6 82.8c-.7.4-2.5 2-2.5 3.9l-.1 82.1c0 1.6 1 3.2 2.3 4.2l72.1 39.4c2.1 1.2 4.4.3 5.2 0l71.8-39.3c1.4-.8 2.4-2.8 2.6-4.3V87.2c0-.8 0-2.7-2.3-4.2l-72.1-39.4a5.8 5.8 0 0 0-5.2 0ZM128 100l54.5 30.5c3.5 2 5.8 6.2 6 10v12c0 4-2 7.5-5.3 9.7l-48.8 27.3c-1.7 1-6.4 3-11.7.2l-49-27.1c-3.5-2-6-6.2-6.2-10v-17.1l11 6.5v10.5c0 .7.5 1.4 1 1.8l47.7 25.5a2.4 2.4 0 0 0 2 .2l47.1-25.6c.3-.1 1.1-1 1.1-1.5l.1-12.4c0-1-.7-1.6-1-1.8L128 111.5V100Zm6.7-38.9L181 88c4.4 2.5 7.2 7.7 7.5 12.5v15l-11-5.5v-9.5c0-.4 0-2.4-2-4L130.2 71c-.8-.4-2.3-1.1-4.7-.3L81 96.1c-1 .4-2.5 1.9-2.4 3.8l-.1 9.3c0 1.6 1 3.3 2.3 4.2l47.2 27.2v10.9l-53-29.8a14.4 14.4 0 0 1-5.3-4.9c-1.3-2-2-5.2-2.3-7.6v-8.8a16 16 0 0 1 7.4-12.5l45.3-26.5a16.3 16.3 0 0 1 14.6-.3Z"/></svg>