<svg xmlns="http://www.w3.org/2000/svg" width="256" height="256" fill="none"><path d="M168.5 132.5v37h-36.8a36.7 36.7 0 0 1-20.5-6.3 36.9 36.9 0 0 1-5.5-56.8 36.8 36.8 0 0 1 18.8-10 36.7 36.7 0 0 1 21.3 2 36.8 36.8 0 0 1 16.5 13.6 37 37 0 0 1 6.2 20.5M132.2 71c-8-.2-16.1 1.1-23.6 4a61.3 61.3 0 0 0-20.3 12.7 61.5 61.5 0 0 0-14 19.6 61.7 61.7 0 0 0-5.3 23.4 61.7 61.7 0 0 0 16.7 44 61.4 61.4 0 0 0 19.5 14 61.2 61.2 0 0 0 23.3 5.3H193v-60.8c0-33.9-27-62-60.8-62.2z" fill="#20ee82"/><path d="M217.4 46.6A121.5 121.5 0 0 0 64.5 31c1.4 1.5 2.6 3.2 3.5 5a115.6 115.6 0 0 1 145 15 115.4 115.4 0 1 1-196.2 93.2A115.6 115.6 0 0 1 35.2 69c-1.8-1-3.5-2.2-5-3.5a121.5 121.5 0 1 0 187.2-19z" fill="#7f8c8d"/><path d="M37.5 38.5a12 12 0 0 1 13-2.6 12 12 0 0 1 7.5 11 12 12 0 0 1-7.4 11.2 12 12 0 0 1-13-2.6h-.1a12 12 0 0 1 0-17z" fill="#20ee82"/></svg>