<svg xmlns="http://www.w3.org/2000/svg" width="256" height="256" fill="none"><circle cx="128" cy="128" r="128" fill="#FAECDC"/><path fill="#EB4C2C" d="M216 93.3a7.5 7.5 0 0 0-3.7-6.6l-75-44.3a17.1 17.1 0 0 0-17.5 0l-75 44.4a7.6 7.6 0 0 0-3.8 6.4V105a7.5 7.5 0 0 0 3.7 6.8l26.4 15.6c.5.3.5 1 0 1.2l-26.4 15.6a7.6 7.6 0 0 0-3.7 6.5v12c0 2.7 1.4 5.2 3.7 6.5l75 44.4a17.1 17.1 0 0 0 17.5 0l75-44.4a7.5 7.5 0 0 0 3.8-6.5v-12a7.5 7.5 0 0 0-3.7-6.5l-26.4-15.6a.7.7 0 0 1-.3-1l.3-.2 26.4-15.6a7.6 7.6 0 0 0 3.7-6.5v-12Zm-92.7 24.4a10.2 10.2 0 0 1 10.4 0L151 128l-17.4 10.3a10.2 10.2 0 0 1-10.4 0L106 128l17.3-10.3Zm75.3 38.4c.5.3.5 1 0 1.2l-65 38.4a10.2 10.2 0 0 1-10.3 0l-65-38.4a.7.7 0 0 1 0-1.2l12.2-7.2a7.8 7.8 0 0 0 3.9-6.7V131c0-.6.7-1 1.3-.7l44 26a17.2 17.2 0 0 0 17.5 0l12.9-7.6a7.8 7.8 0 0 0 3.8-6.8v-10.6a.9.9 0 0 1 .8-.9l.5.1 43.4 25.7ZM182.5 125c0 .7-.7 1-1.3.7l-44-25.9a17.2 17.2 0 0 0-17.4 0l-13 7.7a7.8 7.8 0 0 0-3.8 6.7v11c0 .4-.5.7-1 .5L58.4 99.9a.7.7 0 0 1 0-1.2l65-38.4a10.2 10.2 0 0 1 10.3 0l65 38.4c.4.3.4.9 0 1.2l-12.4 7.2a7.8 7.8 0 0 0-3.8 6.7V125Z"/></svg>