<svg xmlns="http://www.w3.org/2000/svg" width="256" height="256" fill="none"><g clip-path="url(#a)"><path d="M127 255a127 127 0 1 0 0-254 127 127 0 0 0 0 254z" fill="#fff"/><path fill-rule="evenodd" d="M127.7 255.8c38 0 72.2-16.4 95.7-42.6a30.4 30.4 0 0 0-39-.6l-2.2 1.8a51.5 51.5 0 0 1-70.6-5.7 27.3 27.3 0 0 0-38.3-2.5l-25.7 21.9a128 128 0 0 0 80.1 27.9v-.2zm41.6-61.8a54.7 54.7 0 0 1 68.3 0 126.8 126.8 0 0 0 18.4-66c0-26.9-8.2-51.9-22.4-72.3-9.2-2-19 .3-26.6 7l-2.2 1.8A51.5 51.5 0 0 1 134 62a27.4 27.4 0 0 0-38.4-.7l-30 27.9-16.3-17.4 30-28a51.6 51.6 0 0 1 71.8 1.5c10.3 10.3 27 11 37.8 1.4l2.2-1.9a55.2 55.2 0 0 1 22.4-12A128.2 128.2 0 0 0 127.6 0C62.4 0 8.6 48.4.3 111a52.6 52.6 0 0 1 60.4 10.7 28.7 28.7 0 0 0 38.1 2.5l16.7-13A55.7 55.7 0 0 1 186 113l32.5 28.3-15.7 18-32.5-28.3a31.6 31.6 0 0 0-40.2-1l-16.6 13a52.8 52.8 0 0 1-70-4.7 28.6 28.6 0 0 0-40-1L0 140.9c2.6 26.6 13.7 51 30.3 70.2l27.4-23.4a51.5 51.5 0 0 1 71.7 4.8 27.5 27.5 0 0 0 37.7 3.1l2.2-1.8v.3z" fill="#7b230a"/></g><defs><clipPath id="a"><path fill="#fff" d="M0 0h256v256H0z"/></clipPath></defs></svg>