<svg xmlns="http://www.w3.org/2000/svg" width="400" height="400" fill="none"><mask id="a" maskUnits="userSpaceOnUse" x="0" y="0" width="400" height="400" mask-type="alpha"><path d="M200 400a200 200 0 1 0 0-400 200 200 0 0 0 0 400z" fill="#d9d9d9"/></mask><g mask="url(#a)"><path d="M0 0h600v400H0V0Z" fill="#fff"/><path d="M0 0h600v200H0V0Z" fill="#ed2939"/><path d="M183.6 176.2a73.6 73.6 0 1 0 0-147.2 73.6 73.6 0 0 0 0 147.2z" fill="#fff"/><path d="M217 176.2A73.6 73.6 0 1 0 217 29a73.6 73.6 0 0 0 0 147.2z" fill="#ed2939"/><path d="M223.9 41.2 212.6 76l29.5-21.4h-36.4L235.2 76l-11.3-34.7zm58.4 42.4h-36.5l29.5 21.5L264 70.4l-11.2 34.7 29.5-21.5zm-94.5 68.7 29.5-21.5h-36.5l29.5 21.5-11.2-34.7-11.3 34.7zm72.2 0-11.3-34.7-11.3 34.7 29.5-21.5h-36.4l29.5 21.5zm-94.5-68.7 29.5 21.5-11.3-34.7-11.2 34.7L202 83.6h-36.5z" fill="#fff"/></g></svg>