<svg xmlns="http://www.w3.org/2000/svg" width="256" height="256" fill="none"><circle cx="128" cy="128" r="128" fill="#fff"/><path fill="#1E35BF" d="M78 65c-32.4 0-43.5 74.6-46 94.8-.2 1.7 2 2.6 3.3 1.4C99 104 128.5 190 153.8 190c-14.1 0-24.5-39.6-37.6-74.2C106.2 89 94.4 65 78 65Z"/><path fill="#644DE8" d="M220.9 159.2c1.2 1.5 3.6.5 3.3-1.4-2.9-18.4-12.5-67.2-32.7-67.2-12.3 0-15.5 24.7-18.7 49.4v.1c27.1 0 37.4 6 48 19Z"/><path fill="#DDB1FF" d="M116.2 115.8c13 34.6 23.5 74.2 37.6 74.2 12.6 0 15.8-25 19-49.9 3.2-24.8 6.4-49.5 18.7-49.5-24.8 0-37.7 90-75.3 25.2Z"/></svg>