<svg xmlns="http://www.w3.org/2000/svg" width="256" height="256" fill="none"><circle cx="128" cy="128" r="128" fill="url(#a)"/><circle cx="121" cy="103" r="6" fill="#fff"/><path fill="#fff" d="m160 148 18-30.5 12.5-.5c-4.2 5.8-8.2 11.6-12 17.6l.1.1 5-6c2-2.2 3.9-4.2 6-6 2-2 4.1-3.5 6.3-4.8 2.2-1.3 4.4-1.9 6.5-1.9 2.2 0 4 .6 5.5 1.7s2.3 2.8 2.3 5c0 2-.6 4-1.8 6-1.2 2-2.5 4-4 5.9l-4 5.5a8.5 8.5 0 0 0-1.7 4.5c0 .6.1 1.1.4 1.6.4.4.9.6 1.6.6 1.3 0 2.7-.6 4.4-1.8a47.5 47.5 0 0 0 9-8.5l3.8-4.4 3.1-3.9 2.2-2.8.8.4a289.5 289.5 0 0 1-13.1 15.6 37 37 0 0 1-7 5.6c-2.2 1.3-4.5 2-6.8 2-2.6 0-4.6-.7-6-2.2a9 9 0 0 1-1.8-6c0-2 .5-4 1.6-5.8 1.2-1.9 2.5-3.6 3.8-5.3a276 276 0 0 0 3.8-4.5c1.2-1.4 1.8-2.7 1.8-3.9 0-1.6-.8-2.4-2.4-2.4-1 0-2.3.6-3.8 1.7-1.6 1-3.2 2.4-5 4a89.2 89.2 0 0 0-10.4 12.2 115 115 0 0 0-6.8 10.7l-11.9.5Z"/><path fill="#fff" d="M118.1 140.5c0-3 .8-6 2.3-9a30.1 30.1 0 0 1 24-15.5c2 0 3.6.4 5 1 1.5.7 2.7 2 3.7 4.2l2.2-4.1 12.2-.6-9.1 15.4-9 15c2.6-.9 5.2-2.1 7.7-3.6a63.4 63.4 0 0 0 13.5-11.3c2.1-2.2 4-4.4 5.8-6.5l.6.6a99.2 99.2 0 0 1-12.8 13.1c-2.4 2-5 3.8-7.6 5.4a34 34 0 0 1-8 3.6 58.3 58.3 0 0 1-18 21 41.8 41.8 0 0 1-22.9 7.8c-2.4 0-4.8-.2-7.2-.7-2.3-.5-4.4-1.2-6.2-2.3-2-1-3.4-2.3-4.5-4a9.5 9.5 0 0 1-1.8-5.8c0-1.5.3-3 1-4.3a9.1 9.1 0 0 1 2.8-3.4c1.3-1 3-1.8 5-2.4 2.1-.5 4.6-.8 7.5-.8h5.6v1h-2c-2.8 0-5 1-6.7 2.5-1.7 1.7-2.6 4.2-2.6 7.7 0 1.5.2 3 .7 4.4a9.6 9.6 0 0 0 2.1 3.6 9 9 0 0 0 3.3 2.5 9 9 0 0 0 4.2 1c3.6 0 7-1.4 10.4-4 3.2-2.6 6.3-6 9.2-10.3l13.5-19.5-.2-.2c-2 2.4-4.4 4.3-7.1 5.6a18 18 0 0 1-8.3 2c-2.6 0-4.7-.8-6.1-2.5-1.5-1.7-2.2-4-2.2-6.6Zm11.5 1.3c0 1 .2 2.1.6 3 .4 1 1.3 1.3 2.6 1.3 1.2 0 2.5-.4 3.9-1.2 1.4-.9 2.7-2 4-3.3a39 39 0 0 0 9.6-20c0-1.5-.4-2.6-1.1-3.3a3.6 3.6 0 0 0-2.9-1.2c-1.2 0-2.5.4-3.8 1.2a29.3 29.3 0 0 0-7.3 7.8 36.3 36.3 0 0 0-5.6 15.7Z"/><path fill="#fff" d="m119 116.7-5.5 8.6a170.9 170.9 0 0 0-8 14.1 12 12 0 0 0-1.2 4.5c0 .8.1 1.5.4 2 .3.6.8.8 1.5.8 1.2 0 2.4-.4 3.7-1.2 1.4-.8 2.8-2 4.2-3.2a62.7 62.7 0 0 0 8.4-9.3 114 114 0 0 0 5.8-8l.7.3-5.2 7.2a82 82 0 0 1-7 8.2c-2.5 2.7-5 4.8-7.2 6.2-2.2 1.4-4.7 2.1-7.5 2.1-2.3 0-4.1-.7-5.3-2a8.5 8.5 0 0 1-1.8-5.7c0-2.6 1-5.9 3.3-9.8 2.2-4 5-8.8 8.4-14.5l12.3-.3ZM105.9 94.4c0-2.2-.6-4-1.7-5.6-1-1.6-2.8-2.4-5.2-2.4-2.2 0-4 .9-5.4 2.6a18 18 0 0 0-3.3 6.7c-.8 3-1.4 6.3-1.8 10.2-.2 3.8-.4 7.9-.4 12.3 0 5-.7 9.5-2 13.4a26.3 26.3 0 0 1-15.8 16.3 38.5 38.5 0 0 1-21.3 1c-2.5-.7-4.7-1.7-6.6-3-2-1.4-3.5-3-4.7-5-1.1-2-1.7-4.4-1.7-7l.3-3.5a11 11 0 0 1 1.4-3.1c.5-1 1.3-1.8 2.2-2.4 1-.6 2-1 3.4-1 1.6 0 3 .6 4 1.6a5 5 0 0 1 1.6 3.9c0 1.6-.4 3-1.3 4-.8 1.1-2.1 1.7-3.7 1.8-.2.6-.3 2.7-.4 3.2 0-.6 0 .4 0 0a9.6 9.6 0 0 0 3.3 7c1 1 2.4 2 4 2.7 1.7.6 3.6.9 5.7.8 3 0 5.7-.5 7.8-1.5 2.2-1 4-2.4 5.4-4 1.6-1.7 2.8-3.6 3.6-5.8a53.8 53.8 0 0 0 3.1-14.4c.3-2.6.3-5.1.3-7.5 0-4.1.5-8 1.4-11.8 1-3.7 2.5-7 4.6-9.7a22.7 22.7 0 0 1 19.7-9.2c1.6 0 3.2.2 4.8.5 1.6.4 3 1 4.3 1.8a9 9 0 0 1 3.3 3A8.1 8.1 0 0 1 116 95c0 1.8-.5 3.4-1.5 4.5s-2.1 2-3.6 2.7c-1.4.6-3 1-4.7 1.2l-4.7.3c1.4-1.3 2.5-2.6 3.2-4.2.8-1.5 1.2-3.2 1.2-5Z"/><defs><linearGradient id="a" x1="244" x2="128" y1="21.5" y2="256" gradientUnits="userSpaceOnUse"><stop stop-color="#FBAC3C"/><stop offset=".9" stop-color="#F24312"/></linearGradient></defs></svg>