<svg xmlns="http://www.w3.org/2000/svg" width="256" height="257" fill="none"><path d="M128 256.4a128 128 0 1 0 0-256 128 128 0 0 0 0 256z" fill="#000"/><g fill="#fff"><path d="M168.2 146.1c.6 4.2 1.7 7.3 3.4 9.3 3 3.8 8.4 5.7 15.9 5.7a34 34 0 0 0 11-1.5c5.3-2 8-5.4 8-10.6a8 8 0 0 0-4-7c-2.7-1.6-6.8-3-12.5-4.3l-9.6-2.1a61 61 0 0 1-19.7-7c-6.1-4.2-9.2-10.8-9.2-19.7 0-8.2 3-15 8.9-20.4s14.7-8.1 26.2-8.1c9.6 0 17.8 2.5 24.5 7.6s10.4 12.5 10.7 22.2h-18.3c-.3-5.5-2.7-9.4-7.2-11.7a24 24 0 0 0-11-2.3c-5 0-8.9 1-11.8 3s-4.4 4.7-4.4 8.3a8 8 0 0 0 4.3 7.3 53 53 0 0 0 12 3.8l15.6 3.7a40 40 0 0 1 15.6 6.7 22.3 22.3 0 0 1 8.2 18.6c0 8.3-3.2 15.2-9.6 20.7s-15.3 8.3-27 8.3c-11.8 0-21.2-2.7-28-8.1S150 155.5 150 146h18.2z"/><path fill-rule="evenodd" d="M56 52.4v152h132v-14H72v-124h116v-14H56z"/></g></svg>