<svg xmlns="http://www.w3.org/2000/svg" width="256" height="256" fill="none"><path fill="url(#a)" d="m25 52 13-15 1 1 87 88 1 1L25 52Z"/><path fill="url(#b)" d="M38 38C57 19 81 6 107 2l1 2 19 121v2L38 38Z"/><path fill="url(#c)" d="m186 14 17 10v2l-76 101 59-113Z"/><path fill="url(#d)" d="M255 127c0 13-2 27-6 40h-3l-118-40h-1 128Z"/><path fill="url(#e)" d="M248 166c-4 13-10 25-18 36h-3l-99-74-1-1 121 39Z"/><path fill="url(#f)" d="M167 249c-19 6-39 8-58 4l-1-2 20-122v-2l39 122Z"/><path fill="url(#g)" d="m107 253-19-5v-3l38-117 1-1-20 126Z"/><path fill="url(#h)" d="M88 248c-12-4-24-10-35-18v-2l73-100 1-1-39 121Z"/><path fill="url(#i)" d="M15 185c-9-18-14-38-14-58l2-1h120l4 1-112 58Z"/><path fill="url(#j)" d="M108 2c20-4 40-2 59 4l-39 121L108 2Z"/><path fill="url(#k)" d="M202 25c22 16 38 38 46 63l-121 39 75-102Z"/><path fill="url(#l)" d="M53 230c-11-8-20-17-28-28l102-75-74 103Z"/><path fill="url(#m)" d="M1 127c0-13 2-26 6-39l120 39H1Z"/><path fill="url(#n)" d="M231 202c-8 11-18 20-28 28l-76-103 104 75Z"/><defs><radialGradient id="a" cx="0" cy="0" r="1" gradientTransform="matrix(-96.0068 -83.6854 83.038 -96.7971 127 127)" gradientUnits="userSpaceOnUse"><stop stop-color="#A273FF"/><stop offset="1" stop-color="#4331E9"/></radialGradient><radialGradient id="b" cx="0" cy="0" r="1" gradientTransform="matrix(-20.1501 -128.002 127.31 -20.2024 127 127)" gradientUnits="userSpaceOnUse"><stop stop-color="#F7A7F9"/><stop offset="1" stop-color="#00DDFB"/></radialGradient><radialGradient id="c" cx="0" cy="0" r="1" gradientTransform="matrix(-132.488 0 0 -129.964 127 127)" gradientUnits="userSpaceOnUse"><stop stop-color="#FFF3D0"/><stop offset="1" stop-color="#FFC044"/></radialGradient><radialGradient id="d" cx="0" cy="0" r="1" gradientTransform="matrix(0 -130.804 130.941 0 127 127)" gradientUnits="userSpaceOnUse"><stop stop-color="#A273FF"/><stop offset=".5" stop-color="#9FAEFF"/><stop offset="1" stop-color="#AAF2E1"/></radialGradient><radialGradient id="e" cx="0" cy="0" r="1" gradientTransform="matrix(105.004 76.488 -76.4116 105.206 127 127)" gradientUnits="userSpaceOnUse"><stop stop-color="#0075FF"/><stop offset="1" stop-color="#00DDFB"/></radialGradient><radialGradient id="f" cx="0" cy="0" r="1" gradientTransform="matrix(0 131.047 -128.058 0 128 127)" gradientUnits="userSpaceOnUse"><stop stop-color="#FFCD6B"/><stop offset="1" stop-color="#EB5EDF"/></radialGradient><radialGradient id="g" cx="0" cy="0" r="1" gradientTransform="matrix(0 130.877 -128.333 0 127 127)" gradientUnits="userSpaceOnUse"><stop stop-color="#D5FAFF"/><stop offset="1" stop-color="#00DDFB"/></radialGradient><radialGradient id="h" cx="0" cy="0" r="1" gradientTransform="matrix(-56.5055 127.226 -125.959 -56.9613 127 127)" gradientUnits="userSpaceOnUse"><stop stop-color="#FFD2B9"/><stop offset=".3" stop-color="#C99BED"/><stop offset="1" stop-color="#0075FF"/></radialGradient><radialGradient id="i" cx="0" cy="0" r="1" gradientTransform="matrix(-167.834 0 0 -171.325 127 127)" gradientUnits="userSpaceOnUse"><stop stop-color="#6D28FF"/><stop offset="1" stop-color="#F7A7F9"/></radialGradient><radialGradient id="j" cx="0" cy="0" r="1" gradientTransform="matrix(0 -129.918 129.65 0 128 127)" gradientUnits="userSpaceOnUse"><stop stop-color="#A273FF"/><stop offset=".5" stop-color="#9FAEFF"/><stop offset="1" stop-color="#AAF2E1"/></radialGradient><radialGradient id="k" cx="0" cy="0" r="1" gradientTransform="matrix(0 129.081 -130.256 0 127 127)" gradientUnits="userSpaceOnUse"><stop stop-color="#FFCD6B"/><stop offset="1" stop-color="#EB5EDF"/></radialGradient><radialGradient id="l" cx="0" cy="0" r="1" gradientTransform="matrix(-96.0067 -83.7089 83.0379 -96.8242 127 127)" gradientUnits="userSpaceOnUse"><stop stop-color="#A273FF"/><stop offset="1" stop-color="#4331E9"/></radialGradient><radialGradient id="m" cx="0" cy="0" r="1" gradientTransform="matrix(-129.113 0 0 -129.326 127 127)" gradientUnits="userSpaceOnUse"><stop stop-color="#FFF3D0"/><stop offset="1" stop-color="#FFC044"/></radialGradient><radialGradient id="n" cx="0" cy="0" r="1" gradientTransform="matrix(-97.8854 -83.7119 84.6628 -96.8277 127 127)" gradientUnits="userSpaceOnUse"><stop stop-color="#A273FF"/><stop offset="1" stop-color="#4331E9"/></radialGradient></defs></svg>