<svg xmlns="http://www.w3.org/2000/svg" width="256" height="256" fill="none"><circle cx="128" cy="128" r="128" fill="#FFFC00"/><path fill="#fff" stroke="#000" stroke-width="4.2" d="M129.5 210.6H127c-10.6 0-17.8-5.1-24.1-9.6-4.5-3.2-8.8-6.3-13.8-7.1-2.5-.4-4.9-.6-7.3-.6-4.2 0-7.6.6-10 1.1-1.6.3-2.9.6-3.9.6s-2.3-.3-2.8-2c-.5-1.5-.8-3-1-4.3-.8-3.3-1.3-5.4-2.6-5.6-13.4-2-21.3-5.1-23-8.9l-.2-1.1a2.2 2.2 0 0 1 1.8-2.3A46.8 46.8 0 0 0 68.4 154a63.6 63.6 0 0 0 9.7-15.1c1.5-3.2 1.8-6 .9-8.2-1.8-4-7.5-5.9-11.3-7l-2.5-1c-3.4-1.3-9-4.1-8.2-8 .6-2.8 4.3-4.8 7.3-4.8.9 0 1.6.1 2.2.4a22 22 0 0 0 9.1 2.5c3.3 0 4.9-1.3 5.3-1.7l-.3-5.3c-.8-12.4-1.8-27.7 2.1-36.5A47 47 0 0 1 126.5 41h3.6c7.3 0 32.1 2 43.8 28.3 4 8.8 3 24.1 2.2 36.5v.5l-.3 4.8c.3.4 1.8 1.5 4.7 1.6 2.5 0 5.4-.9 8.6-2.4a8.5 8.5 0 0 1 6 0v.1c2.8 1 4.5 2.9 4.6 5 0 1.8-1.4 4.6-8.2 7.3l-2.6 1c-3.8 1.1-9.5 3-11.2 7-1 2.3-.7 5 .9 8.2.5 1.2 12 27.6 37.8 32 1.1 0 1.9 1 1.8 2.2 0 .4 0 .8-.2 1.1-1.6 3.7-9.6 6.8-23 8.9-1.2.2-1.8 2.2-2.5 5.6l-1 4.1c-.4 1.4-1.3 2-2.7 2h-.2c-1 0-2.2-.1-3.8-.4a50.1 50.1 0 0 0-17.4-.5c-5 .8-9.2 3.9-13.7 7a39.9 39.9 0 0 1-24.2 9.7Z"/></svg>