<svg xmlns="http://www.w3.org/2000/svg" viewBox="0 0 192 192"><g transform="scale(.26458)"><linearGradient id="a" gradientUnits="userSpaceOnUse" x1="362.9" y1="0" x2="362.9" y2="192"><stop offset="0" stop-color="#090220"/><stop offset="1" stop-color="#170659"/></linearGradient><circle cx="362.8" cy="362.8" r="362.8" fill="url(#a)"/><path d="M243 273c-3-4-7-6-12-6h-97l-2-1v-69l2-1h103c26 0 48 11 67 32l25 31-49 59-37-45zm179-45c19-21 41-31 68-31h104v69l-2 1h-97c-5 0-9 2-12 6l-72 87 72 87c3 3 7 5 12 5h97l1 1 1 2v65l-1 2-2 1H491c-27 0-49-11-67-32l-60-72-59 72a87 87 0 0 1-67 32H134l-1-1-1-2v-65l1-2 1-1h97c5 0 9-2 12-5l70-86 109-133z" fill="#00d1ff"/></g></svg>