<svg xmlns="http://www.w3.org/2000/svg" width="400" height="400" fill="none"><circle cx="200" cy="200" r="200" fill="#0f1a38"/><g clip-path="url(#a)"><path d="M111.6 253.5a8.6 8.6 0 0 1 6-2.5h209.1c3.8 0 5.7 4.6 3 7.3l-41.3 41.2a8.6 8.6 0 0 1-6 2.5H73.3a4.3 4.3 0 0 1-3-7.3l41.3-41.2z" fill="url(#b)"/><path d="M111.6 99.5a8.8 8.8 0 0 1 6-2.5h209.1c3.8 0 5.7 4.6 3 7.3l-41.3 41.2a8.6 8.6 0 0 1-6 2.5H73.3a4.3 4.3 0 0 1-3-7.3l41.3-41.2z" fill="url(#c)"/><path d="M288.4 176a8.6 8.6 0 0 0-6-2.5H73.3a4.3 4.3 0 0 0-3 7.3l41.3 41.2a8.6 8.6 0 0 0 6 2.5h209.1c3.8 0 5.7-4.6 3-7.3L288.4 176z" fill="url(#d)"/></g><defs><linearGradient id="b" x1="306.7" y1="72.4" x2="162.4" y2="349.3" gradientUnits="userSpaceOnUse"><stop stop-color="#00ffa3"/><stop offset="1" stop-color="#dc1fff"/></linearGradient><linearGradient id="c" x1="243.5" y1="39.4" x2="99.1" y2="316.3" gradientUnits="userSpaceOnUse"><stop stop-color="#00ffa3"/><stop offset="1" stop-color="#dc1fff"/></linearGradient><linearGradient id="d" x1="274.9" y1="55.8" x2="130.6" y2="332.7" gradientUnits="userSpaceOnUse"><stop stop-color="#00ffa3"/><stop offset="1" stop-color="#dc1fff"/></linearGradient><clipPath id="a"><path fill="#fff" transform="translate(69 97)" d="M0 0h262v205H0z"/></clipPath></defs></svg>