<svg xmlns="http://www.w3.org/2000/svg" width="256" height="256" fill="none"><path fill="#02081C" d="M128 256a128 128 0 1 0 0-256 128 128 0 0 0 0 256Z"/><path fill="url(#a)" d="m75 160 3-1h126c3 0 4 3 2 4l-25 25-3 1H52a3 3 0 0 1-3-2 2 2 0 0 1 1-2l25-25Z"/><path fill="url(#b)" d="m75 68 3-2h126c3 0 4 3 2 4l-25 25-3 2H52a3 3 0 0 1-3-2 3 3 0 0 1 1-2l25-25Z"/><path fill="url(#c)" d="m181 114-3-2H52a3 3 0 0 0-3 2 3 3 0 0 0 1 2l25 25 3 2h126c3 0 4-3 2-4l-25-25Z"/><defs><linearGradient id="a" x1="103.5" x2="127" y1="146.5" y2="195.2" gradientUnits="userSpaceOnUse"><stop stop-color="#F77B7C"/><stop offset="1" stop-color="#FF9A5E"/></linearGradient><linearGradient id="b" x1="70.5" x2="119.9" y1="70" y2="118.6" gradientUnits="userSpaceOnUse"><stop stop-color="#A765F1"/><stop offset="1" stop-color="#F77B7C"/></linearGradient><linearGradient id="c" x1="100.2" x2="141" y1="97.7" y2="171.7" gradientUnits="userSpaceOnUse"><stop stop-color="#AE67E8"/><stop offset=".5" stop-color="#F77B7C"/><stop offset="1" stop-color="#FF9A5E"/></linearGradient></defs></svg>