<svg xmlns="http://www.w3.org/2000/svg" width="256" height="256" fill="none"><path fill="url(#a)" d="M249.9 89c3.8 12 6 24.6 6 37.8l.1.7v.6A127.8 127.8 0 0 1 128 256a128 128 0 0 1-114.8-71.2 90.2 90.2 0 0 1 33.3-6.2c34 0 59.6 15.6 76.9 40.7 2 2 4.5.3 4.5-.5v-3.7A133 133 0 0 1 249.9 89Z"/><path fill="url(#b)" d="M128 0a128 128 0 0 1 114.8 71.2 90.2 90.2 0 0 1-33.3 6.2c-34 0-59.6-15.6-76.9-40.7-2-2-4.5-.3-4.5.5v3.7A133 133 0 0 1 6.1 167 127.4 127.4 0 0 1 0 128.5v-.6A127.8 127.8 0 0 1 128 0Z"/><defs><radialGradient id="b" cx="0" cy="0" r="1" gradientTransform="matrix(212 194.7 -237.5 257.3 -32.3 29.7)" gradientUnits="userSpaceOnUse"><stop offset=".2" stop-color="#3DCFEE"/><stop offset=".4" stop-color="#408EF2"/><stop offset=".7" stop-color="#421AF5"/><stop offset=".9" stop-color="#682AF4"/></radialGradient><linearGradient id="a" x1="264.8" x2="18.4" y1="89.2" y2="194" gradientUnits="userSpaceOnUse"><stop offset=".2" stop-color="#EF0A4C"/><stop offset=".4" stop-color="#CB18D5"/><stop offset=".8" stop-color="#693AF2"/><stop offset="1" stop-color="#3B90F2"/></linearGradient></defs></svg>