<svg xmlns="http://www.w3.org/2000/svg" width="256" height="256" fill="none"><circle cx="128" cy="128" r="128" fill="url(#a)"/><path fill="#F7FAD3" d="M124 86.5c1.1-2.8 4-4.4 6.5-3 2.4 1.5 3 4.5 3.3 7 1 10.2 1.1 20.6 1.3 30.9l16.3.4c6 .4 12 .2 17.9 1.5 6.6 1.9 5.5 8.6-1 9.7-8.7 1.2-16 1.1-25.2 1.5l-8 .2c0 5.3-.2 10.8-.4 16.1-.4 5.9-.2 12-1.5 17.8-1.9 6.6-8.6 5.4-9.7-1-1.3-8.7-1.2-16-1.5-25l-.2-8h-1.5c-6.1-.2-12-.2-18.1-.5-5.1-.4-10.5-.1-15.4-1.7-2.8-1-4.5-3.8-3-6.4 1.4-2.3 4.5-3 7-3.3 10.2-1 20.7-1.1 31-1.3v-1.5l.6-18c.4-5.1 0-10.5 1.7-15.4ZM95.5 96.6c5.2-.2 10.5-.5 10.5 4.5 0 4.5-5.2 5.2-5.2 5.2a189.2 189.2 0 0 0-36.8 8.2c-13.5 5.7-14.6 11.2-14.6 13.5 0 2.3 1 7.8 14.6 13.5 9 3.7 26.3 6.7 36.8 8.2 0 0 5.2.7 5.2 5.2 0 5-5.3 4.7-10.5 4.5C63.9 157.9 38 145 38 127.8c0-17.2 25.9-29.7 57.4-31.2Zm55.7 4.5c0-5 5.3-4.7 10.5-4.5 31.5 1.5 57.4 14 57.4 31.2s-25.9 30.1-57.4 31.6c-5.2.2-10.5.5-10.5-4.5 0-4.5 5.2-5.2 5.2-5.2 10.5-1.5 27.8-4.5 36.8-8.2 13.5-5.7 14.6-11.2 14.6-13.5 0-2.3-1-7.8-14.6-13.5-9-3.7-26.3-6.7-36.8-8.2 0 0-5.2-.7-5.2-5.2Z"/><defs><linearGradient id="a" x1="128" x2="128" y1="0" y2="256" gradientUnits="userSpaceOnUse"><stop stop-color="#6484A0"/><stop offset="1" stop-color="#8A98A3"/></linearGradient></defs></svg>