<svg xmlns="http://www.w3.org/2000/svg" width="256" height="256" fill="none"><path fill="url(#a)" d="M158.9 143.4h86.5c3.3 0 4.3-4.7 1.3-6.1l-87.8-41V6.4c0-3.3-4.4-4.4-6-1.4l-36.4 71.5-40.7-18.9c-2.7-1.3-5.4 1.7-4 4.4L97 112.6H10.6c-3.3 0-4.3 4.7-1.3 6.1l87.8 41v89.8c0 3.4 4.4 4.5 6 1.5l36.4-71.5 40.6 19a3.2 3.2 0 0 0 4.1-4.4L159 143.4Z"/><defs><linearGradient id="a" x1="191.8" x2="42" y1="76" y2="186.9" gradientUnits="userSpaceOnUse"><stop stop-color="#FA43BD"/><stop offset="1" stop-color="#FFA930"/></linearGradient></defs></svg>