<svg xmlns="http://www.w3.org/2000/svg" width="256" height="256" fill="none"><circle cx="128" cy="128" r="128" fill="#E6E6E6"/><path fill="#0C1118" d="M72.3 99.6c-3.9 0-7.6-.3-11.3-.8V129c3.5.4 7.2.7 11.3.7 24.1 0 36-8.7 48.6-17.9 13.7-10 27.8-20.3 56-20.3 6.7 0 12.7.6 18 1.7V60h-50.6a85.8 85.8 0 0 1-72 39.6Z"/><path fill="#0C1118" d="M72.3 86.9c-3.9 0-7.6-.3-11.3-1V60h67.7A73 73 0 0 1 72.3 87ZM128.3 122.1c-13.7 10-27.8 20.3-56 20.3-4 0-7.8-.2-11.3-.6V196h134v-89.8c-5.2-1.3-11.2-2-18.2-2-24 0-36 8.7-48.5 18Z"/></svg>