<svg xmlns="http://www.w3.org/2000/svg" width="256" height="256" fill="none"><circle cx="128" cy="128" r="128" fill="#2B4373"/><path fill="#fff" fill-rule="evenodd" d="M209.8 133.1c.3-3.4.3-6.8 0-10.2h-15.6L186 133h23.7Zm-.4 5.2h-28l-8.3 10.2h34.3c.9-3.3 1.5-6.8 2-10.3Zm-3.5 15.3h-58.6a1.5 1.5 0 0 1-1.2-2.5l27.8-31.6a5.1 5.1 0 0 1 3.8-1.8h31.7a82 82 0 0 0-.8-5h-31.2c-4.1 0-8 1.6-10.8 4.6l-34 36.8a14.6 14.6 0 0 1-10.8 4.7H52a82 82 0 0 0 154-5.2Zm-157.3-5.1h53.1c4 0 8-1.7 10.7-4.7l34.1-36.7a14.6 14.6 0 0 1 10.7-4.7H206a81 81 0 0 0-1.9-5.2h-56.9c-4.1 0-8 1.8-10.8 4.8L103 138.6a14.6 14.6 0 0 1-10.8 4.8H47.4l1.2 5.1Zm-2.4-15.4L46 128a82 82 0 0 1 153-41h-69.5c-4.2 0-8.2 1.8-11 5l-32 36.2a14.6 14.6 0 0 1-11 5H46.2Z" clip-rule="evenodd"/></svg>