<svg width="256" height="256" fill="none" xmlns="http://www.w3.org/2000/svg"><g clip-path="url(#a)"><path d="M128 256a128 128 0 1 0 0-256 128 128 0 0 0 0 256Z" fill="#fff"/><g clip-path="url(#b)" fill="#1BA5F8"><path opacity=".6" d="m98 187.3 25.4-31.7a6.6 6.6 0 0 1 10.3 0l25.4 31.7c2 2.5 2 6 0 8.5l-25.4 31.7a6.6 6.6 0 0 1-10.3 0L98 195.8c-2-2.5-2-6 0-8.5Z"/><path d="M137.5 109.8 162.8 78a6.6 6.6 0 0 1 10.3 0l25.4 31.7c2 2.4 2 6 0 8.4L173.1 150a6.6 6.6 0 0 1-10.3 0l-25.3-31.8c-2-2.4-2-6 0-8.4Zm-79 0L84 78a6.6 6.6 0 0 1 10.3 0l25.3 31.7c2 2.4 2 6 0 8.4L94.3 150a6.6 6.6 0 0 1-10.3 0l-25.4-31.8c-2-2.4-2-6 0-8.4ZM98 60.2l25.4-31.7a6.6 6.6 0 0 1 10.3 0L159 60.2c2 2.5 2 6 0 8.5l-25.4 31.7a6.6 6.6 0 0 1-10.3 0L98 68.7c-2-2.5-2-6 0-8.5Z"/></g></g><defs><clipPath id="a"><path fill="#fff" d="M0 0h256v256H0z"/></clipPath><clipPath id="b"><path fill="#fff" transform="translate(57 26)" d="M0 0h143v204H0z"/></clipPath></defs></svg>