<svg xmlns="http://www.w3.org/2000/svg" width="256" height="256" fill="none"><g clip-path="url(#a)"><path d="M128 256a128 128 0 1 0 0-256 128 128 0 0 0 0 256z" fill="#000"/><mask id="b" maskUnits="userSpaceOnUse" x="28" y="28" width="200" height="200"><path d="M228 28H28v200h200V28Z" fill="#fff"/></mask><g mask="url(#b)"><path d="m148 36 5 12c11 25 30 44 55 55l12 5 8 6c-6-44-41-80-86-86l6 8zM36 108l12-5c25-11 44-30 55-55l5-12 6-8c-44 6-80 41-86 86 2-3 5-5 8-6zm184 40-12 5c-25 11-44 30-55 55l-5 12-6 8c44-6 80-41 86-86-2 3-5 5-8 6zm-112 72-5-12c-11-25-30-44-55-55l-12-5c-3-1-6-3-8-6 6 45 41 80 86 86-3-2-4-5-6-8z" fill="#7e7e7e"/></g><path d="m83 118 6-2c12-5 22-15 27-27l2-6c4-9 16-9 20 0l2 6c6 12 15 22 27 27l6 2c9 4 9 16 0 20l-6 2c-12 6-21 15-27 27l-2 6c-4 9-16 9-20 0l-2-6c-5-12-15-21-27-27l-6-2c-9-4-9-16 0-20z" fill="#e6e6e6"/></g><defs><clipPath id="a"><path fill="#fff" d="M0 0h256v256H0z"/></clipPath></defs></svg>