<svg xmlns="http://www.w3.org/2000/svg" width="256" height="256" fill="none"><path fill="#2683FF" d="M37.49 173.92a6.95 6.95 0 1 0 6.95 6.96c0-1.24-.33-2.36-.9-3.48a7.06 7.06 0 0 0-6.05-3.48m98.23-151.28a6.95 6.95 0 1 0-13.9 0 6.95 6.95 0 0 0 13.9 0Zm84.79 60.34a6.95 6.95 0 1 0-6.95-6.96c0 1.18.31 2.34.9 3.37a6.93 6.93 0 0 0 6.05 3.59ZM40.74 69.63a6.84 6.84 0 0 0-9.42 2.58 6.84 6.84 0 0 0 2.58 9.42 6.84 6.84 0 0 0 9.41-2.58 6.86 6.86 0 0 0-2.57-9.42ZM223.3 175.27a7.38 7.38 0 0 0-3.48-1.01 6.96 6.96 0 1 0 0 13.9c2.47 0 4.7-1.34 6.06-3.47a6.86 6.86 0 0 0-2.58-9.42Zm-101.5 57.97a7.1 7.1 0 0 0 6.62 7.74 7.32 7.32 0 0 0 7.18-5.94 6.92 6.92 0 0 0-13.68-2.02.39.39 0 0 0-.11.22"/><path fill="#2683FF" d="M230.15 162.48a18.2 18.2 0 0 0-2.58-1.23V96.32c1-.34 2.02-.9 3.03-1.35a21.73 21.73 0 0 0 8.4-29.5 21.73 21.73 0 0 0-31.96-6.83l-57.19-33.08c.11-1.01.22-1.91.22-2.92 0-12-9.75-21.64-21.63-21.64-11.9 0-21.87 9.87-21.87 21.75 0 1.01.1 1.91.22 2.92L50.05 58.53A21.68 21.68 0 1 0 23.7 92.96c.78.56 1.57 1.12 2.46 1.68.92.56 1.9 1.01 2.92 1.34v64.82a21.6 21.6 0 0 0-12 28.15 21.6 21.6 0 0 0 28.15 12c1-.34 1.9-.9 2.8-1.35.9-.56 1.8-1.12 2.7-1.8l56.17 32.42A21.66 21.66 0 0 0 124.85 255a21.66 21.66 0 0 0 24.78-17.94c.22-1.24.22-2.36.22-3.6-.01-1.04-.09-2.09-.22-3.13l55.85-32.19c.9.68 1.8 1.35 2.8 1.91a21.69 21.69 0 0 0 29.5-8.3c5.6-10.43 2.24-23.21-7.63-29.27Zm3.92 27.14a16.62 16.62 0 0 1-22.65 5.94 16.5 16.5 0 0 1-7.74-18.05l-26.24-15.36a29.27 29.27 0 0 1-31.74 6.6c-3.92 1.24-12.33 2.03-12.33 2.03v46.2a17.37 17.37 0 0 1 11.44 21.75 17.37 17.37 0 0 1-21.75 11.45c-.11 0-.23-.12-.34-.12a17.37 17.37 0 0 1-9.87-24.22 17.75 17.75 0 0 1 10.43-8.86v-47.1a77.69 77.69 0 0 1-9.65-3.7 34.82 34.82 0 0 1-28.7-7.06l-31.3 18.05a16.66 16.66 0 1 1-4.8-8.3l29.26-16.93a35.07 35.07 0 0 1 3.81-45.08L48.6 87.8A16.4 16.4 0 0 1 25.26 87a16.53 16.53 0 0 1 .78-23.44 16.39 16.39 0 0 1 23.33.79 16.42 16.42 0 0 1 4.03 15.02l36.9 21.2a34.85 34.85 0 0 1 15.7-4.15c5.16-4.26 18.38-8.63 18.38-8.63V37.33a15.46 15.46 0 0 1-10.31-19.28 15.4 15.4 0 0 1 19.29-10.21 15.46 15.46 0 0 1 0 29.6V86.9s24.22 6.06 31.85 15.14l39.25-22.31a16.62 16.62 0 0 1 12.44-19.97 16.62 16.62 0 0 1 19.97 12.45 16.62 16.62 0 0 1-12.45 19.96 16.7 16.7 0 0 1-15.14-4.15L170.49 110a43.08 43.08 0 0 1 2.8 7.18 29.25 29.25 0 0 1 9.87 37l25.68 14.92a16.4 16.4 0 0 1 19.51-2.13 16.54 16.54 0 0 1 5.72 22.65Z"/><path fill="#2683FF" d="m161.74 125.92-.34-2.57c-.1-.61-.25-1.21-.44-1.8 0-.22-.12-.45-.12-.67-.22-.67-.44-1.46-.67-2.13v-.11a29.72 29.72 0 0 0-6.4-10.1c-.66-.67-1.22-1.23-2.01-1.9l-.11-.11a14.89 14.89 0 0 0-2.13-1.58l-.12-.1c-.67-.46-1.45-1.02-2.13-1.35l-.1-.11c-.73-.42-1.48-.8-2.25-1.13l-.22-.1c-.79-.34-1.57-.68-2.47-1.02l-.11-.1c-.9-.23-1.68-.57-2.58-.68h-.11c-.9-.2-1.79-.36-2.7-.45h-.1c-4.78-.68-9.65-.1-14.14 1.68l-.56.45c-.67.22-1.8.78-2.47 1.12-.34.23-.72.42-1.12.56-.33.11-.9.56-1.23.79-.33.22-1.12.78-1.57 1.12l-.34.22c-.67.45-1.23 1.01-1.9 1.57l-.56.56c-.68.68-1.24 1.24-1.8 1.91a24.38 24.38 0 0 0-4.03-.34c-.45 0-.79 0-1.13.12a22.19 22.19 0 0 0-13.9 5.83 22.44 22.44 0 0 0-4.7 6.05l-.12.23c-.35.65-.65 1.33-.9 2.02-.11.23-.11.34-.23.56-.23.58-.42 1.18-.56 1.8-.1.22-.1.56-.22.78a56.6 56.6 0 0 0-.34 1.8c0 .22-.1.44-.1.78-.1.85-.14 1.72-.12 2.58-.02.71.02 1.42.11 2.13 0 .22.11.45.11.78.11.45.11.9.23 1.35.1.45.1.56.22.9.13.32.2.66.22 1 0 .34.23.68.34 1.02.1.26.2.53.34.78.17.37.32.74.45 1.12.1.22.22.34.22.56a19.83 19.83 0 0 0 7.63 8.97 24.07 24.07 0 0 0 5.16 2.47c.7.24 1.4.42 2.13.56l.22.11 2.02.34.45.11c.78.11 1.57.11 2.47.11 3.02 0 5.94-.56 8.63-1.8.67.46 1.23.9 1.9 1.35l.23.11c.56.34 1.23.68 1.9 1.02h.12a28.91 28.91 0 0 0 20.74 2.13h.12c1-.22 1.98-.56 2.91-1.01l3.03-1.35a16.43 16.43 0 0 0 10.1 3.48c.78 0 1.45-.12 2.23-.12l.57-.1c.71-.11 1.43-.26 2.13-.46.69-.2 1.36-.47 2.01-.78l.34-.11c.67-.34 1.24-.68 1.91-1.01 2.8-1.8 4.93-4.49 6.17-7.52.45-1 .67-2.02.9-3.02v-.34c.1-.45.1-.9.22-1.34 0-.56.11-1.13.11-1.69 0-7.4-4.6-13.79-11.44-15.92"/></svg>