<svg xmlns="http://www.w3.org/2000/svg" width="158" height="158" fill="none"><path d="M2 79a77 77 0 1 0 154 0A77 77 0 0 0 2 79Z" fill="#0c0c4f" stroke="url(#a)" stroke-width="4"/><g fill-rule="evenodd"><path d="m44.2 60.4 1.9-6a4 4 0 0 1 2.6-2.6l6-1.9a.9.9 0 0 0 0-1.7l-6-2a4 4 0 0 1-2.5-2.5l-1.9-6a.9.9 0 0 0-1.7 0l-2 6a4 4 0 0 1-2.5 2.5l-6 1.9a.9.9 0 0 0 0 1.7l6 2a4 4 0 0 1 2.5 2.5l1.8 6a.9.9 0 0 0 1.8 0z" fill="#fafafa"/><path d="M139.8 56.9a17.7 17.7 0 0 0-10.1-5 35 35 0 0 0-11.6 0 55.2 55.2 0 0 0-20.6 8.4c-3.1 2-5.8 4.1-8.6 6.4l-3.8 3.5-3.5 3.5c-3.7 4-7.5 7.5-11 10.5-3.7 3-7 5.2-10.3 6.8a27.8 27.8 0 0 1-11.5 2.6c-4.6.2-10-.7-15.9-2-5.8-1.4-12-3.3-18.8-5a58 58 0 0 0 10.6 17.9 50 50 0 0 0 18 13.2 43.6 43.6 0 0 0 25.4 2.6A55 55 0 0 0 90.6 110c6.2-4.7 11.2-10 15.5-15.6a106 106 0 0 0 2.6-3.6l2.3-3.5c1.6-2.1 3.1-4.5 4.7-6.7 3.2-4.4 6.3-8.8 9.9-12.9a55.1 55.1 0 0 1 9.7-8.6c1.3-.9 2.8-1.6 4.5-2.1z" fill="url(#b)"/><path d="M139.8 56.9a35.1 35.1 0 0 0-39.3-21.2 41 41 0 0 0-12.8 4.8 53.3 53.3 0 0 0-14.4 12.3L70 57.2l-5.4 7.2c-6.8 9.1-14.2 19.8-26.2 23-11.8 3.1-17 .3-24.2-.8a39 39 0 0 0 18.3 21 35.4 35.4 0 0 0 20 3.3 40 40 0 0 0 13.1-4c4-2 7.4-4.4 10.5-7a84 84 0 0 0 15-16.3c2-2.8 3.8-5.7 5.5-8.6l2-3.5 1.9-3c2.5-3.7 5-6.8 8-9 3-2.4 7-4.1 12.6-4.5 5.5-.4 11.9.3 18.8 1.9z" fill="#fafafa"/><path d="M110 113.1c0 5 4.1 9 9 9a9 9 0 1 0 0-18 9 9 0 0 0-9 9z" fill="url(#c)"/></g><defs><linearGradient id="a" x1="149.5" y1="40.5" x2="6.1" y2="67.1" gradientUnits="userSpaceOnUse"><stop stop-color="#ec796b"/><stop offset="1" stop-color="#e175b1"/></linearGradient><linearGradient id="b" x1="139.2" y1="54.5" x2="28.5" y2="116" gradientUnits="userSpaceOnUse"><stop stop-color="#ec796b"/><stop offset="1" stop-color="#e175b1"/></linearGradient><linearGradient id="c" x1="128.1" y1="106.8" x2="110.1" y2="108.7" gradientUnits="userSpaceOnUse"><stop stop-color="#ec796b"/><stop offset="1" stop-color="#e175b1"/></linearGradient></defs></svg>