<svg xmlns="http://www.w3.org/2000/svg" width="256" height="256" fill="none"><circle cx="128" cy="128" r="128" fill="#4CA3FF"/><path fill="#fff" fill-rule="evenodd" d="M67.6 193.7a69.7 69.7 0 0 0 61 35.3 69.7 69.7 0 0 0 60.9-35.3 69.9 69.9 0 0 0 0-70.4l-53.6-93a8.4 8.4 0 0 0-14.7 0l-53.6 93a69.4 69.4 0 0 0 0 70.4Zm45.9-119.2 11.4-19.9a4.3 4.3 0 0 1 7.3 0l44 76.3a54.7 54.7 0 0 1 4.5 45.1c-.5-2.3-1.3-4.8-2.2-7.3-6.1-15.4-19.9-27.2-41-35.2-14.4-5.4-23.7-13.6-27.3-24-4.8-13.5.3-28.2 3.3-35Zm-19.6 33.8-13 22.6a54.8 54.8 0 0 0 0 55.2 55 55 0 0 0 82.9 14.9c1.3-3.2 5.1-14.8.3-26.8-4.5-11.2-15.2-20-32-26.4-18.8-7.1-31.2-18.4-36.5-33.3-.7-2-1.2-4.1-1.7-6.2Z" clip-rule="evenodd"/></svg>