<svg xmlns="http://www.w3.org/2000/svg" width="256" height="256" fill="none"><g clip-path="url(#a)"><path d="M128 256a128 128 0 1 0 0-256 128 128 0 0 0 0 256z" fill="#221f20"/><path d="M34.3 169.2h35.5l27.8-27.7V89.3l13.7-13.8V40H75.8L47.3 68.5v52.2l-13 13v35.5zm35.5 43h35.6l47.7-47.7v-52.1l33-33V43.7h-35.5l-47.7 47.7v52.2l-33 33v35.6zm139-76.8 12.9-13V86.9h-35.5l-27.8 27.7v52.2l-13.7 13.7v35.6h35.5l28.5-28.5v-52.2z" fill="#9cec9f"/></g><defs><clipPath id="a"><path fill="#fff" d="M0 0h256v256H0z"/></clipPath></defs></svg>