<svg xmlns="http://www.w3.org/2000/svg" width="400" height="401" fill="none"><path d="M200 401a200 200 0 1 0 0-400 200 200 0 0 0 0 400z" fill="url(#a)"/><path d="m122 93 206 141-51 75L71 167l51-74z" fill="url(#b)"/><path d="M328 234c-18 25-78 15-134-25-57-39-88-90-72-116 18-25 78-15 134 24 57 38 88 91 72 117z" fill="url(#c)"/><path d="M277 308c-18 25-77 15-134-25s-88-90-71-117c18-25 78-15 134 24 57 40 88 92 71 118z" fill="url(#d)"/><path d="m328 234-51 75c-18 25-77 14-134-25-11-7-21-15-31-24 8-1 18-6 28-17 18-18 26-23 34-22 8 0 17 8 31 27 15 19 34 24 47 14l3-2c10-8 13-11 32-46 4-9 20-24 41-17 5 14 5 27 0 37z" fill="#0e0f23"/><g fill="#fff"><path fill-rule="evenodd" d="M320 229c-15 22-70 11-121-25-53-37-85-83-69-105s70-11 122 25 83 83 68 105zm-49-33c-7 11-34 5-60-12-26-18-41-41-34-52s35-6 61 12 41 41 33 52z"/><path d="M118 119c0-2-1-3-2-2l-3 3 3 7c0 1 1 3 2 1 1 0 2-1 1-2l-1-7zm5 17c0-1-1-2-2-1l-1 2c12 28 38 58 71 80h3v-3c-34-22-59-51-71-78zm134 109-2 1 1 2 11 3 2-1-1-2-11-3zm20 4-2 2 2 2c9 2 19 3 27 2l2-3-2-2c-9 1-18 0-27-1z"/></g><defs><linearGradient id="a" x1="336.8" y1="-25.9" x2="80" y2="399.8" gradientUnits="userSpaceOnUse"><stop stop-color="#cccfff"/><stop offset="1" stop-color="#ffbedc"/></linearGradient><linearGradient id="b" x1="162.5" y1="73.1" x2="203.3" y2="213.2" gradientUnits="userSpaceOnUse"><stop stop-color="#03b8ff"/><stop offset="1" stop-color="#fa52a0"/></linearGradient><linearGradient id="c" x1="196" y1="63.4" x2="236.7" y2="203.5" gradientUnits="userSpaceOnUse"><stop stop-color="#03b8ff"/><stop offset="1" stop-color="#fa52a0"/></linearGradient><linearGradient id="d" x1="129.5" y1="82.8" x2="170.3" y2="222.8" gradientUnits="userSpaceOnUse"><stop stop-color="#03b8ff"/><stop offset="1" stop-color="#fa52a0"/></linearGradient></defs></svg>