<svg xmlns="http://www.w3.org/2000/svg" width="256" height="256" fill="none"><circle cx="128" cy="128" r="128" fill="#FC8042"/><path fill="#fff" d="M130.4 216c21.7-1.4 32.7-11 32.9-25.4.2-16.7-27.6-52.5-31.7-67.4-3.1-11.4-.5-26.3 11.7-28.5 13-2.4 21.4 9.5 21.4 23 0 20.5-2 61.2 10 69.4 7.6 5.2 23.4-.4 34-23.8l-.5 1A88 88 0 0 0 125.8 40C104 41.4 93 51 92.7 65.4c-.2 16.7 21.4 38 25.5 53 3.1 11.4.5 26.2-11.7 28.5-13 2.4-19.6-11.3-21.4-23-3.1-20.3 8.2-46.8-3.8-55-7.6-5.2-23.4.2-34 23.6l.7-1.4a88 88 0 0 0 84.5 124.7"/></svg>