<svg xmlns="http://www.w3.org/2000/svg" width="256" height="256" fill="none"><circle cx="128" cy="128" r="128" fill="#E81899"/><path fill="#fff" d="m209.4 156.6-29.3-39.8c-3.2-4.3-7.9-7-13-7.5a3.6 3.6 0 0 1-2.8-5c2-4.7 2.1-10 0-15l-19.9-45.2a18.5 18.5 0 0 0-33.8 0L90.8 89.3c-2.2 5-2 10.3 0 15 .4 1 .3 2.2-.3 3.2-.5 1-1.5 1.7-2.7 1.8-5 .6-9.7 3.2-12.9 7.5l-29.3 39.8a18.5 18.5 0 0 0 17 29.3l49-5.5c5.4-.6 10-3.4 13-7.4a3.6 3.6 0 0 1 5.8 0c3 4 7.6 6.8 13 7.4l49 5.5a18.5 18.5 0 0 0 17-29.3ZM103.6 95l19.8-45.3a4.5 4.5 0 0 1 8.2 0L151.4 95a4.6 4.6 0 0 1-4.2 6.5h-39.4a4.6 4.6 0 0 1-4.2-6.5Zm10.2 69c-.7 1.4-2.1 2.3-3.7 2.5L61 172a4.4 4.4 0 0 1-4-7L86 125a4.6 4.6 0 0 1 7.8.5l19.6 34v.1c.8 1.4.9 3 .2 4.4Zm17.7-15.4a4.7 4.7 0 0 1-8 0l-15.1-26.1a4.7 4.7 0 0 1 4-7h30.2a4.7 4.7 0 0 1 4 7l-15 26.1Zm66.9 21.2a4.5 4.5 0 0 1-4.4 2.2l-49.1-5.5a4.6 4.6 0 0 1-3.5-6.9l19.6-34v-.1a4.6 4.6 0 0 1 7.8-.4l29.3 39.8c1 1.4 1.2 3.3.3 4.9Z"/></svg>