<svg xmlns="http://www.w3.org/2000/svg" width="256" height="256" fill="none"><path d="M128 0a128 128 0 1 1 0 256 128 128 0 0 1 0-256z" fill="url(#a)"/><path d="M177 89c-1 2-1 6-4 5 0 0-18-7-7-27 3-5 6-5 6-17 3 4 12 13 12 26 1 9-4 10-7 13zm-14 31c4-1 11-4 12-19 7 11 30 26 19 71-5 17-22 26-37 32-10 4-20 11-24 22 0 0-75-10-73-84 2-38 38-53 53-81 9-18 6-36 6-36s47 30 26 75c-7 16 10 22 18 20z" fill="#fff"/><path d="M89 134v24h27v27h25v-27h26v-24H89z" fill="url(#b)"/><defs><linearGradient id="a" x1="0" y1="128" x2="256" y2="128" gradientUnits="userSpaceOnUse"><stop stop-color="#ffa50d"/><stop offset="1" stop-color="#fe5413"/></linearGradient><linearGradient id="b" x1="89.3" y1="159.2" x2="166.9" y2="159.2" gradientUnits="userSpaceOnUse"><stop stop-color="#ffa50d"/><stop offset="1" stop-color="#fe5413"/></linearGradient></defs></svg>