<svg xmlns="http://www.w3.org/2000/svg" width="400" height="400" fill="none"><circle cx="200" cy="200" r="200" fill="#ff060a"/><g clip-path="url(#a)"><path d="M339.4 166.4c-13-12-31-30.3-45.6-43.2l-.8-.6a16.4 16.4 0 0 0-4.8-2.7L85.5 83a6 6 0 0 0-2.5 1l-.8.6a9.7 9.7 0 0 0-2.3 3.6l-.2.6v3.5c18.5 51.5 91.5 220 105.8 259.6.9 2.7 2.5 7.8 5.6 8.1h.7c1.7 0 8.7-9.3 8.7-9.3l138-168.2a40.9 40.9 0 0 0 4.3-6.4 10.4 10.4 0 0 0-.4-5.3c-.6-1.7-1.6-3.2-3-4.4zm-106.8 17.7 53.5-44.3 31.4 28.9-84.9 15.4zm-20.8-2.9-92-75.4 149 27.4-57 48zm8.4 19.8 94.2-15.2-107.7 129.9L220.2 201zm-113-87.7 97 82.2-14 120.3-83-202.5z" fill="#fff"/></g><defs><clipPath id="a"><path fill="#fff" transform="translate(73 83)" d="M0 0h277v277H0z"/></clipPath></defs></svg>