<svg xmlns="http://www.w3.org/2000/svg" width="256" height="256" fill="none"><circle cx="128" cy="128" r="128" fill="#151515"/><path fill="#73F36C" d="M97 76a64 64 0 0 1 63 1 32 32 0 0 0-63-1Zm94 65a63 63 0 0 0-22-58h2c9-5 22 5 29 21 8 16 6 32-3 36l-6 1Zm-43 52a64 64 0 0 0 40-40c2 8 1 18-4 29-7 16-20 25-29 21-4-2-6-5-7-10Zm-80-38a64 64 0 0 0 40 38c-1 5-3 8-7 10-9 4-22-5-29-21-5-10-6-20-4-27Zm18-72a64 64 0 0 0-22 58l-5-1c-9-4-11-20-3-36 7-16 20-26 29-21h1Zm28 76a7 7 0 0 1 6-3h17c2 0 4 1 5 3l11 15c2 3 1 7-2 9-14 7-28 8-45 0-4-2-5-6-2-10l10-14Zm36-6a7 7 0 0 1-1-6l5-16a7 7 0 0 1 4-5l18-5c3-1 8 1 8 5v5c0 11 0 15-7 28l-7 9c-3 3-7 3-10 0l-10-15Z"/><path fill="#73F36C" d="M173 112c4-1 6-5 4-9a56 56 0 0 0-37-26c-4-1-7 2-7 6v18c0 3 1 5 3 6l13 10a7 7 0 0 0 7 1l17-6Zm-87 56a56 56 0 0 1-14-42c1-4 5-6 9-5l17 5c2 1 4 3 4 5l6 16a7 7 0 0 1-1 6l-11 15c-2 3-7 3-10 0Zm15-50a7 7 0 0 0 6-1l14-10a7 7 0 0 0 2-6V83c0-4-3-7-7-6l-9 3a56 56 0 0 0-27 23c-2 4 0 8 3 9l18 6Zm21 29a7 7 0 0 1-6-5l-4-11a7 7 0 0 1 2-8l10-7a7 7 0 0 1 8 0l10 7c2 2 3 5 2 8l-3 11a7 7 0 0 1-7 5h-12Z"/></svg>