<svg width="256" height="256" fill="none" xmlns="http://www.w3.org/2000/svg"><path d="M128 256a128 128 0 1 0 0-256 128 128 0 0 0 0 256Z" fill="#3375BB"/><path fill-rule="evenodd" clip-rule="evenodd" d="M189.9 71c4.5 0 8.1 3.7 8.1 8.2v.1a563 563 0 0 1-3 55.2 115.2 115.2 0 0 1-7.8 33A52.5 52.5 0 0 1 178 182a71.8 71.8 0 0 1-16.6 12.7l-8.1 4.7c-6 3.5-12.8 7.3-20.3 12.3a8 8 0 0 1-9 0A316.2 316.2 0 0 0 99.4 197a83 83 0 0 1-19.2-13.8 48 48 0 0 1-9.6-13.7 95 95 0 0 1-7.6-27.4 475.9 475.9 0 0 1-4-62.7 8.1 8.1 0 0 1 8.1-8.2h3.4c10.3 0 33.2-1 53-16.4 3-2.3 7-2.3 10 0a85.2 85.2 0 0 0 53 16.4m-14.8 91.3a81.2 81.2 0 0 0 6.3-22.9c1.9-12.4 3-29.3 3.6-52.3a99.8 99.8 0 0 1-53.1-16.1c-20 13.4-41 15.7-53 16.1.3 19 1.2 33.8 2.6 45.4a102 102 0 0 0 6.5 28.4c1.9 4.2 4 7.2 6.3 9.9a56 56 0 0 0 13 9.8c2.3 1.4 4.8 2.9 7.6 4.4 5 2.8 10.6 6 17 10 6.2-3.9 11.8-7 16.7-9.9l4.2-2.4c6.9-4 12-7.2 15.8-11a36 36 0 0 0 6.5-9.5" fill="#fff"/></svg>