<svg xmlns="http://www.w3.org/2000/svg" width="256" height="256" fill="none"><g clip-path="url(#a)"><path d="M128 256a128 128 0 1 0 0-256 128 128 0 0 0 0 256z" fill="#ff4a4a"/><g clip-path="url(#b)" fill="#fff"><path d="M156.4 153H148a3 3 0 0 1-3-3v-22.7l-15 9.5a3.8 3.8 0 0 1-4 0l-15-9.5V150a3 3 0 0 1-2.9 3h-8.4a3 3 0 0 1-3-3v-43.8a4 4 0 0 1 4-3.9c.7 0 1.4.3 2 .7l23.7 16.4a2.7 2.7 0 0 0 3.2 0l23.6-16.4a3.9 3.9 0 0 1 5.4 1c.5.7.6 1.5.7 2.2V150c0 1.6-1.2 3-2.8 3zM84 153H30.8a4 4 0 0 1-3.9-4v-44a3 3 0 0 1 3-3h8.6a3 3 0 0 1 3 3v33.5h32V105a3 3 0 0 1 3-3h8.3a3 3 0 0 1 3 3v44a4 4 0 0 1-4 4zm88.2-51h53.1a4 4 0 0 1 3.9 4v44a3 3 0 0 1-2.9 3h-8.5a3 3 0 0 1-3-3v-31.6a2 2 0 0 0-1.9-2h-28.2a2 2 0 0 0-2 2V150a3 3 0 0 1-2.9 3h-8.5a3 3 0 0 1-3-3v-44a4 4 0 0 1 4-4zm22.3 23.7h8.5a3 3 0 0 1 2.9 3v8.7a3 3 0 0 1-3 3h-8.4a3 3 0 0 1-3-3v-8.8a3 3 0 0 1 3-2.9z"/></g></g><defs><clipPath id="a"><path fill="#fff" d="M0 0h256v256H0z"/></clipPath><clipPath id="b"><path fill="#fff" transform="translate(27 102)" d="M0 0h202v51H0z"/></clipPath></defs></svg>