<svg xmlns="http://www.w3.org/2000/svg" width="256" height="256" fill="none"><g clip-path="url(#a)"><circle cx="128" cy="128" r="128" fill="#259A47"/><path stroke="#FEFEFF" stroke-width="7" d="m-4 126 30.5-21L59 129M37 33.9l36.4 6.7 6 40M261 127l-30.5 21-32.5-24m25.4 96.7L187 214l-6-40m-52 87-21-30.5 24-32.5"/><path fill="#FFC70A" d="M135 0h83v73h-83z"/><path stroke="#FEFEFF" stroke-width="7" d="m33.5 218.6 9.9-35.7 40.3-2.5"/><path fill="#FEC60B" d="m219.5 35-4.4 35.4-35.6 3.6 40-39Z"/><path fill="#249A47" d="m128-2 22.8 27.3L128 52.1V-2Z"/><path stroke="#FEFEFF" stroke-width="7" d="M222.7 35.1 216 71.5l-40 6M130-5l21 30.5L127 58"/><circle cx="129" cy="128" r="76" fill="#FEFEFF"/><path fill="#259A47" d="M97.1 121.6c5.8 43.1 42.2 44.7 61.4 41.2 10-43-12.4-58.5-27.8-65.2 0 0-18.2-6.7-36.4-9.6-1.4-.2 2.8 33.6 2.8 33.6Z"/></g><defs><clipPath id="a"><rect width="256" height="256" fill="#fff" rx="128"/></clipPath></defs></svg>