<svg xmlns="http://www.w3.org/2000/svg" width="400" height="400" fill="none"><mask id="a" maskUnits="userSpaceOnUse" x="0" y="0" width="400" height="400" mask-type="alpha"><path d="M200 400a200 200 0 1 0 0-400 200 200 0 0 0 0 400z" fill="#f0f0f0"/></mask><g mask="url(#a)"><path d="M200 400a200 200 0 1 0 0-400 200 200 0 0 0 0 400z" fill="#fff"/><path d="M238 240h427c0-28-5-54-14-80H238v80zm0-160h230c-16-31-36-58-60-80H238v80zm-342 320h608c17-25 31-51 40-80h-688c9 29 23 55 40 80z" fill="#d80027"/><path d="M93 12h25L95 29l9 27-23-17-23 17 7-24C45 49 27 69 13 91h8L6 101l-6 12 7 21-13-9-9 21 8 23h28l-23 17 9 27-23-17-14 10a273 273 0 0 0-2 34h270V-30c-53 0-103 15-145 42zm11 201-23-17-23 17 9-27-23-17h28l9-26 8 26h29l-23 17 9 27zm-9-106 9 27-23-16-23 16 8-27-22-16h28l9-27 8 27h29l-23 16zm105 106-23-17-22 17 8-27-23-17h29l8-26 9 26h29l-23 17 8 27zm-8-106 8 27-23-16-22 16 8-27-23-16h29l8-27 9 27h29l-23 16zm0-78 8 27-23-17-22 17 8-27-23-17h29l8-27 9 27h29l-23 17z" fill="#0052b4"/></g></svg>