<svg xmlns="http://www.w3.org/2000/svg" width="256" height="256" fill="none"><circle cx="128" cy="128" r="128" fill="#C7CDC8"/><circle cx="128" cy="128" r="107.9" fill="#355841"/><path fill="#C7CCC8" d="m103.8 51.5 24.6 69.6 23.5-69.6H184l.4.3v115c-2-.5-3.9-2.2-5.7-3.3a143 143 0 0 0-16.1-7.8v-74c-.3 0-.5.6-.6.9-8.2 21.4-14.7 43.7-23 65-.3.7-.9 2.7-1.6 2.7-1 0-2.6-.4-3.6-.5h-10.4c-1 0-4.7 1-5.3.2L93.4 82.7v73.2c0 .1-.2.6-.4.6-5 2-9.9 4.3-14.5 7-2.3 1.4-4.5 3.2-6.9 4.3V51.5h32.2Z"/><path fill="#C7CCC8" d="M115.2 167.5v8c-3.3-.8-6.6-2.2-10-2v8.3c2.1.8 4.5 1 6.7 2.1 7.1 3.7 7.4 14.2.7 18.5-2.2 1.5-4.9 2-7.5 2.5v3.7c-.2.3-.4.3-.8.4h-4.5c-.3-.1-.5-.2-.6-.4V205c-4-.3-7.8-.7-11.5-2.1v-8c3.7 1.3 7.5 2.4 11.5 2.2V189l-.5-.4c-8.2-.6-13.4-5.5-11.4-14.2 1.2-5.4 6.7-8.2 11.9-8.5v-4.1h5.6c.8.6 0 3.5.6 4 3.4 0 6.5.8 9.8 1.7Zm-16 13.4v-7c-.4-.5-1.7 0-2.2.2-1.7.7-2.3 1.8-2.2 3.6.2 2 2.6 2.9 4.4 3.2Zm6 8.9v7.2c5.5-.5 5.4-6.5 0-7.2Zm51.6-28v3.5c0 .7 4 .7 4.9.9 1.8.3 3.6 1 5.4 1.3v8c-3.4-.7-6.7-2.3-10.3-2v8.3l.5.3c4.6.4 10.6 3 11.7 8.2 1.5 7.7-2.5 12.5-9.7 14.2-.9.2-1.8 0-2.5.7v3.7h-5.3l-.4-.3V205c-4-.4-7.8-.5-11.5-2.2v-6c0-.7-.5-1.4.1-1.8a30 30 0 0 0 11.4 2.1v-8.4c-6-.7-11.7-3.2-12.4-10-.8-7.6 5.2-12.5 12.4-13v-4h5.7Zm-5.7 12c-6-.1-5.8 6.7 0 7.1v-7.1Zm5.7 16.4v6.4c0 .9 2.5-.2 3-.5 1.6-1.1 2-3.6.4-5-.5-.4-3.1-1.7-3.4-1Z"/></svg>