<svg xmlns="http://www.w3.org/2000/svg" width="256" height="256" fill="none"><circle cx="128" cy="128" r="128" fill="url(#a)"/><path fill="#fff" fill-rule="evenodd" d="M136.3 205c13.8 0 25.5-9.6 30.4-22.4l1.4-3.5a58.6 58.6 0 0 0 0-102.2l-1.4-3.5A33.5 33.5 0 0 0 136.3 51 77.1 77.1 0 0 0 59 128c0 42.5 34.6 77 77.3 77ZM168 77a58.7 58.7 0 0 0-87.8 51 58.7 58.7 0 0 0 87.8 51 151.3 151.3 0 0 0 0-102Z" clip-rule="evenodd"/><defs><linearGradient id="a" x1="6" x2="221.5" y1="88" y2="210" gradientUnits="userSpaceOnUse"><stop offset=".6" stop-color="#030303"/><stop offset="1" stop-color="#505050"/></linearGradient></defs></svg>