<svg xmlns="http://www.w3.org/2000/svg" fill="none" viewBox="0 0 256 256"><g clip-path="url(#a)"><path d="M128 256a128 128 0 1 0 0-256 128 128 0 0 0 0 256z" fill="#09170e"/><path d="M49 128c-1 11 4 26 7 32l30-12c3 0 6-1 9 3 3 5 1 9-1 11l-24 23c4 7 18 15 25 19l29-56c7-15-4-19-10-20H49zm117 74c10-4 20-14 24-19l-23-23c-2-2-4-4-2-9 3-5 7-5 9-4l30 11c4-7 5-24 5-32l-59 2c-16 1-16 12-13 18l29 56zm8-143c-9-7-23-12-30-13l-5 35c-1 3-3 8-9 8s-7-4-8-6l-7-37c-8 0-24 9-30 13l34 55c9 13 18 7 21 1l34-56z" fill="#1ad16f"/></g><defs><clipPath id="a"><path fill="#fff" d="M0 0h256v256H0z"/></clipPath></defs></svg>