<svg xmlns="http://www.w3.org/2000/svg" width="256" height="256" fill="none"><g clip-path="url(#a)"><path d="M128 256a128 128 0 1 0 0-256 128 128 0 0 0 0 256z" fill="#090839"/><path d="M198 75h-12.4c-3 0-5.8 1.7-7.1 4.4L145.9 147l-8.8 18-8.6 18L85 93h12.4c3 0 5.8 1.8 7 4.5l28.4 58.4 8.7-18-22.9-47.2a27.9 27.9 0 0 0-25-15.7H59l8.7 18 52 108h17.4L198 75z" fill="url(#b)"/></g><defs><linearGradient id="b" x1="63.5" y1="102.5" x2="199.5" y2="104.5" gradientUnits="userSpaceOnUse"><stop stop-color="#8951ff"/><stop offset="1" stop-color="#72f7ff"/></linearGradient><clipPath id="a"><path fill="#fff" d="M0 0h256v256H0z"/></clipPath></defs></svg>