<svg xmlns="http://www.w3.org/2000/svg" width="256" height="256" fill="none"><circle cx="128" cy="128" r="128" fill="url(#a)"/><g clip-path="url(#b)"><path fill="url(#c)" fill-rule="evenodd" d="M162.1 134.9a118.7 118.7 0 0 0 39-23.3c.4-.3.6-.9.7-1.4a2 2 0 0 0-.5-1.6 2 2 0 0 0-1.3-.8c-.6-.1-1.2 0-1.7.3a129.2 129.2 0 0 1-34.2 14.3c.4-4.5.3-9.1-.3-13.7A50 50 0 0 0 152 81c-8-8.8-21-12-32.1-8.5-13.5 4-24.7 16-25.1 30.6-.6 19 17.2 34.5 35.3 36.2 2 .3 4.2.4 6.3.4-3.3 7.3-7.6 14.2-12.2 20.7a130.7 130.7 0 0 0-60.9-53c-6-2.6-12-4.6-18.3-6-2.1-.4-4.1-.8-6.3-1-.6 0-1.1 0-1.6.4a2 2 0 0 0-.9 1.3 2 2 0 0 0 .1 1.5c.3.5.7 1 1.2 1.1a152 152 0 0 1 38.4 27 147.3 147.3 0 0 1 34 49.9 14.3 14.3 0 0 0 24.2 3c6.4-6.8 12-14.4 16.8-22.6 5-8.2 9-17.4 11.3-27Zm-31.7 37 .2.4-.2-.3Zm10.9-46.6c1.1-4.8 1.7-9.7 1.5-14.6-.5-8.7-3.9-21-14.3-21.3-9 0-17.3 8.4-14.7 17.4 3.8 13.2 15.2 18 27.5 18.5Z" clip-rule="evenodd"/><path fill="url(#d)" d="M208 102.7c.9 4.3 2.3 7 6.5 6.4a8 8 0 0 0 6.5-7.6c0-3.5-3-5.8-6.5-5.3-4.5.7-7.2 3-6.5 6.5Z"/></g><defs><linearGradient id="a" x1="32" x2="215" y1="41.5" y2="224.5" gradientUnits="userSpaceOnUse"><stop stop-color="#C5F1F2"/><stop offset="1" stop-color="#EFFED6"/></linearGradient><linearGradient id="c" x1="36.7" x2="221.3" y1="69.9" y2="189.2" gradientUnits="userSpaceOnUse"><stop stop-color="#44BCC3"/><stop offset="1" stop-color="#236D66"/></linearGradient><linearGradient id="d" x1="74" x2="258.6" y1="12.2" y2="131.5" gradientUnits="userSpaceOnUse"><stop stop-color="#44BCC3"/><stop offset="1" stop-color="#236D66"/></linearGradient><clipPath id="b"><path fill="#fff" d="M0 0h185v119H0z" transform="translate(36 71)"/></clipPath></defs></svg>