<svg width="256" height="256" fill="none" xmlns="http://www.w3.org/2000/svg"><g clip-path="url(#a)"><path d="M128 256a128 128 0 1 0 0-256 128 128 0 0 0 0 256Z" fill="url(#b)"/><path d="M128.5 243a115.5 115.5 0 1 0 0-231 115.5 115.5 0 0 0 0 231Z" fill="#fff"/><path d="m129 161-54-31 54-87 53 87-53 31Z" fill="#424242"/><path d="m129 213-54-73 54 31 53-31-53 73Z" fill="#FF0079"/></g><defs><linearGradient id="b" x1="127.6" y1="0" x2="127.6" y2="256" gradientUnits="userSpaceOnUse"><stop stop-color="#434242"/><stop offset="1" stop-color="#FC0178"/></linearGradient><clipPath id="a"><path fill="#fff" d="M0 0h256v256H0z"/></clipPath></defs></svg>