<svg xmlns="http://www.w3.org/2000/svg" width="491" height="491" fill="none"><g clip-path="url(#a)"><path d="M246 491a245 245 0 1 0 0-491 245 245 0 0 0 0 491z" fill="#627eea"/><g fill="#fff"><path d="M246 82v121l102 46L246 82z" fill-opacity=".6"/><path d="M246 82 144 249l102-46V82z"/><path d="M246 327v82l102-141-102 59Z" fill-opacity=".6"/><path d="M246 409v-82l-102-59 102 141Z"/><path d="m246 308 102-59-102-46v105z" fill-opacity=".2"/><path d="m144 249 102 59V203l-102 46z" fill-opacity=".6"/></g></g><defs><clipPath id="a"><path fill="#fff" d="M0 0h491v491H0z"/></clipPath></defs></svg>