<svg xmlns="http://www.w3.org/2000/svg" width="256" height="256" fill="none"><path d="M128.5 252a124.5 124.5 0 1 0 0-249 124.5 124.5 0 0 0 0 249z" fill="#fff"/><path d="M245.7 78.3a128.3 128.3 0 0 0-27.5-40.7A127.3 127.3 0 0 0 78.2 10a128.2 128.2 0 0 0-40.7 27.5 128.3 128.3 0 0 0-27.4 40.7 127.4 127.4 0 0 0 0 99.7 128.3 128.3 0 0 0 27.4 40.7A127.2 127.2 0 0 0 177.8 246a128.2 128.2 0 0 0 40.7-27.6 128.3 128.3 0 0 0 27.4-40.7 127.4 127.4 0 0 0-.2-99.4zM85.6 116a47.3 47.3 0 0 1 46-35.5h88.9c5.8 11 9.4 23 10.7 35.5H85.6zm145.6 24.2a102.7 102.7 0 0 1-10.7 35.5h-89a47.7 47.7 0 0 1-46-35.5h145.7zM54.5 54.6a103.4 103.4 0 0 1 147-.1l1.8 1.7h-71.7a71 71 0 0 0-50.7 21 69.6 69.6 0 0 0-20 38.7h-36c2.7-23.2 13-44.7 29.7-61.4zM128 232a103.8 103.8 0 0 1-103.2-91.9H61c2.4 14.5 9.4 28 19.9 38.7a71 71 0 0 0 50.7 21h71.7l-1.8 1.8A103.2 103.2 0 0 1 128 232z" fill="#000"/></svg>