<svg xmlns="http://www.w3.org/2000/svg" width="256" height="256" fill="none"><circle cx="128" cy="128" r="128" fill="#171412"/><path fill="#EAAC08" fill-rule="evenodd" d="M100 129c.6 0 1 .6.9 1.2 0 .6-.6 1-1.1 1l-28-5c3 4.2 7.6 7.7 12.2 8.8l32.6 6.4-41.1 24c5 2.4 10.6 2 15.3-1.1l.8-.7 15.2-10.8c.4-.3 1-.2 1.2.3.3.5.2 1.1-.3 1.4L92 165.8a12 12 0 0 0 13-1.7l12-10.6c.4-.4 1-.3 1.3.2.3.4.2 1-.2 1.4L106 166c4.3.5 9.9-.9 13.4-3.8 4-3.8 9-9.2 13.5-11.7 2.7-1.5 5.8-2.3 9.6-1.7 2.6 1 5.3 1.5 8 1.4 1.9.4 3.5 1.6 4.4 3.4.6-2.9-.4-6.1-2.8-7 0-1-.4-2-1.2-2.5l-.6-.4-17.4-9.9-24.6-13.8c-3.6-2-7.5-3.6-11.4-4.7-2.4-.6-4.5-1-6.9-1.4L31 103c3.2 4.8 7.5 7.4 12.6 8.3l41.6 7.6c.5.1.9.7.8 1.3-.1.6-.6 1-1.1 1l-33-6.1c2.4 3.7 6 6.2 10 7l.6.2 37.6 6.6ZM205.5 114.7l-33.6 6c-.5.2-1-.2-1-.8-.1-.6.2-1.2.8-1.3l42.9-7.7c4.2-1 8-3.8 10.4-7.9l-61.3 11.5c-5 .9-8.2 2.2-12.7 4.6L131 130l16.6 9c9.4-1.9 18-3.2 27.4-5.1 4.4-1 8.4-4.1 10.9-8.6l-28.7 5.2c-.5.1-1-.3-1-.9-.2-.6.2-1.1.7-1.2l37.3-6.8c4.3-.9 8.2-3.3 11.3-6.9Z" clip-rule="evenodd"/></svg>