<svg xmlns="http://www.w3.org/2000/svg" width="56" height="56" fill="none"><path d="M56 28a28 28 0 1 1-56 0 28 28 0 0 1 56 0z" fill="#d69a00"/><path d="M21.2 21.6H35l-2-5.4a1.2 1.2 0 0 0-.4-.6l-11.4 6zm0-6.4c.5-1.4 1.6-2.2 2.8-2.2h8c1.2 0 2.3.8 2.7 2.2l2 5.3c.7 1.7-.3 3.5-1.8 3.5H21c-1.4 0-2.4-1.8-1.8-3.5l2-5.3zm-11 20.4H24l-2-5.4a1.2 1.2 0 0 0-.4-.6l-11.4 6zm0-6.4c.5-1.4 1.6-2.2 2.7-2.2h8.2c1.1 0 2.2.8 2.7 2.2l2 5.3c.6 1.7-.4 3.5-1.8 3.5H10c-1.4 0-2.4-1.8-1.8-3.5l2-5.3zM46 35.6H32.2l11.5-6 .4.6 2 5.4zM34.9 27c-1.1 0-2.2.8-2.7 2.2l-2 5.3c-.6 1.7.4 3.5 1.8 3.5h14c1.5 0 2.5-1.8 2-3.5l-2.1-5.3c-.5-1.4-1.6-2.2-2.7-2.2h-8.3z" fill="#fff"/></svg>