<svg xmlns="http://www.w3.org/2000/svg" viewBox="0 0 256 256"><defs><linearGradient id="a" x1="-91.2" y1="-135.1" x2="342.8" y2="385.8" gradientUnits="userSpaceOnUse"><stop offset="0" stop-color="#273498"/><stop offset=".5" stop-color="#0074c2"/><stop offset="1" stop-color="#00abe7"/></linearGradient></defs><g fill="#fff"><path d="m145 100-32 18a3 3 0 0 0-1 2v16a2 2 0 0 0 1 2l14 8a2 2 0 0 0 2 0l55-32c9-5 9-21 0-26l-49-29a13 13 0 0 0-14 0L72 88a13 13 0 0 0-7 12v56a13 13 0 0 0 7 12l49 29a14 14 0 0 0 14 0l49-29a13 13 0 0 0 7-12v-24l-59 34a8 8 0 0 1-8 0l-27-16a8 8 0 0 1-4-7v-30a8 8 0 0 1 4-7l27-16a8 8 0 0 1 8 0l13 8a1 1 0 0 1 0 2z"/><path d="M128 37a91 91 0 1 0 91 91 91 91 0 0 0-91-91zm17 61-13-8a8 8 0 0 0-8 0l-27 16a8 8 0 0 0-4 7v30a8 8 0 0 0 4 7l27 16a8 8 0 0 0 8 0l59-34v24a13 13 0 0 1-7 12l-49 29a14 14 0 0 1-14 0l-49-29a13 13 0 0 1-7-12v-56a13 13 0 0 1 7-12l49-29a13 13 0 0 1 14 0l49 29c9 5 9 21 0 26l-55 32a2 2 0 0 1-2 0l-14-8a2 2 0 0 1-1-2v-16a3 3 0 0 1 1-2l32-18a1 1 0 0 0 0-2z"/></g><path d="M128 0a128 128 0 1 0 128 128A128 128 0 0 0 128 0zm17 98-13-8a8 8 0 0 0-8 0l-27 16a8 8 0 0 0-4 7v30a8 8 0 0 0 4 7l27 16a8 8 0 0 0 8 0l59-34v24a13 13 0 0 1-7 12l-49 29a14 14 0 0 1-14 0l-49-29a13 13 0 0 1-7-12v-56a13 13 0 0 1 7-12l49-29a13 13 0 0 1 14 0l49 29c9 5 9 21 0 26l-55 32a2 2 0 0 1-2 0l-14-8a2 2 0 0 1-1-2v-16a3 3 0 0 1 1-2l32-18a1 1 0 0 0 0-2z" fill="url(#a)"/></svg>