<svg xmlns="http://www.w3.org/2000/svg" width="800" height="800" viewBox="0 0 32 32" fill-rule="evenodd"><circle cx="16" cy="16" r="16" fill="#67b2e8"/><path fill="#fff" d="M6.14 11.95A19.83 19.83 0 0 1 6 9.64a20.04 20.04 0 0 1 4.15-1.78A20.22 20.22 0 0 1 16.41 7a26.15 26.15 0 0 1 2.02.14 6 6 0 0 0-3.07 4.2 6.3 6.3 0 0 0-.1.98c-.02.54-.07.96-.18 1.36a4.53 4.53 0 0 1-8.47.67 1.48 1.48 0 0 1-.1-.3 20.17 20.17 0 0 1-.36-2.1zm16.62 8.56L22 21.6a5.9 5.9 0 0 0-.73-2.9 5.93 5.93 0 0 0-2.15-2.25l-.09-.06a7.08 7.08 0 0 1-.15-.09 4.44 4.44 0 0 1-2.07-3.04 4.52 4.52 0 0 1 3.38-5.22 4.5 4.5 0 0 1 2.44.08c.62.2 1.24.45 2 .81l1.36.7a20.11 20.11 0 0 1-.45 4.15 20.15 20.15 0 0 1-2.8 6.73zm-3.04 3.68A20.52 20.52 0 0 1 16 27a15.74 15.74 0 0 1-1.02-.64 20.38 20.38 0 0 1-7.28-8.72 5.88 5.88 0 0 0 2.42.78 6.03 6.03 0 0 0 3.61-.77 4.62 4.62 0 0 1 1.7-.57 4.52 4.52 0 0 1 4.9 3.2 4.46 4.46 0 0 1-.27 3.32l-.18.34-.04.09a.58.58 0 0 1-.12.16z"/></svg>