<svg xmlns="http://www.w3.org/2000/svg" width="400" height="400" fill="none"><circle cx="200" cy="200" r="200" fill="#000"/><path d="m298 114-33 17-160 82a96 96 0 0 1-1-13c0-16 5-33 13-47a95 95 0 0 1 34-35 95 95 0 0 1 48-13 95 95 0 0 1 47 12l19-9 3-2a116 116 0 0 0-59-22 116 116 0 0 0-62 13 116 116 0 0 0-47 43 116 116 0 0 0-17 60v9a21 21 0 0 1-11 21l-10 5v24l29-15 10-5 9-5 169-86 19-10 39-20V95l-39 19zm39 28L120 253l-19 10-39 19v24l39-20 33-16 160-82a97 97 0 0 1-12 60 95 95 0 0 1-129 36h-1l-21 11c18 12 38 20 59 21a116 116 0 0 0 62-12 116 116 0 0 0 64-104 120 120 0 0 0 0-8c-1-5 0-9 2-12s5-7 9-9l10-5v-24z" fill="#fff"/></svg>