<svg xmlns="http://www.w3.org/2000/svg" width="256" height="256" fill="none"><circle cx="128" cy="128" r="128" fill="#162F29"/><path fill="#fff" d="M219.7 128.4v2.8H175v-2h-43v-2.6h43v-2h44.7v3.8Zm-88.4-9.2 42-5.2.3 2 44.4-5.4c-.4-2.2-.9-4.3-1.5-6.5l-43.7 5.4.2 2-42.3 5.2.6 2.5Zm-2.2-8.1 40.2-10 .5 1.9 42.7-10.7c-1-2-1.8-4-2.9-6l-41.4 10.3.5 2-40.6 10.1 1 2.4Zm-3.6-7.7L163 89.2l.7 2 39.8-15a87 87 0 0 0-4-5.6L161.4 85l.7 1.9-38 14.3 1.3 2.2Zm-5-7L153.9 79l.9 1.8 36.7-19.2a93 93 0 0 0-5.2-4.7l-34.5 18 .9 1.8-33.8 17.6 1.7 2Zm-8-7.6 30.1-19.2 1.1 1.8L177 50.3c-2-1.4-4.2-2.6-6.4-3.8l-30.3 19.3 1 1.7-30.9 19.7 2.3 1.6Zm-7-4.5 25.1-20.6 1.3 1.5L160.3 42a92 92 0 0 0-7.4-2.4L127.8 60l1.2 1.6-26 21.4 2.4 1.2ZM96 80.7l20-19.9 1.4 1.5L142.7 37a95 95 0 0 0-8.4-1l-21.6 21.5 1.5 1.4-21 21 2.8.7ZM85 79 101 59.8l1.6 1.2L123 36a93 93 0 0 0-9.3 1L97.4 56.8 99 58 81.8 79a53.9 53.9 0 0 1 3.2 0Zm-9.5.6 12.2-19 1.7 1.1L104.2 39a92 92 0 0 0-9.9 3.1L84 58.2l1.7 1-13.5 21a49 49 0 0 1 3.4-.6Zm-10.6 3L73.7 66l1.8 1 11.7-21.8a92 92 0 0 0-10.8 6.1L69.7 64l1.8 1-10.4 19.3a46 46 0 0 1 3.8-1.7Zm-7.5 3.8L61 75.8l2 .6 7.2-20.6a94 94 0 0 0-10.4 9.6l-3.1 8.9 2 .6-5 14a49 49 0 0 1 3.5-2.5ZM48 94l1.7-7.7 2 .4L55 71a93 93 0 0 0-9.3 14.3l1.5.3-3 12.8A48 48 0 0 1 48 94Zm-6.8 9V92.8a99.4 99.4 0 0 0-5.2 22.6c1.1-4.3 2.9-8.5 5.2-12.4ZM36 140.6c1 6.7 2.6 13.2 5 19.6v-7.6c-2.2-3.7-3.9-7.8-5-12Zm8.4 17 2.7 12.4-1.5.3a92 92 0 0 0 9.2 14.3l-3.3-15.5-2 .4-1.7-7.8a47 47 0 0 1-3.4-4Zm9.2 9.3 5 14-2 .6 3.2 8.9a94 94 0 0 0 10.3 9.5L63 179.3l-1.9.7-3.7-10.7a54 54 0 0 1-3.6-2.4Zm7.4 4.6 10.4 19.4-1.8 1 6.6 12.5a92 92 0 0 0 10.8 6.2l-11.6-21.8-1.8 1-8.8-16.6c-1.3-.5-2.6-1-3.8-1.7Zm10.9 4 13.6 21-1.7 1 10.4 16.2a92 92 0 0 0 9.9 3.2L89.4 194l-1.7 1.1-12.3-19-3.4-.6Zm9.7 1.3 17.2 20.8-1.6 1.3 16.5 20c3 .4 6.1.7 9.3.8l-20.7-25-1.6 1.3L85 176.7h-3.2Zm11.4-1 21 20.9-1.4 1.4 21.5 21.5c2.8-.2 5.6-.6 8.4-1l-25.3-25.2-1.4 1.5-20-19.8-2.8.7Zm9.8-3.1 26 21.4-1.2 1.5 25.2 20.7c2.5-.7 5-1.5 7.4-2.5l-28.4-23.3-1.3 1.6-25.2-20.6-2.5 1.2Zm7.4-4.1 30.9 19.6-1.1 1.8 30.3 19.2c2.2-1.1 4.3-2.4 6.4-3.7l-33.2-21.1-1 1.7-30.1-19-2.2 1.5Zm8.5-7.3 33.7 17.6-.9 1.8 34.5 18c1.8-1.5 3.6-3 5.3-4.7L154.6 175l-.9 1.8-33.2-17.3-1.7 2Zm5.3-6.8 38 14.4-.7 1.9 38 14.3c1.5-1.7 2.8-3.6 4.1-5.5l-39.7-15-.8 2-37.5-14.3-1.4 2.2Zm4-7.4 40.5 10-.5 2 41.5 10.4c1-2 2-4 2.8-6l-42.7-10.7-.5 2-40.2-10a74 74 0 0 1-.9 2.3Zm2.6-8 42.3 5.1-.3 2 43.8 5.4c.6-2 1-4.2 1.5-6.4l-44.5-5.5-.2 2-42-5.1-.6 2.5Z"/></svg>