<svg xmlns="http://www.w3.org/2000/svg" width="400" height="400" fill="none"><circle cx="200" cy="200" r="200" fill="#2c7df7"/><g clip-path="url(#a)"><path d="M225.5 342c-19.6 0-34-4.7-43-14.2a43.8 43.8 0 0 1-13.5-30.5c0-3.6.7-7 2.4-10.1 1.5-2.7 3.7-5 6.4-6.5a22.5 22.5 0 0 1 10-2.3c3.5 0 7 .8 10 2.3a17 17 0 0 1 6.5 6.5c1.7 3 2.5 6.5 2.4 10 .2 4.3-1 8.4-3.4 11.9a16 16 0 0 1-8.2 6 22.3 22.3 0 0 0 13 8 64 64 0 0 0 17.5 2.5 39.2 39.2 0 0 0 22.1-6.6 38.7 38.7 0 0 0 14.5-19.5 85 85 0 0 0 4.7-29.3 80.3 80.3 0 0 0-5.1-30.4 37.5 37.5 0 0 0-15-19c-6.4-4-13.8-6.1-21.4-6-6.7.5-13 2.7-18.7 6.2l-13.8 7v-7l62-83.1H169v86.3a30.9 30.9 0 0 0 4.7 17.6 16.3 16.3 0 0 0 14.5 7 24.1 24.1 0 0 0 14.2-5c4.7-3.5 8.7-7.6 12-12.4a4.3 4.3 0 0 1 1.5-2c.6-.5 1.4-.8 2.1-.8a7.2 7.2 0 0 1 4 1.7 8.6 8.6 0 0 1 2.3 5.9 34.2 34.2 0 0 1-.8 4.3 41.6 41.6 0 0 1-14.8 18.3 36.6 36.6 0 0 1-20.6 6.2c-18.7 0-31.5-3.6-38.7-11a40 40 0 0 1-8.4-14 41.2 41.2 0 0 1-2.3-16v-86.1H95v-16h44V85.2l-10.1-10.1V67H158l11 5.7v49.1l113.6-.3 11.3 11.3-69.7 70a46.8 46.8 0 0 1 13.2-3.2 57 57 0 0 1 25.4 7.3 52.3 52.3 0 0 1 22 19.5 69 69 0 0 1 9.8 23.6 84.5 84.5 0 0 1-6.2 57.6 54.9 54.9 0 0 1-25.8 25.8 83.5 83.5 0 0 1-37.1 8.6z" fill="#fff"/></g><defs><clipPath id="a"><path fill="#fff" transform="translate(95 67)" d="M0 0h202v275H0z"/></clipPath></defs></svg>