<svg xmlns="http://www.w3.org/2000/svg" viewBox="0 0 100 100"><linearGradient id="a" gradientUnits="userSpaceOnUse" x1="0" y1="0" x2="100" y2="100"><stop offset="0" stop-color="#0077fc"/><stop offset="1" stop-color="#095eb5"/></linearGradient><g fill-rule="evenodd"><path d="M100 50A50 50 0 1 0-.1 50 50 50 0 0 0 100 50z" fill="url(#a)"/><path d="M47.4 27.4h5.2v45.2h-5.2V27.4zm-2.9 21.3v-5.4A12.5 12.5 0 0 1 50 19.6c7.8 0 13.4 5.6 13.4 12.5 0 1.7-.4 3.4-1.2 5.4L60 30.3l-4.4 1.4 3.9 14.9L74.7 41l-1.9-4.4-5.7 1.9a14 14 0 0 0 1.2-6.5c0-9.7-7.8-17.5-18.4-17.5-9.7 0-17.5 7.8-17.5 17.5.1 7.8 5.1 14.4 12.1 16.7zm11 2.6v5.4A12.5 12.5 0 0 1 50 80.4c-7.8 0-13.4-5.6-13.4-12.5 0-1.7.4-3.4 1.2-5.4l2.2 7.2 4.4-1.4-3.9-14.9L25.3 59l1.9 4.4 5.7-1.9a14 14 0 0 0-1.2 6.5c0 9.7 7.8 17.5 18.4 17.5 9.7 0 17.5-7.8 17.5-17.5a17.7 17.7 0 0 0-12.1-16.7z" fill="#fff"/></g></svg>