<svg xmlns="http://www.w3.org/2000/svg" width="400" height="400" fill="none"><g clip-path="url(#a)"><path d="M200 400a200 200 0 1 0 0-400 200 200 0 0 0 0 400z" fill="#f0f0f0"/><path d="M59 341c-79-78-79-204 0-282l115 141L59 341z" fill="#000"/><path d="M174 200 27 100l-13 25 75 75-75 75 13 25 147-100z" fill="#ffb81c"/><path d="M398 174H174L59 59c-13 12-24 26-32 41l99 100-99 100a201 201 0 0 0 32 41l115-115h224a202 202 0 0 0 0-52z" fill="#007749"/><path d="M78 359a199 199 0 0 0 122 41c92 0 170-63 193-148H185L78 359z" fill="#001489"/><path d="M393 148A200 200 0 0 0 78 41l107 107h208z" fill="#e03c31"/></g><defs><clipPath id="a"><path fill="#fff" d="M0 0h400v400H0z"/></clipPath></defs></svg>