<svg xmlns="http://www.w3.org/2000/svg" viewBox="0 0 2500 2500"><defs><linearGradient id="a" x1="552.7" y1="1972.5" x2="1980.9" y2="544.3" gradientUnits="userSpaceOnUse"><stop offset="0" stop-color="#cf8724"/><stop offset="1" stop-color="#fdce58"/></linearGradient></defs><path d="M1263 2298c-570 0-1035-466-1035-1035 0-570 466-1035 1035-1035 570 0 1035 466 1035 1035 0 570-465 1035-1035 1035z" fill="url(#a)"/><path d="M1250 2500C563 2500 0 1938 0 1250S563 0 1250 0s1250 563 1250 1250-562 1250-1250 1250zm0-2222c-535 0-972 437-972 972s437 972 972 972 972-437 972-972-437-972-972-972zm-29 1311h542v270h-320v230h-278v-222H832c0-91-14-181 7-264 7-42 55-84 90-125l320-375c42-49 83-91 132-146H860V686h306V457h270v222h334c0 90 14 180-7 264-7 41-56 83-91 125l-319 375c-42 49-84 97-132 146z"/></svg>