<svg xmlns="http://www.w3.org/2000/svg" width="256" height="256" fill="none"><path fill="url(#a)" d="m232.4 54-21.1 32.4A93 93 0 0 1 86.4 211.5L54 232.4A128 128 0 0 0 232.4 54Z"/><path fill="url(#b)" d="M128 192c15.2 0 30-5.2 41.6-14.6a63 63 0 0 0 22.4-37.2 151 151 0 0 0-118 23.9 66.5 66.5 0 0 0 54 28Z"/><path fill="#041742" d="M159.4 125.3c11 0 21.9 1.2 32.6 3.6a65 65 0 0 0-42.6-61.2 64 64 0 0 0-83.6 43.4 65 65 0 0 0-1.8 26.2c-8.9 6.5-17 14-24 22.5A93 93 0 0 1 46.3 83a93.5 93.5 0 0 1 77.3-48 92.7 92.7 0 0 1 45.9 10L202 23.6A127.4 127.4 0 0 0 36.7 38.5 129.1 129.1 0 0 0 24.8 205 154.3 154.3 0 0 1 69 154.7c26.3-19.2 58-29.5 90.4-29.4Z"/><defs><radialGradient id="a" cx="0" cy="0" r="1" gradientTransform="matrix(215.291 0 0 215.265 232.4 53.8)" gradientUnits="userSpaceOnUse"><stop offset=".1" stop-color="#26DB8D"/><stop offset=".3" stop-color="#23D29A"/><stop offset=".6" stop-color="#1ABBBB"/><stop offset=".9" stop-color="#0E9DE5"/></radialGradient><radialGradient id="b" cx="0" cy="0" r="1" gradientTransform="matrix(217.905 0 0 211.946 233.3 55.4)" gradientUnits="userSpaceOnUse"><stop offset=".1" stop-color="#26DB8D"/><stop offset=".3" stop-color="#23D29A"/><stop offset=".6" stop-color="#1ABBBB"/><stop offset=".9" stop-color="#0E9DE5"/></radialGradient></defs></svg>