<svg xmlns="http://www.w3.org/2000/svg" width="256" height="256" fill="none"><g clip-path="url(#a)"><path d="M128 256a128 128 0 1 0 0-256 128 128 0 0 0 0 256z" fill="#151832"/><g clip-path="url(#b)"><path d="m185 114-23 10-61 31 61 30v-49l23-10v72l-23 10-90-43v-23l62-31-62-29V58l23-10 90 43v23z" fill="#49c1bf"/><path d="m72 58 90 43 23-10-90-43-23 10z" fill="#077a8f"/><path d="m162 101 23-10v23l-23 10v-23z" fill="#298e97"/><path d="M72 58v24l62 29-62 31v23l90 43v-23l-61-29 61-32v-23L72 58z" fill="#49c1bf"/><path d="m162 208 23-10v-72l-23 10v72z" fill="#298e97"/></g></g><defs><clipPath id="a"><path fill="#fff" d="M0 0h256v256H0z"/></clipPath><clipPath id="b"><path fill="#fff" transform="translate(72 48)" d="M0 0h113v160H0z"/></clipPath></defs></svg>