<svg xmlns="http://www.w3.org/2000/svg" width="400" height="400" fill="none"><circle cx="200" cy="200" r="200" fill="#000"/><path d="m281.8 251.9 33.2 44.3a149.9 149.9 0 0 1-190.4 33.5l90.5-67.3 19.6 19c7.2 6.7 4.4 7 13.6 2a94 94 0 0 0 31.2-28.8c.3-.7 1-1.4 1.3-2-.3 0 0 0 1-.7zm-133.1 29.8-24 18.2-17.4 12.9c-2.3 2-4 2-6.7-.3A149 149 0 0 1 68 129.7l1.4-2.3c0-.4.3-.4 1-.7l67.4 88.3c-.7 1-1 1.7-1.7 2.4-6.7 7-13.5 14.2-20.6 21-2 2-2.4 3.7-1 6a98.8 98.8 0 0 0 29 33.9c1.8 1 3.1 2 5.2 3.4zM275 71.6l-32.6 23-55.5 39.9c-2.4 1.7-4.1 2-6.1-.4-6.1-6.4-12.6-12.1-18.7-18.6-1.7-1.7-3.4-2-5.7-1a98.5 98.5 0 0 0-37.7 33.9L103.3 128l-15.6-21c-1.7-2.4-2-4 .3-6.4a148 148 0 0 1 97-49.8c30.4-3.4 59.6 2.7 86.7 17.3 1 .6 2 1 3 1.7 0 1 0 1.3.4 1.7zm55.2 203-20-26-45-59.3c-2.1-2.7-2.1-4.4.3-6.8l19-19.3c1.6-1.6 2.3-3.3 1-5.7-7.5-14.2-17.7-26-30.9-35.5-1-.7-2-1.7-3.4-2.4 1-1 2-1.7 2.8-2.4l38.6-29c2-1.8 3.7-2.4 6 0a149.3 149.3 0 0 1 34.6 181c-1 1.3-2 3-3 5.4z" fill="#f7f7f7"/></svg>